<?xml version="1.0" encoding="utf-8"?>
<!-- Generator: Adobe Illustrator 24.0.3, SVG Export Plug-In . SVG Version: 6.00 Build 0)  -->
<svg version="1.1" id="Camada_1" xmlns="http://www.w3.org/2000/svg" xmlns:xlink="http://www.w3.org/1999/xlink" x="0px" y="0px"
	 viewBox="0 0 964 637" style="enable-background:new 0 0 964 637;" xml:space="preserve">
<style type="text/css">
	.st0{fill-rule:evenodd;clip-rule:evenodd;}
	.st1{fill-rule:evenodd;clip-rule:evenodd;fill:#269FFF;stroke:#69C3FF;stroke-width:3;}
	.st2{fill-rule:evenodd;clip-rule:evenodd;fill:#003380;}
</style>
<title>Group 2</title>
<desc>Created with Sketch.</desc>
<g id="Page-1">
	<g id="Artboard-Copy-15" transform="translate(-753.000000, -164.000000)">
		<g id="Group-2" transform="translate(753.000000, 164.000000)">
			<g id="Rectangle">
				<g>
					<path id="path-1" class="st0" d="M30,0h902.7c16.5,0,30,13.4,30,29.9l1.3,575c0,16.6-13.4,30-29.9,30.1c0,0,0,0-0.1,0H30
						c-16.6,0-30-13.4-30-30V30C0,13.4,13.4,0,30,0z"/>
				</g>
				<path class="st1" d="M30,1.5C14.3,1.5,1.5,14.3,1.5,30v575c0,15.7,12.8,28.5,28.5,28.5h904c0,0,0,0,0.1,0
					c15.7,0,28.5-12.8,28.4-28.6l-1.3-575c0-15.7-12.8-28.4-28.5-28.4H30z"/>
			</g>
			<path id="Rectangle_1_" class="st2" d="M40,31h882c7.7,0,14,6.3,14,14v548c0,7.7-6.3,14-14,14H40c-7.7,0-14-6.3-14-14V45
				C26,37.3,32.3,31,40,31z"/>
		</g>
	</g>
</g>
</svg>
