<?xml version="1.0" encoding="UTF-8"?>
<svg width="670px" height="198px" viewBox="0 0 670 198" version="1.1" xmlns="http://www.w3.org/2000/svg" xmlns:xlink="http://www.w3.org/1999/xlink">
    <!-- Generator: Sketch 53.2 (72643) - https://sketchapp.com -->
    <title>Group 2</title>
    <desc>Created with Sketch.</desc>
    <defs>
        <path d="M104.461657,29.3457108 L112.157479,52.2671576 C114.927975,60.1087052 122.315965,59.7983385 130.935286,59.7983385 L149.69675,58.8418167 C168.78239,58.8418167 182.651214,89.3637096 167.259568,100.522835 L147.25043,114.999538 C146.872873,115.268564 146.545259,115.553848 146.221665,115.809465 C130.935286,127.884633 140.167568,129.112984 149.69675,152.782609 C159.225932,176.452233 133.090116,192.208622 117.390638,181.351095 L97.3814999,166.874392 C90.6091761,162.048824 81.0663561,162.048824 74.2940323,166.874392 L54.2848937,181.049497 C38.8932486,192.208622 15.3226265,181.351095 22.8477876,152.782609 L31.505259,136.412995 C34.2757551,128.571448 31.1974261,119.825106 24.4251023,114.69794 L8.32607606,100.522835 C-7.06556901,89.3637096 -1.0643609,57.885295 25.8888948,57.885295 L40.740246,59.7983385 C49.3595673,59.7983385 56.7475569,60.1087052 59.518053,52.2671576 L67.2138756,29.3457108 C72.7548678,11.5514297 98.6128315,11.5514297 104.461657,29.3457108 Z" id="path-1"></path>
        <path d="M345.461657,13.3457108 L353.157479,36.2671576 C355.927975,44.1087052 363.315965,43.7983385 371.935286,43.7983385 L390.69675,42.8418167 C409.78239,42.8418167 423.651214,73.3637096 408.259568,84.5228351 L388.25043,98.9995383 C387.872873,99.2685637 387.545259,99.5538484 387.221665,99.8094649 C371.935286,111.884633 381.167568,113.112984 390.69675,136.782609 C400.225932,160.452233 374.090116,176.208622 358.390638,165.351095 L338.3815,150.874392 C331.609176,146.048824 322.066356,146.048824 315.294032,150.874392 L295.284894,165.049497 C279.893249,176.208622 256.322627,165.351095 263.847788,136.782609 L272.505259,120.412995 C275.275755,112.571448 272.197426,103.825106 265.425102,98.6979403 L249.326076,84.5228351 C233.934431,73.3637096 239.935639,41.885295 266.888895,41.885295 L281.740246,43.7983385 C290.359567,43.7983385 297.747557,44.1087052 300.518053,36.2671576 L308.213876,13.3457108 C313.754868,-4.44857027 339.612831,-4.44857027 345.461657,13.3457108 Z" id="path-2"></path>
        <path d="M588.461657,29.3457108 L596.157479,52.2671576 C598.927975,60.1087052 606.315965,59.7983385 614.935286,59.7983385 L633.69675,58.8418167 C652.78239,58.8418167 666.651214,89.3637096 651.259568,100.522835 L631.25043,114.999538 C630.872873,115.268564 630.545259,115.553848 630.221665,115.809465 C614.935286,127.884633 624.167568,129.112984 633.69675,152.782609 C643.225932,176.452233 617.090116,192.208622 601.390638,181.351095 L581.3815,166.874392 C574.609176,162.048824 565.066356,162.048824 558.294032,166.874392 L538.284894,181.049497 C522.893249,192.208622 499.322627,181.351095 506.847788,152.782609 L515.505259,136.412995 C518.275755,128.571448 515.197426,119.825106 508.425102,114.69794 L492.326076,100.522835 C476.934431,89.3637096 482.935639,57.885295 509.888895,57.885295 L524.740246,59.7983385 C533.359567,59.7983385 540.747557,60.1087052 543.518053,52.2671576 L551.213876,29.3457108 C556.754868,11.5514297 582.612831,11.5514297 588.461657,29.3457108 Z" id="path-3"></path>
    </defs>
    <g id="Page-1" stroke="none" stroke-width="1" fill="none" fill-rule="evenodd">
        <g id="Group-2" transform="translate(6.000000, 6.000000)">
            <g id="Path-Copy-2">
                <use stroke="#2B1146" stroke-width="5" fill="#02054C" fill-rule="evenodd" xlink:href="#path-1"></use>
                <path stroke="#0072D9" stroke-width="6" d="M139.322402,138.263542 C139.324325,138.267079 139.326344,138.270792 139.32846,138.274684 C139.326531,138.271136 139.324605,138.267593 139.322681,138.264055 Z M107.308584,28.3996182 L114.986123,51.2677699 C116.63661,55.9392703 119.516838,56.8131589 129.988037,56.7991761 C130.410023,56.7986126 130.625567,56.798384 130.858738,56.7983447 L149.543998,55.8457081 L149.69675,55.8418167 C171.79503,55.8418167 186.717592,90.1210439 169.018088,102.953392 L148.991323,117.442752 C148.911627,117.499538 148.825883,117.564405 148.725463,117.643708 C148.633489,117.716341 148.206044,118.06502 148.08126,118.163591 C143.553359,121.740315 141.59679,124.062662 141.180394,125.954841 C140.821047,127.587774 141.428609,129.485706 143.736066,133.809111 C143.975836,134.258361 144.230917,134.730422 144.593318,135.396934 C144.381807,135.007927 145.322446,136.73657 145.555485,137.166596 C146.378099,138.684555 147.029474,139.911713 147.689548,141.199284 C149.444592,144.622753 150.996965,147.979277 152.479686,151.662223 C157.388728,163.855838 154.002124,175.43867 144.817332,182.404812 C136.171976,188.961822 124.336345,189.802191 115.632119,183.781652 L95.6406068,169.317605 C89.910161,165.234419 81.7653712,165.234419 76.0282444,169.322352 L56.0458153,183.478314 C47.4444226,189.714426 36.2911744,189.989487 28.2337365,184.258609 C19.5208427,178.061537 16.16948,166.358432 19.9467424,152.018451 L20.0345927,151.684936 L28.7452942,135.214675 C30.9065687,128.80525 28.4211997,121.486066 22.6142884,117.089792 L22.4425911,116.949529 L6.44614871,102.864748 C-2.00368297,96.6496345 -5.05154183,84.8695797 -1.63083383,74.1104238 C2.04110945,62.5610574 12.1407218,54.885295 25.8888948,54.885295 L26.0813191,54.885295 L40.9329993,56.7983808 C41.127584,56.7984695 41.3358712,56.7987066 41.6874952,56.7991761 C52.1586942,56.8131589 55.0389223,55.9392703 56.6740697,51.3122968 L64.3495333,28.4537783 C70.762475,7.85932857 100.547136,7.85621365 107.308584,28.3996182 Z"></path>
            </g>
            <g id="Path-Copy-2">
                <use stroke="#2B1146" stroke-width="5" fill="#02054C" fill-rule="evenodd" xlink:href="#path-2"></use>
                <path stroke="#0072D9" stroke-width="6" d="M380.322402,122.263542 C380.324325,122.267079 380.326344,122.270792 380.32846,122.274684 C380.326531,122.271136 380.324605,122.267593 380.322681,122.264055 Z M348.308584,12.3996182 L355.986123,35.2677699 C357.63661,39.9392703 360.516838,40.8131589 370.988037,40.7991761 C371.410023,40.7986126 371.625567,40.798384 371.858738,40.7983447 L390.543998,39.8457081 L390.69675,39.8418167 C412.79503,39.8418167 427.717592,74.1210439 410.018088,86.9533925 L389.991323,101.442752 C389.911627,101.499538 389.825883,101.564405 389.725463,101.643708 C389.633489,101.716341 389.206044,102.06502 389.08126,102.163591 C384.553359,105.740315 382.59679,108.062662 382.180394,109.954841 C381.821047,111.587774 382.428609,113.485706 384.736066,117.809111 C384.975836,118.258361 385.230917,118.730422 385.593318,119.396934 C385.381807,119.007927 386.322446,120.73657 386.555485,121.166596 C387.378099,122.684555 388.029474,123.911713 388.689548,125.199284 C390.444592,128.622753 391.996965,131.979277 393.479686,135.662223 C398.388728,147.855838 395.002124,159.43867 385.817332,166.404812 C377.171976,172.961822 365.336345,173.802191 356.632119,167.781652 L336.640607,153.317605 C330.910161,149.234419 322.765371,149.234419 317.028244,153.322352 L297.045815,167.478314 C288.444423,173.714426 277.291174,173.989487 269.233737,168.258609 C260.520843,162.061537 257.16948,150.358432 260.946742,136.018451 L261.034593,135.684936 L269.745294,119.214675 C271.906569,112.80525 269.4212,105.486066 263.614288,101.089792 L263.442591,100.949529 L247.446149,86.8647478 C238.996317,80.6496345 235.948458,68.8695797 239.369166,58.1104238 C243.041109,46.5610574 253.140722,38.885295 266.888895,38.885295 L267.081319,38.885295 L281.933004,40.7983815 C282.127584,40.7984695 282.335871,40.7987066 282.687495,40.7991761 C293.158694,40.8131589 296.038922,39.9392703 297.67407,35.3122968 L305.349533,12.4537783 C311.762475,-8.14067143 341.547136,-8.14378635 348.308584,12.3996182 Z"></path>
            </g>
            <g id="Path-Copy-2">
                <use stroke="#2B1146" stroke-width="5" fill="#02054C" fill-rule="evenodd" xlink:href="#path-3"></use>
                <path stroke="#0072D9" stroke-width="6" d="M623.322402,138.263542 C623.324325,138.267079 623.326344,138.270792 623.32846,138.274684 C623.326531,138.271136 623.324605,138.267593 623.322681,138.264055 Z M591.308584,28.3996182 L598.986123,51.2677699 C600.63661,55.9392703 603.516838,56.8131589 613.988037,56.7991761 C614.410023,56.7986126 614.625567,56.798384 614.858738,56.7983447 L633.543998,55.8457081 L633.69675,55.8418167 C655.79503,55.8418167 670.717592,90.1210439 653.018088,102.953392 L632.991323,117.442752 C632.911627,117.499538 632.825883,117.564405 632.725463,117.643708 C632.633489,117.716341 632.206044,118.06502 632.08126,118.163591 C627.553359,121.740315 625.59679,124.062662 625.180394,125.954841 C624.821047,127.587774 625.428609,129.485706 627.736066,133.809111 C627.975836,134.258361 628.230917,134.730422 628.593318,135.396934 C628.381807,135.007927 629.322446,136.73657 629.555485,137.166596 C630.378099,138.684555 631.029474,139.911713 631.689548,141.199284 C633.444592,144.622753 634.996965,147.979277 636.479686,151.662223 C641.388728,163.855838 638.002124,175.43867 628.817332,182.404812 C620.171976,188.961822 608.336345,189.802191 599.632119,183.781652 L579.640607,169.317605 C573.910161,165.234419 565.765371,165.234419 560.028244,169.322352 L540.045815,183.478314 C531.444423,189.714426 520.291174,189.989487 512.233737,184.258609 C503.520843,178.061537 500.16948,166.358432 503.946742,152.018451 L504.034593,151.684936 L512.745294,135.214675 C514.906569,128.80525 512.4212,121.486066 506.614288,117.089792 L506.442591,116.949529 L490.446149,102.864748 C481.996317,96.6496345 478.948458,84.8695797 482.369166,74.1104238 C486.041109,62.5610574 496.140722,54.885295 509.888895,54.885295 L510.081319,54.885295 L524.933004,56.7983815 C525.127584,56.7984695 525.335871,56.7987066 525.687495,56.7991761 C536.158694,56.8131589 539.038922,55.9392703 540.67407,51.3122968 L548.349533,28.4537783 C554.762475,7.85932857 584.547136,7.85621365 591.308584,28.3996182 Z"></path>
            </g>
        </g>
    </g>
</svg>