<svg id="Camada_1" data-name="Camada 1" xmlns="http://www.w3.org/2000/svg" viewBox="0 0 148 115"><defs><style>.cls-1{fill:#002a6a;stroke:#6dc0f6;stroke-width:3px;}.cls-1,.cls-4{fill-rule:evenodd;}.cls-2{fill:#60a2ea;}.cls-3{fill:#a0e1fd;}.cls-4{fill:#ebfeff;}</style></defs><title>btReward_hover</title><g id="Page-1"><g id="Artboard-Copy-11"><g id="premiar"><path id="Rectangle" class="cls-1" d="M17,1.5A15.5,15.5,0,0,0,1.5,17V98A15.5,15.5,0,0,0,17,113.5H131A15.5,15.5,0,0,0,146.5,98V17A15.5,15.5,0,0,0,131,1.5Z"/><rect class="cls-2" x="7" y="13" width="134" height="93" rx="10"/><rect class="cls-3" x="7" y="10" width="134" height="88" rx="11"/><path id="Combined-Shape" class="cls-4" d="M141,23a12.81,12.81,0,0,0-12.62-13H19.62A12.81,12.81,0,0,0,7,23V20C7,12.82,10.6,7,19.62,7H128.38C137.06,7,141,12.82,141,20Z"/></g></g></g></svg>