<?xml version="1.0" encoding="UTF-8"?>
<svg width="148px" height="115px" viewBox="0 0 148 115" version="1.1" xmlns="http://www.w3.org/2000/svg" xmlns:xlink="http://www.w3.org/1999/xlink">
    <!-- Generator: Sketch 53.2 (72643) - https://sketchapp.com -->
    <title>premiar</title>
    <desc>Created with Sketch.</desc>
    <g id="Page-1" stroke="none" stroke-width="1" fill="none" fill-rule="evenodd">
        <g id="Artboard-Copy-11" transform="translate(-1030.000000, -60.000000)">
            <g id="premiar" transform="translate(1030.000000, 60.000000)">
                <path d="M17,1.5 C8.43958638,1.5 1.5,8.43958638 1.5,17 L1.5,98 C1.5,106.560414 8.43958638,113.5 17,113.5 L131,113.5 C139.560414,113.5 146.5,106.560414 146.5,98 L146.5,17 C146.5,8.43958638 139.560414,1.5 131,1.5 L17,1.5 Z" id="Rectangle" stroke="#6DC0F6" stroke-width="3" fill="#002A6A"></path>
                <rect id="Rectangle" fill="#387ED9" x="7" y="13" width="134" height="93" rx="10"></rect>
                <rect id="Rectangle" fill="#88D5F6" x="7" y="10" width="134" height="88" rx="11"></rect>
                <path d="M141,23 C141,15.8202983 135.348406,10 128.376812,10 L19.6231884,10 C12.651594,10 7,15.8202983 7,23 L7,20 C7,12.8202983 10.6011867,7 19.6231884,7 L128.376812,7 C137.063638,7 141,12.8202983 141,20 L141,23 Z" id="Combined-Shape" fill="#D6FAFF"></path>
            </g>
        </g>
    </g>
</svg>