<svg id="Camada_1" data-name="Camada 1" xmlns="http://www.w3.org/2000/svg" viewBox="0 0 148 115"><defs><style>.cls-1{fill:#002a6a;}.cls-1,.cls-5{fill-rule:evenodd;}.cls-2{fill:#6dc0f6;}.cls-3{fill:#1d60b6;}.cls-4{fill:#46baec;}.cls-5{fill:#86d5ff;}</style></defs><title>btReward_active</title><g id="Rectangle"><path class="cls-1" d="M17,1.5A15.5,15.5,0,0,0,1.5,17V98A15.5,15.5,0,0,0,17,113.5H131A15.5,15.5,0,0,0,146.5,98V17A15.5,15.5,0,0,0,131,1.5Z"/><path class="cls-2" d="M131,115H17A17,17,0,0,1,0,98V17A17,17,0,0,1,17,0H131a17,17,0,0,1,17,17V98A17,17,0,0,1,131,115ZM17,3A14,14,0,0,0,3,17V98a14,14,0,0,0,14,14H131a14,14,0,0,0,14-14V17A14,14,0,0,0,131,3Z"/></g><rect class="cls-3" x="7" y="13" width="134" height="93" rx="10"/><rect class="cls-4" x="7" y="12" width="134" height="90" rx="11"/><g id="Combined-Shape"><path class="cls-5" d="M141,25a12.81,12.81,0,0,0-12.62-13H19.62A12.81,12.81,0,0,0,7,25V22C7,14.82,10.6,9,19.62,9H128.38C137.06,9,141,14.82,141,22Z"/></g></svg>