<?xml version="1.0" encoding="utf-8"?>
<!-- Generator: Adobe Illustrator 23.0.4, SVG Export Plug-In . SVG Version: 6.00 Build 0)  -->
<svg version="1.1" id="Camada_1" xmlns="http://www.w3.org/2000/svg" xmlns:xlink="http://www.w3.org/1999/xlink" x="0px" y="0px"
	 viewBox="0 0 500 376" style="enable-background:new 0 0 500 376;" xml:space="preserve">
<style type="text/css">
	.st0{fill-rule:evenodd;clip-rule:evenodd;fill:#0070C4;}
</style>
<title>Group 2</title>
<desc>Created with Sketch.</desc>
<g id="Page-1">
	<g id="Artboard-Copy-24" transform="translate(-21.000000, -681.000000)">
		<g id="Group-2" transform="translate(21.000000, 681.000000)">
			<path id="Fill-1" class="st0" d="M3.5,46C1.6,46,0,44.4,0,42.5V14C0,6.3,6.3,0,14,0h25.5C41.4,0,43,1.6,43,3.5S41.4,7,39.5,7H14
				c-3.8,0-7,3.1-7,7v28.5C7,44.4,5.4,46,3.5,46"/>
			<path class="st0" d="M3.5,329c-1.9,0-3.5,1.6-3.5,3.5V361c0,7.7,6.3,14,14,14h25.5c1.9,0,3.5-1.6,3.5-3.5s-1.6-3.5-3.5-3.5H14
				c-3.8,0-7-3.1-7-7v-28.5C7,330.6,5.4,329,3.5,329"/>
			<path class="st0" d="M496.5,46c1.9,0,3.5-1.6,3.5-3.5V14c0-7.7-6.3-14-14-14h-25.5c-1.9,0-3.5,1.6-3.5,3.5s1.6,3.5,3.5,3.5H486
				c3.8,0,7,3.1,7,7v28.5C493,44.4,494.6,46,496.5,46"/>
			<path class="st0" d="M496.5,330c1.9,0,3.5,1.6,3.5,3.5V362c0,7.7-6.3,14-14,14h-25.5c-1.9,0-3.5-1.6-3.5-3.5s1.6-3.5,3.5-3.5H486
				c3.8,0,7-3.1,7-7v-28.5C493,331.6,494.6,330,496.5,330"/>
		</g>
	</g>
</g>
</svg>
