<?xml version="1.0" encoding="utf-8"?>
<!-- Generator: Adobe Illustrator 23.0.4, SVG Export Plug-In . SVG Version: 6.00 Build 0)  -->
<svg version="1.1" id="Camada_1" xmlns="http://www.w3.org/2000/svg" xmlns:xlink="http://www.w3.org/1999/xlink" x="0px" y="0px"
	 viewBox="0 0 519 397" style="enable-background:new 0 0 519 397;" xml:space="preserve">
<style type="text/css">
	.st0{fill-rule:evenodd;clip-rule:evenodd;fill:#00225A;}
	.st1{fill-rule:evenodd;clip-rule:evenodd;fill:#2E97FF;stroke:#69C3FF;stroke-width:3;}
	.st2{fill-rule:evenodd;clip-rule:evenodd;fill:#033D95;}
	.st3{fill-rule:evenodd;clip-rule:evenodd;fill:#9DD8FF;}
	.st4{fill-rule:evenodd;clip-rule:evenodd;fill:#02044B;}
</style>
<title>Group</title>
<desc>Created with Sketch.</desc>
<g id="Page-1">
	<g id="Group" transform="translate(-0.000000, 0.000000)">
		<path id="Combined-Shape" class="st0" d="M518.7,366.1l0.1,11.7c0.1,10.5-8.3,19.1-18.8,19.2c-0.1,0-0.1,0-0.2,0H19
			c-10.5,0-19-8.5-19-19v-14c0,10.5,8.5,19,19,19h480.8c0.1,0,0.1,0,0.2,0C509.7,382.9,517.7,375.5,518.7,366.1z"/>
		<g id="bloco_options2" transform="translate(0.000000, 0.000000)">
			<path id="Rectangle-Copy-15" class="st1" d="M23,1.5C11.1,1.5,1.5,11.1,1.5,23v342c0,11.9,9.6,21.5,21.5,21.5h472.9
				c0.1,0,0.1,0,0.2,0c11.9-0.1,21.4-9.8,21.3-21.7l-3-342c-0.1-11.8-9.7-21.3-21.5-21.3H23z"/>
			<path id="Rectangle-Copy-16" class="st2" d="M35,129h449c7.7,0,14,6.3,14,14v212c0,7.7-6.3,14-14,14H35c-7.7,0-14-6.3-14-14V143
				C21,135.3,27.3,129,35,129z"/>
			<g id="Group-3-Copy-4" transform="translate(21.000000, 120.000000)">
				<path class="st3" d="M477,25.8c0-7.2-5.8-13-13-13H13c-7.2,0-13,5.8-13,13V13C0,5.8,5.8,0,13,0h451c7.2,0,13,5.8,13,13V25.8z"/>
				<path class="st4" d="M477,29.2c0-7.2-5.8-13-13-13H13c-7.2,0-13,5.8-13,13V19C0,11.8,5.8,6,13,6h451c7.2,0,13,5.8,13,13V29.2z"
					/>
			</g>
			<g id="Clip-2">
			</g>
		</g>
	</g>
</g>
</svg>
