<?xml version="1.0" encoding="UTF-8"?>
<svg width="315px" height="138px" viewBox="0 0 315 138" version="1.1" xmlns="http://www.w3.org/2000/svg" xmlns:xlink="http://www.w3.org/1999/xlink">
    <!-- Generator: Sketch 53.2 (72643) - https://sketchapp.com -->
    <title>Group 176</title>
    <desc>Created with Sketch.</desc>
    <defs>
        <polygon id="path-1" points="0.7554 0.7772 66.113 0.7772 66.113 69.7792 0.7554 69.7792"></polygon>
    </defs>
    <g id="Page-1" stroke="none" stroke-width="1" fill="none" fill-rule="evenodd">
        <g id="Artboard-Copy-10" transform="translate(-206.000000, -84.000000)">
            <g id="Group-176" transform="translate(206.000000, 84.000000)">
                <path d="M43.6538,28.9375 C43.3398,28.9375 43.0398,28.9425 42.7528,28.9475 L42.6138,28.9495 C42.3378,28.9535 42.0698,28.9575 41.8118,28.9575 C34.5408,28.9575 28.6258,34.8735 28.6258,42.1435 C28.6258,47.1385 31.4168,51.4935 35.5208,53.7305 C33.0098,51.1435 31.4628,47.6175 31.4628,43.7355 C31.4628,35.8165 37.9048,29.3745 45.8228,29.3745 C45.9228,29.3745 46.0208,29.3765 46.1198,29.3815 C46.3648,29.3825 46.9038,29.3855 47.6488,29.3885 C46.0588,29.0185 44.7938,28.9375 43.6538,28.9375 M41.8118,10.3655 C24.2898,10.3655 10.0348,24.6215 10.0348,42.1435 C10.0348,59.6665 24.2898,73.9215 41.8118,73.9215 C53.0008,73.9215 62.2398,69.0365 67.8298,60.1645 C71.2178,54.7865 70.4748,48.1915 68.3488,44.3405 C66.6628,41.2845 63.9088,39.4585 60.9848,39.4585 C55.9098,39.4585 46.3458,39.4165 45.9418,39.4155 L45.7148,39.4105 C43.3798,39.4675 41.4968,41.3855 41.4968,43.7355 C41.4968,46.1215 43.4368,48.0625 45.8228,48.0625 C45.9668,48.0625 46.1468,48.0475 46.3748,48.0185 L46.7048,47.9755 L47.0378,47.9775 C49.0098,47.9855 52.7958,48.0005 56.2968,48.0085 L65.4328,48.0305 L60.5108,55.7285 C56.5378,61.9425 49.8968,65.3655 41.8118,65.3655 C29.0078,65.3655 18.5918,54.9485 18.5918,42.1435 C18.5918,29.3395 29.0078,18.9225 41.8118,18.9225 C42.0228,18.9225 42.2428,18.9195 42.4678,18.9165 L42.5918,18.9145 C42.9288,18.9095 43.2838,18.9035 43.6538,18.9035 C47.0138,18.9035 51.3838,19.3555 58.3158,22.7085 C60.0598,23.5515 62.2688,24.5195 63.8828,24.5195 C64.6138,24.5195 65.1268,24.3155 65.6538,23.8165 C66.4968,23.0185 66.9578,21.9855 66.9888,20.8285 C67.0208,19.6665 66.6168,18.6095 65.8208,17.7685 C59.6068,11.2085 49.7258,10.3665 41.8118,10.3655 M41.8118,83.9565 C18.7578,83.9565 0.0008,65.1995 0.0008,42.1435 C0.0008,19.0875 18.7578,0.3315 41.8118,0.3315 C51.7368,0.3325 64.2618,1.5305 73.1058,10.8685 C75.7358,13.6445 77.1258,17.2785 77.0188,21.1015 C76.9178,24.9185 75.3318,28.4725 72.5528,31.1025 C72.0098,31.6175 71.4348,32.0765 70.8318,32.4785 C73.3518,34.1875 75.5188,36.5655 77.1338,39.4915 C80.7558,46.0535 81.9068,56.6445 76.3188,65.5135 C68.8268,77.4065 56.5718,83.9565 41.8118,83.9565" id="Fill-1" fill="#1F191A"></path>
                <path d="M60.9849,33.8613 C55.9179,33.8613 46.3679,33.8193 45.9639,33.8173 L45.9369,33.8153 C45.8999,33.8133 45.8609,33.8103 45.8229,33.8103 C40.6709,33.8103 36.4789,38.0033 36.4789,43.1543 C36.4789,48.3073 40.6719,52.4993 45.8229,52.4993 C46.1879,52.4993 46.5699,52.4713 47.0169,52.4143 C48.9919,52.4223 52.7799,52.4363 56.2839,52.4453 C52.4169,58.4933 46.2869,59.7673 41.8119,59.7673 C31.7749,59.7673 23.6079,51.6003 23.6079,41.5623 C23.6079,31.5253 31.7739,23.3583 41.8119,23.3583 C42.0849,23.3583 42.3679,23.3543 42.6629,23.3493 C42.9769,23.3443 43.3079,23.3393 43.6539,23.3393 C46.4459,23.3393 50.1119,23.7323 56.1319,26.6433 C58.4959,27.7863 61.2639,28.9553 63.8819,28.9553 C65.8919,28.9553 67.6479,28.2563 69.1039,26.8773 C70.9079,25.1703 71.9369,22.8633 72.0049,20.3813 C72.0729,17.8983 71.1709,15.5393 69.4639,13.7363 C61.9339,5.7863 50.7309,4.7663 41.8119,4.7663 C21.5239,4.7663 5.0169,21.2723 5.0169,41.5613 C5.0169,61.8503 21.5239,78.3563 41.8119,78.3563 C54.7849,78.3563 65.5329,72.6393 72.0749,62.2573 C76.5719,55.1183 75.6509,46.6053 72.7429,41.3353 C70.1589,36.6553 65.7629,33.8613 60.9849,33.8613" id="Fill-3" fill="#3AD5FA"></path>
                <path d="M108.7534,46.3037 C106.2074,46.3037 104.1354,48.3747 104.1354,50.9207 C104.1354,53.4667 106.2074,55.5377 108.7534,55.5377 C111.2994,55.5377 113.3714,53.4667 113.3714,50.9207 C113.3714,48.3747 111.2994,46.3037 108.7534,46.3037 M108.7534,65.5727 C100.6744,65.5727 94.1014,58.9997 94.1014,50.9207 C94.1014,42.8427 100.6744,36.2697 108.7534,36.2697 C116.8324,36.2697 123.4054,42.8427 123.4054,50.9207 C123.4054,58.9997 116.8324,65.5727 108.7534,65.5727 M108.7524,27.7117 C95.9554,27.7117 85.5444,38.1237 85.5444,50.9207 C85.5444,63.7177 95.9554,74.1297 108.7524,74.1297 C113.6184,74.1297 117.7764,72.6017 119.8744,70.0407 L124.9394,63.8637 L128.3054,71.1077 C128.6874,71.9287 129.7584,73.8397 131.4594,73.8397 C133.8184,73.8397 135.7384,71.9197 135.7384,69.5617 L135.7384,32.5727 C135.7384,30.2127 133.8184,28.2927 131.4594,28.2927 C129.5244,28.2927 128.0334,29.1077 127.4714,30.4707 L124.6804,37.2367 L119.3754,32.1947 C115.9404,28.9267 113.0604,27.7117 108.7524,27.7117 M108.7524,84.1637 C90.4234,84.1637 75.5104,69.2507 75.5104,50.9207 C75.5104,32.5907 90.4234,17.6777 108.7524,17.6777 C113.7764,17.6777 118.0244,18.8767 122.0074,21.4887 C124.5174,19.4267 127.8134,18.2587 131.4594,18.2587 C139.3524,18.2587 145.7734,24.6797 145.7734,32.5727 L145.7734,69.5617 C145.7734,77.4527 139.3524,83.8737 131.4594,83.8737 C128.2634,83.8737 125.2984,82.6627 122.9114,80.4847 C119.0544,82.8627 114.1504,84.1637 108.7524,84.1637" id="Fill-5" fill="#1F191A"></path>
                <path d="M108.7524,40.7051 C114.0654,40.7051 118.3884,45.0271 118.3884,50.3401 C118.3884,55.6521 114.0654,59.9751 108.7524,59.9751 C103.4404,59.9751 99.1184,55.6521 99.1184,50.3401 C99.1184,45.0271 103.4404,40.7051 108.7524,40.7051 M131.4584,22.6951 C127.4524,22.6951 124.1684,24.7381 122.8324,27.9761 C118.4644,23.8231 114.3254,22.1141 108.7524,22.1141 C93.1894,22.1141 80.5274,34.7751 80.5274,50.3401 C80.5274,65.9041 93.1894,78.5651 108.7524,78.5651 C115.1854,78.5651 120.6994,76.3691 123.7554,72.6411 C125.4034,76.1881 128.2274,78.2751 131.4584,78.2751 C136.5854,78.2751 140.7554,74.1051 140.7554,68.9791 L140.7554,31.9911 C140.7554,26.8651 136.5854,22.6951 131.4584,22.6951" id="Fill-7" fill="#FFD11F"></path>
                <path d="M155.6831,27.4072 C153.3241,27.4072 151.4051,29.3272 151.4051,31.6862 L151.4051,69.8372 C151.4051,72.1962 153.3241,74.1152 155.6831,74.1152 C158.0421,74.1152 159.9611,72.1962 159.9611,69.8372 L159.9611,53.9882 C159.6291,45.9122 163.4371,39.9652 169.9001,38.4672 C171.5461,38.0842 173.9941,37.8902 177.1721,37.8902 L178.1721,37.8942 C180.5261,37.8942 182.4671,35.9542 182.4671,33.5682 C182.4671,31.3622 180.8551,29.0972 179.0161,28.7212 L178.5261,28.6082 L178.1691,28.4692 C178.1171,28.4502 173.6851,26.8922 165.7031,31.3212 L161.7651,33.5062 L159.1691,29.8282 C158.1641,28.4022 156.7301,27.4072 155.6831,27.4072 M155.6831,84.1492 C147.7901,84.1492 141.3701,77.7292 141.3701,69.8372 L141.3701,31.6862 C141.3701,23.7942 147.7901,17.3732 155.6831,17.3732 C158.7501,17.3732 161.8181,18.6022 164.3931,20.7792 C173.2211,16.9142 179.2181,18.2172 181.4321,18.9802 C187.7721,20.4902 192.5011,26.6832 192.5011,33.5682 C192.5011,41.4862 186.0591,47.9292 178.1401,47.9292 L177.1721,47.9252 C174.4851,47.9252 172.7961,48.0952 172.1671,48.2412 C170.0991,48.7202 169.9131,51.7892 169.9871,53.5762 C169.9961,53.7742 169.9981,53.9392 169.9961,54.0832 L169.9961,69.8372 C169.9961,77.7292 163.5751,84.1492 155.6831,84.1492" id="Fill-9" fill="#1F191A"></path>
                <path d="M180.021,23.2256 C179.952,23.2086 177.921,22.7466 174.834,22.7466 C171.958,22.7466 167.148,24.4156 163.269,28.1776 C162.586,23.8076 158.723,21.8096 155.683,21.8096 C150.557,21.8096 146.387,25.9796 146.387,31.1056 L146.387,69.2556 C146.387,74.3816 150.557,78.5516 155.683,78.5516 C160.809,78.5516 164.979,74.3816 164.979,69.2556 L164.979,53.4426 C164.982,53.3796 164.979,53.3066 164.974,53.2016 C164.864,50.5146 165.233,44.1186 171.033,42.7746 C172.276,42.4856 174.458,42.3276 177.172,42.3276 C177.51,42.3276 177.78,42.3296 177.954,42.3306 L178.14,42.3316 C183.293,42.3316 187.485,38.1406 187.485,32.9886 C187.485,28.5666 184.346,24.1096 180.021,23.2256" id="Fill-11" fill="#FFD11F"></path>
                <g id="Group-15" transform="translate(248.000000, 15.047000)">
                    <mask id="mask-2" fill="white">
                        <use xlink:href="#path-1"></use>
                    </mask>
                    <g id="Clip-14"></g>
                    <path d="M35.2554,29.4032 C32.0154,29.4032 29.3794,32.0392 29.3794,35.2792 C29.3794,38.5192 32.0154,41.1552 35.2554,41.1552 C37.1724,41.1552 38.9774,40.2142 40.0814,38.6352 C41.2074,37.0262 42.6374,35.6892 44.2654,34.6812 C42.5094,33.8912 40.9104,32.7512 39.5864,31.3062 C39.5244,31.2392 39.4534,31.1672 39.3834,31.0952 C38.2994,30.0122 36.8254,29.4032 35.2554,29.4032 M35.2564,10.8112 C21.7654,10.8112 10.7894,21.7872 10.7894,35.2792 C10.7894,48.7692 21.7654,59.7452 35.2564,59.7452 C43.2344,59.7452 50.7314,55.8402 55.3124,49.2992 C56.6634,47.3662 56.1924,44.6932 54.2594,43.3402 L54.2584,43.3402 C53.5354,42.8342 52.6904,42.5662 51.8134,42.5662 C50.4134,42.5662 49.1014,43.2482 48.3024,44.3892 C45.3194,48.6482 40.4424,51.1892 35.2554,51.1892 C26.4834,51.1892 19.3454,44.0522 19.3454,35.2792 C19.3454,26.5072 26.4834,19.3692 35.2554,19.3692 C39.5064,19.3692 43.4994,21.0212 46.5014,24.0242 C46.6764,24.2012 46.8264,24.3562 46.9734,24.5152 C47.7874,25.4032 48.9384,25.9092 50.1344,25.9092 C51.2074,25.9092 52.2344,25.5082 53.0254,24.7822 C54.7634,23.1872 54.8804,20.4752 53.2854,18.7382 C53.0444,18.4752 52.8034,18.2242 52.5564,17.9762 C47.9364,13.3562 41.7914,10.8112 35.2564,10.8112 M35.2564,69.7792 C16.2324,69.7792 0.7554,54.3022 0.7554,35.2792 C0.7554,16.2552 16.2324,0.7772 35.2564,0.7772 C44.4714,0.7772 53.1354,4.3652 59.6514,10.8812 C59.9954,11.2252 60.3294,11.5742 60.6744,11.9482 C66.0144,17.7682 65.6234,26.8402 59.8094,32.1752 C59.1464,32.7842 58.4344,33.3232 57.6824,33.7912 C58.4934,34.1572 59.2734,34.6012 60.0144,35.1212 C66.4784,39.6462 68.0564,48.5882 63.5314,55.0522 C57.0744,64.2742 46.5054,69.7792 35.2564,69.7792" id="Fill-13" fill="#1F191A" mask="url(#mask-2)"></path>
                </g>
                <path d="M305.1362,53.6963 C303.5662,52.5953 301.7252,52.0143 299.8132,52.0143 C296.7782,52.0143 293.9282,53.4973 292.1912,55.9793 C290.1482,58.8973 286.8082,60.6383 283.2552,60.6383 C277.2492,60.6383 272.3632,55.7523 272.3632,49.7453 C272.3632,43.7383 277.2542,39.0993 283.2552,38.8523 C287.6902,38.6693 291.1752,42.2633 291.2822,42.3813 C293.0392,44.2943 295.5352,45.3913 298.1352,45.3913 C300.4662,45.3913 302.6982,44.5233 304.4172,42.9463 C308.1932,39.4813 308.4472,33.5893 304.9832,29.8123 C304.6872,29.4923 304.3992,29.1923 304.1042,28.8963 C298.5352,23.3283 291.1312,20.2613 283.2562,20.2613 C266.9982,20.2613 253.7732,33.4883 253.7732,49.7463 C253.7732,66.0043 266.9982,79.2303 283.2562,79.2303 C292.8682,79.2303 301.9032,74.5243 307.4212,66.6433 C310.3612,62.4423 309.3352,56.6353 305.1362,53.6963" id="Fill-16" fill="#3AD5FA"></path>
                <path d="M238.0845,32.8301 C235.7265,32.8301 233.8065,34.7501 233.8065,37.1091 L233.8065,70.2251 C233.8065,72.5841 235.7265,74.5031 238.0845,74.5031 C240.4435,74.5031 242.3625,72.5841 242.3625,70.2251 L242.3625,37.1091 C242.3625,35.9701 241.9165,34.8961 241.1065,34.0871 C240.2965,33.2761 239.2235,32.8301 238.0845,32.8301 M238.0845,84.5371 C230.1925,84.5371 223.7715,78.1161 223.7715,70.2251 L223.7715,37.1091 C223.7715,29.2171 230.1925,22.7961 238.0845,22.7961 C241.9035,22.7961 245.4965,24.2861 248.2025,26.9911 C250.9075,29.6971 252.3975,33.2901 252.3975,37.1101 L252.3975,70.2251 C252.3975,78.1161 245.9765,84.5371 238.0845,84.5371" id="Fill-18" fill="#1F191A"></path>
                <path d="M238.3755,9.7295 C235.9325,9.7295 233.9435,11.7175 233.9435,14.1615 L233.9435,14.4515 C233.9435,16.8945 235.9325,18.8815 238.3755,18.8815 C240.8185,18.8815 242.8065,16.8945 242.8065,14.4515 L242.8065,14.1615 C242.8065,11.7175 240.8185,9.7295 238.3755,9.7295 M238.3755,28.6115 C230.5665,28.6115 224.2145,22.2595 224.2145,14.4515 L224.2145,14.1615 C224.2145,6.3525 230.5665,0.0005 238.3755,0.0005 C246.1845,0.0005 252.5365,6.3525 252.5365,14.1615 L252.5365,14.4515 C252.5365,22.2585 246.1845,28.6115 238.3755,28.6115" id="Fill-20" fill="#1F191A"></path>
                <path d="M238.0845,27.2315 C232.9595,27.2315 228.7895,31.4025 228.7895,36.5285 L228.7895,69.6435 C228.7895,74.7695 232.9595,78.9385 238.0845,78.9385 C243.2095,78.9385 247.3805,74.7695 247.3805,69.6435 L247.3805,36.5285 C247.3805,31.4025 243.2095,27.2315 238.0845,27.2315" id="Fill-22" fill="#3AD5FA"></path>
                <path d="M238.3755,4.2842 C233.2495,4.2842 229.0795,8.4542 229.0795,13.5792 L229.0795,13.8702 C229.0795,18.9952 233.2495,23.1662 238.3755,23.1662 C243.5015,23.1662 247.6715,18.9962 247.6715,13.8702 L247.6715,13.5792 C247.6715,8.4542 243.5015,4.2842 238.3755,4.2842" id="Fill-24" fill="#3AD5FA"></path>
                <path d="M108.7524,37.9463 C103.4404,37.9463 99.1184,42.2683 99.1184,47.5813 C99.1184,48.0503 99.1634,48.5093 99.2294,48.9603 C99.9014,44.3003 103.9104,40.7053 108.7524,40.7053 C113.5964,40.7053 117.6054,44.3003 118.2774,48.9613 C118.3434,48.5093 118.3884,48.0503 118.3884,47.5813 C118.3884,42.2683 114.0654,37.9463 108.7524,37.9463" id="Fill-26" fill="#FF9F00"></path>
                <path d="M131.4585,75.5166 C128.2275,75.5166 125.4035,73.4296 123.7545,69.8816 C120.6995,73.6106 115.1855,75.8066 108.7525,75.8066 C93.6505,75.8066 81.2845,63.8856 80.5625,48.9606 C80.5405,49.4176 80.5275,49.8766 80.5275,50.3396 C80.5275,65.9046 93.1885,78.5656 108.7525,78.5656 C115.1855,78.5656 120.6995,76.3696 123.7545,72.6406 C125.4035,76.1886 128.2275,78.2756 131.4585,78.2756 C136.5855,78.2756 140.7555,74.1056 140.7555,68.9796 L140.7555,66.2206 C140.7555,71.3466 136.5855,75.5166 131.4585,75.5166" id="Fill-28" fill="#FF9F00"></path>
                <path d="M108.7524,62.044 C114.0654,62.044 118.3884,57.722 118.3884,52.409 C118.3884,52.06 118.3664,51.715 118.3304,51.374 C117.8124,56.202 113.7164,59.975 108.7524,59.975 C103.7914,59.975 99.6944,56.202 99.1764,51.374 C99.1404,51.715 99.1184,52.06 99.1184,52.409 C99.1184,57.722 103.4404,62.044 108.7524,62.044" id="Fill-30" fill="#FFFAA3"></path>
                <path d="M131.4585,22.6953 C127.4525,22.6953 124.1685,24.0493 122.8325,27.2863 C118.4645,23.1333 114.3255,22.1143 108.7525,22.1143 C93.1885,22.1143 80.5275,34.7753 80.5275,50.3403 C80.5275,50.6863 80.5415,51.0303 80.5535,51.3743 C81.1015,36.2883 93.5355,24.1823 108.7525,24.1823 C114.3255,24.1823 118.4645,25.8923 122.8325,30.0453 C124.1685,26.8073 127.4525,24.7643 131.4585,24.7643 C136.5855,24.7643 140.7555,28.9343 140.7555,34.0603 L140.7555,31.9913 C140.7555,26.8653 136.5855,22.6953 131.4585,22.6953" id="Fill-32" fill="#FFFAA3"></path>
                <path d="M155.6831,75.793 C150.5571,75.793 146.3871,71.623 146.3871,66.497 L146.3871,69.256 C146.3871,74.382 150.5571,78.552 155.6831,78.552 C160.8091,78.552 164.9791,74.382 164.9791,69.256 L164.9791,66.497 C164.9791,71.623 160.8091,75.793 155.6831,75.793" id="Fill-34" fill="#FF9F00"></path>
                <path d="M178.1401,39.5733 L177.9531,39.5723 C177.7801,39.5703 177.5101,39.5683 177.1721,39.5683 C174.4571,39.5683 172.2761,39.7263 171.0331,40.0153 C165.2331,41.3593 164.8641,47.7563 164.9741,50.4423 C164.9791,50.5483 164.9821,50.6213 164.9791,50.6833 L164.9791,51.7313 C165.1081,48.6683 166.1201,43.9123 171.0331,42.7743 C172.2761,42.4853 174.4571,42.3273 177.1721,42.3273 C177.5101,42.3273 177.7801,42.3293 177.9531,42.3313 L178.1401,42.3323 C183.2931,42.3323 187.4851,38.1403 187.4851,32.9883 C187.4851,32.5203 187.4421,32.0523 187.3741,31.5893 C186.7121,36.0973 182.8301,39.5733 178.1401,39.5733" id="Fill-36" fill="#FF9F00"></path>
                <path d="M164.979,53.4424 C164.981,53.4064 164.98,53.3634 164.979,53.3154 L164.979,53.4424 Z" id="Fill-38" fill="#FF9F00"></path>
                <path d="M155.6831,23.8789 C158.7231,23.8789 162.5861,25.8769 163.2681,30.2469 C167.1481,26.4849 171.9581,24.8159 174.8341,24.8159 C177.9211,24.8159 179.9521,25.2779 180.0211,25.2949 C184.0111,26.1089 186.9851,29.9669 187.4221,34.0309 C187.4611,33.6889 187.4851,33.3409 187.4851,32.9879 C187.4851,28.5659 184.3461,24.1089 180.0211,23.2259 C179.9521,23.2089 177.9211,22.7459 174.8341,22.7459 C171.9581,22.7459 167.1481,24.4159 163.2681,28.1779 C162.5861,23.8079 158.7231,21.8099 155.6831,21.8099 C150.5571,21.8099 146.3871,25.9799 146.3871,31.1059 L146.3871,33.1749 C146.3871,28.0489 150.5571,23.8789 155.6831,23.8789" id="Fill-40" fill="#FFFAA3"></path>
                <path d="M164.979,53.8008 C164.956,54.3548 164.958,54.8598 164.974,55.2708 C164.976,55.3148 164.978,55.3498 164.979,55.3838 L164.979,53.8008 Z" id="Fill-42" fill="#FFFAA3"></path>
                <path d="M194.5112,28.7627 C192.1532,28.7627 190.2332,30.6827 190.2332,33.0417 C190.2332,35.4017 192.1532,37.3207 194.5112,37.3207 L200.1102,37.3207 L200.1102,71.0957 C200.1102,73.4547 202.0292,75.3737 204.3882,75.3737 C206.7472,75.3737 208.6672,73.4547 208.6672,71.0957 L208.6672,37.3207 L214.5552,37.3207 C216.9132,37.3207 218.8332,35.4017 218.8332,33.0417 C218.8332,30.6827 216.9132,28.7627 214.5552,28.7627 L208.6672,28.7627 L208.6672,19.9697 C208.6672,17.6117 206.7472,15.6917 204.3882,15.6917 C202.0292,15.6917 200.1102,17.6117 200.1102,19.9697 L200.1102,28.7627 L194.5112,28.7627 Z M204.3882,85.4087 C196.4952,85.4087 190.0752,78.9887 190.0752,71.0957 L190.0752,46.6517 C184.3482,44.7797 180.1982,39.3867 180.1982,33.0417 C180.1982,26.6947 184.3532,21.2977 190.0852,19.4287 C190.3702,11.7867 196.6772,4.9677 204.3882,4.9677 C212.0692,4.9677 218.3552,11.7377 218.6882,19.3367 C224.5712,21.1157 228.8672,26.5857 228.8672,33.0417 C228.8672,39.4927 224.5772,44.9597 218.7012,46.7417 L218.7012,71.0957 C218.7012,78.9887 212.2812,85.4087 204.3882,85.4087 L204.3882,85.4087 Z" id="Fill-44" fill="#1F191A"></path>
                <path d="M214.5552,23.1651 L213.6842,23.1651 L213.6842,19.3901 C213.6842,14.2641 209.5142,10.0941 204.3882,10.0941 C199.2622,10.0941 195.0922,14.2641 195.0922,19.3901 L195.0922,23.1651 L194.5112,23.1651 C189.3862,23.1651 185.2162,27.3351 185.2162,32.4611 C185.2162,37.5871 189.3862,41.7571 194.5112,41.7571 L195.0922,41.7571 L195.0922,70.5151 C195.0922,75.6411 199.2622,79.8111 204.3882,79.8111 C209.5142,79.8111 213.6842,75.6411 213.6842,70.5151 L213.6842,41.7571 L214.5552,41.7571 C219.6802,41.7571 223.8502,37.5871 223.8502,32.4611 C223.8502,27.3361 219.6802,23.1651 214.5552,23.1651" id="Fill-46" fill="#FFD11F"></path>
                <path d="M213.6841,25.2344 L214.5551,25.2344 C219.3301,25.2344 223.2731,28.8564 223.7891,33.4964 C223.8281,33.1554 223.8501,32.8114 223.8501,32.4614 C223.8501,27.3364 219.6801,23.1654 214.5551,23.1654 L213.6841,23.1654 L213.6841,25.2344 Z" id="Fill-48" fill="#FFFAA3"></path>
                <path d="M204.3882,12.1621 C209.5142,12.1621 213.6842,16.3331 213.6842,21.4581 L213.6842,19.3901 C213.6842,14.2641 209.5142,10.0941 204.3882,10.0941 C199.2622,10.0941 195.0922,14.2641 195.0922,19.3901 L195.0922,21.4581 C195.0922,16.3321 199.2622,12.1621 204.3882,12.1621" id="Fill-50" fill="#FFFAA3"></path>
                <path d="M194.5112,25.2344 L195.0922,25.2344 L195.0922,23.1654 L194.5112,23.1654 C189.3862,23.1654 185.2162,27.3354 185.2162,32.4614 C185.2162,32.8114 185.2402,33.1554 185.2772,33.4964 C185.7942,28.8554 189.7362,25.2344 194.5112,25.2344" id="Fill-52" fill="#FFFAA3"></path>
                <path d="M195.0923,38.9981 L194.5113,38.9981 C189.8563,38.9981 186.0003,35.5541 185.3303,31.0821 C185.2623,31.5331 185.2163,31.9911 185.2163,32.4611 C185.2163,37.5871 189.3863,41.7571 194.5113,41.7571 L195.0923,41.7571 L195.0923,38.9981 Z" id="Fill-54" fill="#FF9F00"></path>
                <path d="M204.3882,77.0518 C199.2622,77.0518 195.0922,72.8818 195.0922,67.7558 L195.0922,70.5148 C195.0922,75.6408 199.2622,79.8108 204.3882,79.8108 C209.5142,79.8108 213.6842,75.6408 213.6842,70.5148 L213.6842,67.7558 C213.6842,72.8818 209.5142,77.0518 204.3882,77.0518" id="Fill-56" fill="#FF9F00"></path>
                <path d="M214.5552,38.9981 L213.6842,38.9981 L213.6842,41.7571 L214.5552,41.7571 C219.6802,41.7571 223.8502,37.5871 223.8502,32.4611 C223.8502,31.9911 223.8042,31.5331 223.7372,31.0821 C223.0672,35.5541 219.2102,38.9981 214.5552,38.9981" id="Fill-58" fill="#FF9F00"></path>
                <path d="M238.0845,76.1797 C232.9595,76.1797 228.7895,72.0107 228.7895,66.8847 L228.7895,69.6437 C228.7895,74.7697 232.9595,78.9387 238.0845,78.9387 C243.2095,78.9387 247.3795,74.7697 247.3795,69.6437 L247.3795,66.8847 C247.3795,72.0107 243.2095,76.1797 238.0845,76.1797" id="Fill-60" fill="#0098D6"></path>
                <path d="M238.3755,21.7862 C233.9435,21.7862 229.0795,17.7562 229.1715,12.3452 C229.1165,12.7502 229.0795,13.1602 229.0795,13.5792 L229.0795,13.8702 C229.0795,18.9952 233.2495,23.1662 238.3755,23.1662 C243.5015,23.1662 247.6715,18.9962 247.6715,13.8702 L247.6715,13.5792 C247.6715,13.1602 247.6335,12.7502 247.5795,12.3462 C247.5795,17.7562 243.0815,21.7862 238.3755,21.7862" id="Fill-62" fill="#0098D6"></path>
                <path d="M238.3755,4.2842 C233.2495,4.2842 229.0795,8.4542 229.0795,13.5792 L229.0795,13.8702 C229.0795,14.0542 229.0965,14.2332 229.1065,14.4142 C229.3915,9.5432 233.4335,5.6632 238.3755,5.6632 C243.3175,5.6632 247.3585,9.5432 247.6445,14.4142 C247.6535,14.2332 247.6715,14.0542 247.6715,13.8702 L247.6715,13.5792 C247.6715,8.4542 243.5015,4.2842 238.3755,4.2842" id="Fill-64" fill="#99F0FF"></path>
                <path d="M238.0845,27.2315 C232.9595,27.2315 228.7895,31.4025 228.7895,36.5285 L228.7895,38.5965 C228.7895,33.4705 232.9595,29.3005 238.0845,29.3005 C243.2095,29.3005 247.3805,33.4715 247.3795,38.5965 L247.3795,36.5285 C247.3805,31.4025 243.2095,27.2315 238.0845,27.2315" id="Fill-66" fill="#99F0FF"></path>
                <path d="M298.1353,42.6328 C295.5353,42.6328 293.0393,41.5348 291.2823,39.6218 C291.1753,39.5048 287.6903,35.9098 283.2553,36.0938 C277.2543,36.3408 272.3633,40.9798 272.3633,46.9868 C272.3633,47.4548 272.4033,47.9148 272.4603,48.3678 C273.1433,43.0448 277.7233,39.0798 283.2553,38.8528 C287.6903,38.6688 291.1753,42.2638 291.2823,42.3808 C293.0393,44.2938 295.5353,45.3918 298.1353,45.3918 C300.4663,45.3918 302.6973,44.5238 304.4163,42.9458 C306.7803,40.7778 307.7633,37.6588 307.3203,34.7028 C307.0193,36.7398 306.0483,38.6908 304.4163,40.1878 C302.6973,41.7648 300.4663,42.6328 298.1353,42.6328" id="Fill-68" fill="#0098D6"></path>
                <path d="M307.4214,63.8848 C301.9024,71.7658 292.8684,76.4718 283.2564,76.4718 C267.4614,76.4718 254.5304,63.9868 253.8074,48.3658 C253.7864,48.8238 253.7734,49.2828 253.7734,49.7458 C253.7734,66.0038 266.9984,79.2308 283.2564,79.2308 C292.8684,79.2308 301.9024,74.5248 307.4214,66.6438 C308.8404,64.6138 309.3274,62.2118 308.9864,59.9378 C308.7804,61.3158 308.2734,62.6678 307.4214,63.8848" id="Fill-70" fill="#0098D6"></path>
                <path d="M305.1362,53.6963 C303.5662,52.5953 301.7252,52.0143 299.8132,52.0143 C296.7782,52.0143 293.9282,53.4973 292.1912,55.9793 C290.1482,58.8973 286.8082,60.6383 283.2552,60.6383 C277.5992,60.6383 272.9392,56.3033 272.4152,50.7823 C272.3832,51.1213 272.3632,51.4653 272.3632,51.8143 C272.3632,57.8213 277.2492,62.7083 283.2552,62.7083 C286.8082,62.7083 290.1482,60.9663 292.1912,58.0493 C293.9282,55.5653 296.7782,54.0843 299.8132,54.0843 C301.7252,54.0843 303.5662,54.6653 305.1362,55.7653 C307.4222,57.3653 308.7582,59.8153 309.0352,62.3933 C309.4152,59.1083 308.0302,55.7213 305.1362,53.6963" id="Fill-72" fill="#99F0FF"></path>
                <path d="M283.2563,22.3301 C291.1313,22.3301 298.5353,25.3961 304.1043,30.9661 C304.3993,31.2611 304.6873,31.5601 304.9833,31.8821 C306.3673,33.3911 307.1483,35.2391 307.3573,37.1341 C307.6453,34.5561 306.8703,31.8701 304.9833,29.8121 C304.6873,29.4921 304.3993,29.1921 304.1043,28.8961 C298.5353,23.3281 291.1313,20.2621 283.2563,20.2621 C266.9983,20.2621 253.7733,33.4881 253.7733,49.7461 C253.7733,50.0931 253.7863,50.4361 253.7983,50.7801 C254.3473,35.0011 267.3463,22.3301 283.2563,22.3301" id="Fill-74" fill="#99F0FF"></path>
                <path d="M47.0171,50.3447 C46.5701,50.4027 46.1881,50.4297 45.8231,50.4297 C41.0211,50.4297 37.0571,46.7867 36.5401,42.1197 C36.5021,42.4597 36.4791,42.8047 36.4791,43.1547 C36.4791,48.3077 40.6711,52.4987 45.8231,52.4987 C46.1881,52.4987 46.5701,52.4717 47.0171,52.4137 C48.7001,52.4197 53.2641,52.4367 56.2841,52.4457 C56.6141,51.9547 57.1761,51.1377 57.6631,50.3757 C54.1591,50.3667 48.9921,50.3527 47.0171,50.3447" id="Fill-76" fill="#0098D6"></path>
                <path d="M63.8823,26.8858 C61.2643,26.8858 58.4953,25.7178 56.1323,24.5748 C50.1113,21.6628 46.4453,21.2708 43.6533,21.2708 C43.3073,21.2708 42.9773,21.2758 42.6623,21.2808 C42.3673,21.2848 42.0843,21.2898 41.8123,21.2898 C31.7743,21.2898 23.6083,29.4558 23.6083,39.4928 C23.6083,39.8408 23.6203,40.1858 23.6393,40.5288 C24.1783,30.9708 32.1203,23.3588 41.8123,23.3588 C42.0843,23.3588 42.3673,23.3548 42.6623,23.3498 C42.9773,23.3448 43.3073,23.3388 43.6533,23.3388 C46.4453,23.3388 50.1113,23.7328 56.1323,26.6438 C58.4953,27.7858 61.2643,28.9548 63.8823,28.9548 C65.8923,28.9548 67.6483,28.2558 69.1043,26.8768 C70.9073,25.1698 71.9373,22.8638 72.0043,20.3808 C72.0163,19.9518 71.9883,19.5308 71.9443,19.1128 C71.6993,21.2858 70.7113,23.2858 69.1043,24.8088 C67.6483,26.1868 65.8923,26.8858 63.8823,26.8858" id="Fill-78" fill="#0098D6"></path>
                <path d="M72.0747,60.1885 C65.5337,70.5705 54.7847,76.2885 41.8117,76.2885 C21.8707,76.2885 5.5947,60.3375 5.0437,40.5275 C5.0337,40.8715 5.0167,41.2145 5.0167,41.5615 C5.0167,61.8505 21.5237,78.3565 41.8117,78.3565 C54.7847,78.3565 65.5337,72.6395 72.0747,62.2575 C74.4797,58.4385 75.3247,54.2305 75.1557,50.3325 C74.9857,53.6205 74.0587,57.0385 72.0747,60.1885" id="Fill-80" fill="#0098D6"></path>
                <path d="M60.9849,33.8613 C55.9179,33.8613 46.3679,33.8193 45.9639,33.8173 L45.9369,33.8153 C45.8999,33.8133 45.8609,33.8103 45.8229,33.8103 C40.6709,33.8103 36.4789,38.0033 36.4789,43.1543 C36.4789,43.5053 36.5029,43.8493 36.5409,44.1893 C37.0569,39.5223 41.0209,35.8803 45.8229,35.8803 C45.8609,35.8803 45.8999,35.8823 45.9369,35.8843 L45.9639,35.8863 C46.3679,35.8883 55.9179,35.9303 60.9849,35.9303 C65.7629,35.9303 70.1589,38.7243 72.7429,43.4043 C74.0949,45.8553 75.0069,49.0113 75.1559,52.4013 C75.3699,48.2373 74.3679,44.2803 72.7429,41.3353 C70.1589,36.6553 65.7629,33.8613 60.9849,33.8613" id="Fill-82" fill="#99F0FF"></path>
                <path d="M41.812,6.1455 C50.731,6.1465 61.934,7.8555 69.463,15.8055 C70.876,17.2965 71.727,19.1725 71.944,21.1805 C71.973,20.9165 71.998,20.6505 72.004,20.3805 C72.073,17.8985 71.17,15.5395 69.463,13.7365 C61.934,5.7865 50.731,4.0775 41.812,4.0765 C21.524,4.0765 5.017,21.2725 5.017,41.5615 C5.017,41.9085 5.034,42.2505 5.043,42.5955 C5.594,22.7855 21.871,6.1455 41.812,6.1455" id="Fill-84" fill="#99F0FF"></path>
                <path d="M41.812,61.836 C46.287,61.836 52.791,59.975 56.284,52.445 C56.736,51.784 55.031,54.3 54.722,54.51 C50.898,58.793 45.722,59.768 41.812,59.768 C32.123,59.768 24.178,52.155 23.639,42.598 C23.621,42.94 23.608,43.284 23.608,43.632 C23.608,53.67 31.775,61.836 41.812,61.836" id="Fill-86" fill="#99F0FF"></path>
                <path d="M138.519,117.7705 C138.248,116.7765 137.867,115.8505 137.378,114.9985 C136.882,114.1335 136.304,113.3585 135.649,112.6825 C135.845,112.7325 136.04,112.7725 136.236,112.8025 C136.746,112.8835 137.344,112.9215 138.122,112.9215 L138.519,112.9215 L138.519,117.7705 Z M283.997,103.2855 C283.883,102.3795 283.588,101.4905 283.094,100.5625 C282.29,99.0565 280.968,97.9785 279.27,97.4425 C278.288,97.1315 277.165,96.9805 275.833,96.9805 C272.512,96.9805 270.129,98.0015 268.781,99.9735 C267.677,101.3725 265.875,103.7165 263.417,106.9525 L257.849,99.6465 L257.479,99.2685 C256.522,98.2415 255.326,97.7585 254.508,97.4845 C253.503,97.1495 252.372,96.9805 251.145,96.9805 C249.787,96.9805 248.651,97.1305 247.674,97.4395 C246,97.9675 244.687,99.0195 243.874,100.4845 C243.376,101.3855 243.063,102.3015 242.942,103.2085 C242.875,103.7305 242.844,104.3635 242.844,105.2005 L242.844,113.1685 L237.265,101.6405 C235.749,98.6105 233.107,96.9405 229.826,96.9405 C228.266,96.9405 226.784,97.3705 225.418,98.2175 C224.063,99.0635 222.99,100.2535 222.316,101.6595 L213.28,120.3695 L213.214,120.3315 C212.835,120.1295 212.463,119.9615 212.089,119.8255 C212.276,119.0405 212.371,118.1555 212.371,117.1875 C212.371,117.0945 212.368,117.0065 212.364,116.9185 L212.36,116.8305 L212.364,116.7025 C212.368,116.6155 212.371,116.5285 212.371,116.4385 C212.371,115.4375 212.288,114.5555 212.12,113.7685 C213.338,113.3515 214.375,112.6255 215.121,111.6675 C215.678,110.9505 216.1,110.0965 216.407,109.0575 C216.671,108.1575 216.8,107.1555 216.8,105.9905 C216.8,105.8985 216.797,105.8115 216.793,105.7245 L216.79,105.6415 L216.793,105.5315 C216.796,105.4365 216.8,105.3405 216.8,105.2415 C216.8,103.8835 216.65,102.7485 216.339,101.7685 C215.804,100.0695 214.722,98.7445 213.209,97.9355 C212.291,97.4485 211.418,97.1555 210.539,97.0415 C210.017,96.9725 209.381,96.9405 208.54,96.9405 L192.671,96.9405 C189.945,96.9405 187.919,97.6225 186.48,99.0245 C185.883,99.6065 185.405,100.3015 185.051,101.1005 C184.82,100.8905 184.582,100.6925 184.342,100.5055 C182.894,99.3835 181.329,98.5075 179.69,97.8995 C177.974,97.2635 176.25,96.9405 174.567,96.9405 L165.867,96.9405 C164.508,96.9405 163.373,97.0915 162.397,97.4005 C161.673,97.6275 161.014,97.9585 160.428,98.3865 C160.12,98.1445 159.79,97.9355 159.443,97.7625 C158.693,97.3855 157.98,97.1455 157.264,97.0255 C156.75,96.9395 156.15,96.9005 155.318,96.9005 L138.161,96.9005 C137.344,96.9005 136.752,96.9365 136.243,97.0175 C135.494,97.1355 134.759,97.3785 133.998,97.7615 C133.451,98.0355 132.957,98.3895 132.519,98.8195 C131.613,98.2465 130.48,97.7545 129.017,97.2975 C127.235,96.7405 125.278,96.4575 123.198,96.4575 C118.882,96.4575 115.341,97.8095 112.675,100.4765 C110.044,103.1055 108.655,106.3965 108.655,109.9945 C108.655,110.1155 108.659,110.2345 108.664,110.3545 L108.667,110.4605 L108.664,110.5435 C108.659,110.6105 108.655,110.6755 108.655,110.7435 C108.655,113.2695 109.203,115.5285 110.284,117.4565 C110.542,117.9175 110.825,118.3605 111.128,118.7765 C109.112,120.7955 108.131,122.8005 108.131,124.8965 C108.131,125.0255 108.139,125.1535 108.15,125.3025 L108.146,125.3515 C108.138,125.4495 108.131,125.5465 108.131,125.6455 C108.131,127.3435 108.826,129.0215 110.256,130.7815 L110.464,131.0305 C110.906,131.6495 111.478,132.2565 112.262,132.9425 C112.972,133.5615 113.799,134.1675 114.724,134.7435 C115.824,135.4275 117.171,135.9905 118.731,136.4165 C121.746,137.2415 125.168,137.2965 128.44,136.3305 C130.053,135.8545 131.628,135.1205 133.123,134.1485 C134.915,132.9825 136.368,131.3535 137.443,129.3065 C137.9,128.4365 138.259,127.5145 138.519,126.5485 L138.519,128.4235 C138.519,129.2645 138.551,129.9015 138.621,130.4275 C138.732,131.2815 139.018,132.1565 139.468,133.0245 C140.249,134.5355 141.555,135.6225 143.246,136.1695 C144.222,136.4895 145.352,136.6435 146.699,136.6435 C148.032,136.6435 149.155,136.4935 150.134,136.1825 C151.858,135.6375 153.184,134.5455 153.968,133.0285 C154.423,132.1505 154.701,131.3135 154.816,130.4705 C154.886,129.9495 154.918,129.3305 154.918,128.4645 L154.918,112.9215 L155.278,112.9215 C156.079,112.9215 156.693,112.8835 157.209,112.8015 C157.327,112.7835 157.447,112.7605 157.568,112.7335 L157.568,128.3025 C157.568,128.9275 157.578,129.3965 157.593,129.6855 C157.627,130.3695 157.77,131.0835 158.03,131.8685 C158.445,133.1125 159.179,134.1695 160.152,134.9245 C160.873,135.4855 161.727,135.9065 162.758,136.2085 C163.658,136.4745 164.662,136.6045 165.828,136.6045 L166.119,136.6045 C167.442,136.6045 168.556,136.4435 169.523,136.1125 C171.184,135.5445 172.461,134.4355 173.217,132.9045 C173.352,132.6305 173.47,132.3615 173.574,132.0855 C173.755,132.5185 173.915,132.8715 174.058,133.1525 C174.494,134.0095 175.127,134.7805 175.938,135.4415 C177.087,136.3865 178.491,136.8855 179.997,136.8855 C180.08,136.8855 180.165,136.8785 180.248,136.8715 L180.306,136.8675 C181.71,136.9655 183.192,136.6635 184.808,135.9555 C185.53,135.6525 186.195,135.2985 186.792,134.8995 C186.821,134.9225 186.849,134.9445 186.876,134.9645 C187.598,135.5275 188.451,135.9465 189.484,136.2495 C190.381,136.5145 191.384,136.6435 192.55,136.6435 L208.5,136.6435 C209.124,136.6435 209.59,136.6335 209.888,136.6185 C210.573,136.5825 211.286,136.4395 212.069,136.1795 C212.79,135.9385 213.444,135.5925 214.019,135.1505 C214.407,135.3975 214.807,135.6205 215.23,135.8245 C218.506,137.4635 221.334,137.4085 223.638,135.6625 C224.448,135.0465 225.07,134.3775 225.54,133.6125 C225.767,133.2375 226.033,132.7405 226.382,132.0405 L227.19,130.3605 L232.42,130.3605 L233.258,132.1015 C233.563,132.7115 233.802,133.1685 233.97,133.4745 C234.459,134.3665 235.165,135.1455 236.068,135.7915 C237.205,136.6135 238.556,137.0465 239.975,137.0465 C241.345,137.0465 242.787,136.6605 244.381,135.8635 C244.831,135.6385 245.258,135.3935 245.659,135.1315 C246.243,135.5645 246.898,135.9005 247.614,136.1305 C248.591,136.4495 249.721,136.6045 251.064,136.6045 C252.423,136.6045 253.561,136.4525 254.54,136.1415 C256.219,135.6115 257.531,134.5595 258.333,133.0995 C258.84,132.1825 259.146,131.2915 259.267,130.3745 C259.332,129.8535 259.364,129.2205 259.364,128.3835 L259.364,127.9335 C259.399,127.9535 259.434,127.9735 259.469,127.9945 C261.962,129.4095 265.051,129.3785 267.534,127.9165 L267.534,128.3025 C267.534,128.9265 267.543,129.3945 267.559,129.6955 C267.595,130.3835 267.739,131.0955 267.998,131.8745 C268.414,133.1175 269.148,134.1725 270.119,134.9245 C270.839,135.4865 271.692,135.9065 272.721,136.2075 C273.619,136.4745 274.624,136.6045 275.793,136.6045 C277.15,136.6045 278.287,136.4535 279.269,136.1425 C280.993,135.5975 282.318,134.5065 283.104,132.9855 C283.522,132.1745 283.805,131.3635 283.946,130.5685 C284.047,129.9765 284.094,129.2835 284.094,128.3835 L284.094,105.2815 C284.094,104.4545 284.063,103.8195 283.997,103.2855 L283.997,103.2855 Z" id="Fill-88" fill="#1F191A"></path>
                <path d="M101.0288,97.168 L101.0278,97.168 C100.6958,97.157 100.2208,97.147 99.6518,97.14 C98.5618,97.123 97.1078,97.111 95.6538,97.102 L94.5898,97.095 C91.8238,97.076 90.4978,97.069 89.8368,97.142 L89.8358,97.077 C88.6688,97.084 87.5308,97.566 86.7148,98.401 C86.2908,98.835 85.9638,99.353 85.7498,99.915 L85.2558,99.145 C84.4428,97.876 83.0638,97.118 81.5288,97.118 L70.2308,97.175 C69.0498,97.182 67.9438,97.648 67.1178,98.49 C66.2908,99.332 65.8418,100.448 65.8568,101.638 L65.8638,102.098 C61.9678,97.926 56.4568,95.491 50.7178,95.491 C39.3038,95.491 30.0188,104.776 30.0188,116.189 C30.0188,127.604 39.3038,136.89 50.7178,136.89 C56.6888,136.89 62.3488,134.288 66.2638,129.836 L66.2998,132.352 C66.3268,134.749 68.3028,136.699 70.7188,136.699 L81.4638,136.649 C82.6318,136.643 83.7688,136.159 84.5848,135.325 C84.9388,134.962 85.2258,134.542 85.4348,134.087 L85.7368,134.59 C86.5498,135.853 87.9418,136.606 89.4848,136.606 C89.4848,136.606 92.4398,136.572 95.3928,136.526 C96.8798,136.503 98.3638,136.478 99.4788,136.451 C100.0588,136.437 100.5438,136.422 100.8828,136.409 C104.1968,136.275 105.4108,134.049 105.4428,132.174 L105.6168,101.374 C105.5998,99.865 104.6138,97.28 101.0288,97.168" id="Fill-90" fill="#1F191A"></path>
                <path d="M133.5317,117.1953 C132.7997,115.9183 131.8667,115.0043 130.7587,114.4793 C129.7187,113.9873 128.5687,113.5633 127.3377,113.2203 C126.1177,112.8833 124.9747,112.6283 123.9387,112.4643 C122.9947,112.3153 122.1997,112.0293 121.5777,111.6143 C121.0257,111.2473 120.7687,110.7753 120.7687,110.1303 C120.7687,109.6153 120.9787,109.2223 121.4307,108.8973 C122.4227,108.1813 123.6017,108.3123 124.3977,108.5293 C124.9127,108.6693 125.1267,108.7783 125.2087,108.8313 C125.3757,108.9383 125.5577,109.0893 125.7607,109.2793 C126.0187,109.5223 126.1967,109.6733 126.2957,109.7373 C127.2177,110.3323 127.9887,110.6213 128.6547,110.6213 C129.7897,110.6213 130.8747,109.8713 131.8797,108.3933 C132.5877,107.3603 132.9317,106.5323 132.9317,105.8603 C132.9317,105.2023 132.4727,104.4533 131.4997,103.5443 L130.5017,102.7863 C129.9357,102.3103 128.9787,101.8653 127.5737,101.4243 C126.2027,100.9963 124.6697,100.7783 123.0167,100.7783 C119.8627,100.7783 117.3267,101.7143 115.4807,103.5603 C113.6347,105.4063 112.6987,107.6023 112.6987,110.0903 C112.6987,111.8843 113.0657,113.4493 113.7887,114.7393 C114.5147,116.0373 115.4397,117.0033 116.5367,117.6083 C117.5787,118.1833 118.7157,118.6903 119.9127,119.1113 C121.1107,119.5333 122.2467,119.8453 123.2907,120.0373 C124.2457,120.2143 125.0517,120.4973 125.6817,120.8803 C126.2137,121.2043 126.4727,121.5743 126.4727,122.0113 C126.4727,123.1153 126.1357,124.5813 123.2187,124.5813 C122.7187,124.5813 122.1927,124.4213 121.6547,124.1053 C120.9307,123.6803 120.6307,123.4413 120.5047,123.3153 C120.3057,123.1173 120.1567,122.9563 120.0207,122.7923 L119.8197,122.5913 C117.4257,120.1973 115.7557,120.1073 114.0537,121.7413 C112.7897,122.9763 112.1757,124.0403 112.1757,124.9923 C112.1757,125.6783 112.5527,126.4783 113.3327,127.4363 L113.6677,127.8413 C113.9077,128.2033 114.2987,128.6173 114.8607,129.1073 C115.3997,129.5783 116.0447,130.0473 116.7767,130.5033 C117.5257,130.9693 118.4987,131.3693 119.6647,131.6873 C120.8307,132.0073 122.0807,132.1683 123.3797,132.1683 C124.5997,132.1683 125.8397,131.9853 127.0617,131.6253 C128.2827,131.2653 129.4847,130.7033 130.6357,129.9553 C131.8147,129.1863 132.7857,128.0883 133.5197,126.6893 C134.2527,125.2963 134.6237,123.6813 134.6237,121.8903 C134.6237,120.0403 134.2567,118.4613 133.5317,117.1953" id="Fill-92" fill="#FFFFFF"></path>
                <path d="M158.3032,102.8135 C158.1272,102.2535 157.8132,101.8575 157.3692,101.6355 C157.0002,101.4505 156.6782,101.3365 156.3852,101.2885 C156.1142,101.2435 155.7042,101.2205 155.1362,101.2205 L137.9802,101.2205 C137.4122,101.2205 136.9992,101.2435 136.7162,101.2875 C136.4072,101.3355 136.0762,101.4505 135.7062,101.6355 C135.2632,101.8575 134.9492,102.2455 134.7742,102.7905 C134.6222,103.2575 134.5492,103.8535 134.5492,104.6125 C134.5492,105.3695 134.6222,105.9705 134.7732,106.4505 C134.9482,107.0105 135.2612,107.4075 135.7062,107.6285 C136.0762,107.8145 136.4072,107.9285 136.7152,107.9765 C136.9992,108.0215 137.4002,108.0435 137.9402,108.0435 L142.5632,108.0435 L142.5632,127.7705 C142.5632,128.4145 142.5842,128.8895 142.6272,129.2235 C142.6752,129.5875 142.8142,129.9955 143.0412,130.4325 C143.3022,130.9395 143.7502,131.2985 144.3722,131.5005 C144.9232,131.6785 145.6242,131.7655 146.5182,131.7655 C147.4082,131.7655 148.1152,131.6795 148.6792,131.5005 C149.3172,131.2995 149.7732,130.9405 150.0342,130.4325 C150.2642,129.9905 150.4002,129.6015 150.4482,129.2475 C150.4912,128.9275 150.5122,128.4595 150.5122,127.8115 L150.5122,108.0435 L155.0962,108.0435 C155.6612,108.0435 156.0752,108.0215 156.3612,107.9765 C156.6652,107.9285 157.0042,107.8115 157.3692,107.6285 C157.8122,107.4085 158.1252,107.0205 158.3022,106.4735 C158.4532,106.0015 158.5282,105.4065 158.5282,104.6525 C158.5282,103.9105 158.4512,103.2925 158.3032,102.8135" id="Fill-94" fill="#FFFFFF"></path>
                <path d="M177.3989,112.4258 C177.3989,113.4818 177.0809,114.2368 176.4249,114.7338 C175.7369,115.2548 175.0509,115.5198 174.3849,115.5198 L169.7209,115.5198 L169.7209,109.3728 L174.3049,109.3728 C175.0329,109.3728 175.7239,109.6358 176.4199,110.1758 C177.0789,110.6858 177.3989,111.4218 177.3989,112.4258 M185.1499,126.0918 L185.1449,126.0818 C183.9969,123.4858 183.1279,121.4828 182.5369,120.0718 C184.4829,118.0598 185.4689,115.5028 185.4689,112.4658 C185.4689,110.6538 185.0989,108.9828 184.3719,107.4978 C183.6439,106.0138 182.7029,104.8178 181.5729,103.9418 C180.4639,103.0828 179.2759,102.4148 178.0409,101.9568 C176.7949,101.4948 175.5659,101.2618 174.3849,101.2618 L165.6859,101.2618 C164.7669,101.2618 164.0469,101.3478 163.4849,101.5268 C162.8499,101.7258 162.3879,102.0908 162.1119,102.6088 C161.8709,103.0588 161.7239,103.4748 161.6749,103.8438 C161.6309,104.1788 161.6109,104.6538 161.6109,105.2968 L161.6109,127.6508 C161.6109,128.1718 161.6179,128.5648 161.6309,128.8218 C161.6469,129.1218 161.7199,129.4678 161.8579,129.8788 C162.0089,130.3348 162.2489,130.6918 162.5649,130.9378 C162.8589,131.1658 163.2549,131.3518 163.7749,131.5038 C164.2789,131.6538 164.8909,131.7258 165.6459,131.7258 C166.5639,131.7258 167.2849,131.6388 167.8479,131.4608 C168.4829,131.2598 168.9449,130.8958 169.2209,130.3778 C169.4659,129.9178 169.6089,129.5138 169.6579,129.1438 C169.7009,128.8128 169.7209,128.3368 169.7209,127.6908 L169.7209,123.6298 L174.3359,123.6288 L175.2369,123.5718 C176.2989,126.0988 177.1139,128.0068 177.6799,129.2938 C177.9299,129.8768 178.1319,130.3088 178.2849,130.5838 C178.4649,130.9128 178.7539,131.2298 179.1429,131.5248 C179.5649,131.8448 180.0649,132.0078 180.6279,132.0078 C181.2939,132.0078 182.0689,131.8098 182.9929,131.4048 C184.8489,130.6268 185.7919,129.6068 185.7919,128.3748 C185.7919,127.8748 185.5819,127.1278 185.1499,126.0918" id="Fill-96" fill="#FFFFFF"></path>
                <path d="M211.0464,124.1553 C210.5864,123.9113 210.1834,123.7673 209.8124,123.7183 C209.4814,123.6763 209.0054,123.6553 208.3584,123.6553 L196.4444,123.6553 L196.4444,120.5693 L203.8484,120.5693 C204.3704,120.5693 204.7614,120.5623 205.0204,120.5483 C205.3184,120.5333 205.6694,120.4603 206.0924,120.3233 C206.5624,120.1733 206.9274,119.9333 207.1754,119.6143 C207.4034,119.3213 207.5894,118.9253 207.7424,118.4043 C207.8894,117.9053 207.9634,117.2753 207.9634,116.5343 C207.9634,115.6163 207.8774,114.8953 207.6984,114.3323 C207.4994,113.6973 207.1344,113.2363 206.6154,112.9593 C206.1564,112.7143 205.7524,112.5713 205.3814,112.5223 C205.0504,112.4793 204.5754,112.4583 203.9284,112.4583 L196.4444,112.4583 L196.4444,109.3733 L208.3184,109.3733 C208.8414,109.3733 209.2324,109.3653 209.4924,109.3513 C209.7944,109.3363 210.1404,109.2613 210.5484,109.1263 C211.0024,108.9743 211.3584,108.7363 211.6064,108.4183 C211.8344,108.1253 212.0194,107.7283 212.1734,107.2083 C212.3194,106.7093 212.3944,106.0793 212.3944,105.3373 C212.3944,104.4193 212.3084,103.6993 212.1294,103.1343 C211.9294,102.5013 211.5654,102.0393 211.0464,101.7613 C210.5854,101.5163 210.1824,101.3743 209.8124,101.3263 C209.4784,101.2823 209.0024,101.2613 208.3584,101.2613 L192.4904,101.2613 C190.9194,101.2613 189.8594,101.5513 189.2474,102.1463 C188.6334,102.7453 188.3344,103.7753 188.3344,105.2973 L188.3344,127.6903 C188.3344,128.2133 188.3414,128.6043 188.3554,128.8623 C188.3704,129.1623 188.4434,129.5093 188.5814,129.9193 C188.7334,130.3753 188.9724,130.7313 189.2884,130.9773 C189.5824,131.2063 189.9794,131.3913 190.4984,131.5453 C191.0024,131.6933 191.6144,131.7653 192.3694,131.7653 L208.3184,131.7653 C208.8414,131.7653 209.2324,131.7593 209.4904,131.7443 C209.7914,131.7293 210.1374,131.6553 210.5484,131.5183 C211.0024,131.3673 211.3584,131.1293 211.6064,130.8113 C211.8344,130.5173 212.0204,130.1213 212.1734,129.6003 C212.3214,129.0943 212.3944,128.4833 212.3944,127.7303 C212.3944,126.8123 212.3084,126.0923 212.1294,125.5283 C211.9294,124.8943 211.5654,124.4323 211.0464,124.1553" id="Fill-98" fill="#FFFFFF"></path>
                <path d="M232.3472,118.5401 L226.8392,118.5401 L229.5932,112.9081 L232.3472,118.5401 Z M244.1832,126.1061 L233.3082,103.6331 L233.3052,103.6271 C232.5202,102.0581 231.2882,101.2621 229.6442,101.2621 C228.8842,101.2621 228.1532,101.4771 227.4722,101.8991 C226.7892,102.3241 226.2742,102.8941 225.9392,103.5931 L215.0682,126.1011 C214.5732,127.0911 214.3312,127.8351 214.3312,128.3751 C214.3312,129.5421 215.2112,130.5581 216.9392,131.3921 C218.6872,132.2661 219.9252,132.3851 220.9002,131.6451 C221.2862,131.3521 221.5632,131.0631 221.7462,130.7651 C221.8982,130.5161 222.1142,130.1151 222.3942,129.5551 L224.3552,125.4821 L234.8932,125.4821 L236.8572,129.5611 C237.1292,130.1061 237.3412,130.5161 237.4902,130.7861 C237.6722,131.1171 237.9642,131.4301 238.3592,131.7131 C238.7782,132.0161 239.2612,132.1681 239.7942,132.1681 C240.4942,132.1681 241.3182,131.9281 242.3102,131.4321 C244.0392,130.5661 244.9162,129.5381 244.9162,128.3751 C244.9162,127.8371 244.6752,127.0941 244.1832,126.1061 L244.1832,126.1061 Z" id="Fill-100" fill="#FFFFFF"></path>
                <path d="M279.6235,103.9063 C279.5755,103.5213 279.4335,103.1103 279.1865,102.6483 C278.9095,102.1313 278.4475,101.7663 277.8135,101.5663 C277.2505,101.3873 276.5435,101.3023 275.6525,101.3023 C273.7345,101.3023 272.5315,101.7323 272.0055,102.5753 C270.5135,104.4603 267.6445,108.2103 263.2455,114.0303 L254.4515,102.4923 L254.2345,102.2773 C254.0105,102.0163 253.6155,101.7983 252.9915,101.5893 C252.4195,101.3983 251.7375,101.3023 250.9635,101.3023 C250.0445,101.3023 249.3235,101.3873 248.7615,101.5663 C248.1295,101.7643 247.6695,102.1213 247.3925,102.6223 C247.1485,103.0623 247.0005,103.4723 246.9525,103.8443 C246.9085,104.1783 246.8875,104.6533 246.8875,105.2973 L246.8875,127.6503 C246.8875,128.3193 246.9085,128.8133 246.9525,129.1603 C247.0005,129.5473 247.1485,129.9653 247.3915,130.4043 C247.6675,130.9043 248.1205,131.2603 248.7375,131.4603 C249.2885,131.6383 249.9895,131.7253 250.8825,131.7253 C251.8005,131.7253 252.5205,131.6383 253.0845,131.4613 C253.7175,131.2603 254.1785,130.9053 254.4535,130.4043 C254.7005,129.9563 254.8455,129.5563 254.8945,129.1833 C254.9365,128.8523 254.9585,128.3783 254.9585,127.7303 L254.9585,115.6443 C255.3425,116.1703 255.8855,116.9183 256.6465,117.9693 C258.2255,120.1493 259.3005,121.5993 259.8295,122.2603 L260.1655,122.7203 C260.4225,123.0413 260.8165,123.3503 261.3735,123.6673 C262.5375,124.3273 264.0415,124.3103 265.2085,123.6223 C265.9845,123.1653 266.2245,122.9193 266.3345,122.7743 C266.4815,122.5833 266.6005,122.4123 266.6525,122.3163 C267.2705,121.5363 268.2375,120.2213 269.5275,118.4093 C270.3285,117.2823 271.0145,116.3413 271.5765,115.5933 L271.5765,127.6503 C271.5765,128.1723 271.5835,128.5643 271.5975,128.8233 C271.6135,129.1253 271.6865,129.4703 271.8225,129.8793 C271.9755,130.3343 272.2135,130.6913 272.5315,130.9373 C272.8255,131.1663 273.2215,131.3513 273.7405,131.5043 C274.2445,131.6533 274.8565,131.7253 275.6115,131.7253 C276.5295,131.7253 277.2505,131.6383 277.8145,131.4613 C278.4515,131.2603 278.9065,130.9003 279.1695,130.3923 C279.3925,129.9633 279.5365,129.5623 279.6005,129.2033 C279.6585,128.8603 279.6875,128.3793 279.6875,127.7303 L279.6875,105.3773 C279.6875,104.7343 279.6665,104.2543 279.6235,103.9063" id="Fill-102" fill="#FFFFFF"></path>
                <path d="M133.5317,117.9444 C132.7997,116.6674 131.8667,115.7534 130.7587,115.2284 C129.7187,114.7364 128.5687,114.3134 127.3377,113.9704 C126.1177,113.6324 124.9747,113.3774 123.9387,113.2144 C122.9947,113.0644 122.1997,112.7784 121.5777,112.3644 C121.0257,111.9964 120.7687,111.5244 120.7687,110.8794 C120.7687,110.3644 120.9787,109.9724 121.4307,109.6464 C122.4227,108.9304 123.6017,109.0614 124.3977,109.2784 C124.9127,109.4194 125.1267,109.5284 125.2087,109.5804 C125.3757,109.6874 125.5577,109.8384 125.7607,110.0284 C126.0187,110.2724 126.1967,110.4224 126.2957,110.4864 C127.2177,111.0814 127.9887,111.3704 128.6547,111.3704 C129.7897,111.3704 130.8747,110.6204 131.8797,109.1424 C132.5877,108.1104 132.9317,107.2814 132.9317,106.6094 C132.9317,105.9524 132.4727,105.2024 131.4997,104.2934 L130.5017,103.5354 C129.9357,103.0604 128.9787,102.6144 127.5737,102.1734 C126.2027,101.7454 124.6697,101.5274 123.0167,101.5274 C119.8627,101.5274 117.3267,102.4634 115.4807,104.3094 C113.6347,106.1554 112.6987,108.3514 112.6987,110.8394 C112.6987,112.6334 113.0657,114.1984 113.7887,115.4884 C114.5147,116.7864 115.4397,117.7524 116.5367,118.3574 C117.5787,118.9334 118.7157,119.4394 119.9127,119.8604 C121.1107,120.2824 122.2467,120.5944 123.2907,120.7864 C124.2457,120.9634 125.0517,121.2464 125.6817,121.6294 C126.2137,121.9534 126.4727,122.3234 126.4727,122.7604 C126.4727,123.8644 126.1357,125.3304 123.2187,125.3304 C122.7187,125.3304 122.1927,125.1704 121.6547,124.8544 C120.9307,124.4294 120.6307,124.1904 120.5047,124.0644 C120.3057,123.8664 120.1567,123.7054 120.0207,123.5414 L119.8197,123.3404 C117.4257,120.9474 115.7557,120.8564 114.0537,122.4904 C112.7897,123.7254 112.1757,124.7894 112.1757,125.7414 C112.1757,126.4274 112.5527,127.2274 113.3327,128.1854 L113.6677,128.5904 C113.9077,128.9534 114.2987,129.3664 114.8607,129.8564 C115.3997,130.3274 116.0447,130.7974 116.7767,131.2524 C117.5257,131.7184 118.4987,132.1184 119.6647,132.4364 C120.8307,132.7564 122.0807,132.9184 123.3797,132.9184 C124.5997,132.9184 125.8397,132.7344 127.0617,132.3744 C128.2827,132.0144 129.4847,131.4524 130.6357,130.7044 C131.8147,129.9354 132.7857,128.8374 133.5197,127.4384 C134.2527,126.0454 134.6237,124.4304 134.6237,122.6394 C134.6237,120.7894 134.2567,119.2104 133.5317,117.9444" id="Fill-104" fill="#E1E7E7"></path>
                <path d="M158.3032,103.5625 C158.1272,103.0025 157.8132,102.6065 157.3692,102.3845 C157.0002,102.2005 156.6782,102.0865 156.3852,102.0375 C156.1142,101.9925 155.7042,101.9695 155.1362,101.9695 L137.9802,101.9695 C137.4122,101.9695 136.9992,101.9925 136.7162,102.0375 C136.4072,102.0845 136.0762,102.1995 135.7062,102.3845 C135.2632,102.6065 134.9492,102.9945 134.7742,103.5395 C134.6222,104.0065 134.5492,104.6025 134.5492,105.3615 C134.5492,106.1185 134.6222,106.7195 134.7732,107.1995 C134.9482,107.7595 135.2612,108.1565 135.7062,108.3785 C136.0762,108.5635 136.4072,108.6775 136.7152,108.7265 C136.9992,108.7705 137.4002,108.7925 137.9402,108.7925 L142.5632,108.7925 L142.5632,128.5195 C142.5632,129.1645 142.5842,129.6385 142.6272,129.9725 C142.6752,130.3375 142.8142,130.7445 143.0412,131.1815 C143.3022,131.6885 143.7502,132.0475 144.3722,132.2495 C144.9232,132.4275 145.6242,132.5145 146.5182,132.5145 C147.4082,132.5145 148.1152,132.4285 148.6792,132.2495 C149.3172,132.0485 149.7732,131.6895 150.0342,131.1815 C150.2642,130.7395 150.4002,130.3505 150.4482,129.9965 C150.4912,129.6765 150.5122,129.2085 150.5122,128.5605 L150.5122,108.7925 L155.0962,108.7925 C155.6612,108.7925 156.0752,108.7705 156.3612,108.7265 C156.6652,108.6775 157.0042,108.5605 157.3692,108.3785 C157.8122,108.1575 158.1252,107.7695 158.3022,107.2235 C158.4532,106.7515 158.5282,106.1555 158.5282,105.4015 C158.5282,104.6605 158.4512,104.0415 158.3032,103.5625" id="Fill-106" fill="#E1E7E7"></path>
                <path d="M177.3989,113.1748 C177.3989,114.2308 177.0809,114.9858 176.4249,115.4828 C175.7369,116.0038 175.0509,116.2688 174.3849,116.2688 L169.7209,116.2688 L169.7209,110.1218 L174.3049,110.1218 C175.0329,110.1218 175.7239,110.3848 176.4199,110.9248 C177.0789,111.4348 177.3989,112.1708 177.3989,113.1748 M185.1499,126.8408 L185.1449,126.8308 C183.9969,124.2348 183.1279,122.2318 182.5369,120.8208 C184.4829,118.8088 185.4689,116.2518 185.4689,113.2158 C185.4689,111.4028 185.0989,109.7318 184.3719,108.2468 C183.6439,106.7628 182.7029,105.5668 181.5729,104.6918 C180.4639,103.8318 179.2759,103.1638 178.0409,102.7058 C176.7949,102.2438 175.5659,102.0108 174.3849,102.0108 L165.6859,102.0108 C164.7669,102.0108 164.0469,102.0968 163.4849,102.2758 C162.8499,102.4758 162.3879,102.8398 162.1119,103.3578 C161.8709,103.8088 161.7239,104.2238 161.6749,104.5928 C161.6309,104.9278 161.6109,105.4028 161.6109,106.0458 L161.6109,128.3998 C161.6109,128.9218 161.6179,129.3138 161.6309,129.5708 C161.6469,129.8708 161.7199,130.2168 161.8579,130.6278 C162.0089,131.0838 162.2489,131.4408 162.5649,131.6868 C162.8589,131.9148 163.2549,132.1008 163.7749,132.2538 C164.2789,132.4028 164.8909,132.4748 165.6459,132.4748 C166.5639,132.4748 167.2849,132.3888 167.8479,132.2098 C168.4829,132.0088 168.9449,131.6448 169.2209,131.1268 C169.4659,130.6668 169.6089,130.2628 169.6579,129.8928 C169.7009,129.5618 169.7209,129.0858 169.7209,128.4398 L169.7209,124.3788 L174.3359,124.3778 L175.2369,124.3208 C176.2989,126.8488 177.1139,128.7568 177.6799,130.0428 C177.9299,130.6258 178.1319,131.0578 178.2849,131.3328 C178.4649,131.6628 178.7539,131.9798 179.1429,132.2738 C179.5649,132.5938 180.0649,132.7568 180.6279,132.7568 C181.2939,132.7568 182.0689,132.5588 182.9929,132.1538 C184.8489,131.3758 185.7919,130.3568 185.7919,129.1238 C185.7919,128.6238 185.5819,127.8778 185.1499,126.8408" id="Fill-108" fill="#E1E7E7"></path>
                <path d="M211.0464,124.9043 C210.5864,124.6603 210.1834,124.5163 209.8124,124.4673 C209.4814,124.4253 209.0054,124.4043 208.3584,124.4043 L196.4444,124.4043 L196.4444,121.3183 L203.8484,121.3183 C204.3704,121.3183 204.7614,121.3113 205.0204,121.2973 C205.3184,121.2823 205.6694,121.2093 206.0924,121.0733 C206.5624,120.9223 206.9274,120.6823 207.1754,120.3643 C207.4034,120.0703 207.5894,119.6743 207.7424,119.1533 C207.8894,118.6543 207.9634,118.0243 207.9634,117.2833 C207.9634,116.3653 207.8774,115.6443 207.6984,115.0813 C207.4994,114.4463 207.1344,113.9853 206.6154,113.7083 C206.1564,113.4643 205.7524,113.3203 205.3814,113.2713 C205.0504,113.2283 204.5754,113.2083 203.9284,113.2083 L196.4444,113.2083 L196.4444,110.1223 L208.3184,110.1223 C208.8414,110.1223 209.2324,110.1153 209.4924,110.1003 C209.7944,110.0853 210.1404,110.0103 210.5484,109.8753 C211.0024,109.7233 211.3584,109.4853 211.6064,109.1673 C211.8344,108.8743 212.0194,108.4773 212.1734,107.9573 C212.3194,107.4583 212.3944,106.8283 212.3944,106.0863 C212.3944,105.1693 212.3084,104.4483 212.1294,103.8833 C211.9294,103.2503 211.5654,102.7883 211.0464,102.5103 C210.5854,102.2663 210.1824,102.1243 209.8124,102.0753 C209.4784,102.0313 209.0024,102.0103 208.3584,102.0103 L192.4904,102.0103 C190.9194,102.0103 189.8594,102.3003 189.2474,102.8953 C188.6334,103.4943 188.3344,104.5243 188.3344,106.0463 L188.3344,128.4393 C188.3344,128.9623 188.3414,129.3533 188.3554,129.6113 C188.3704,129.9123 188.4434,130.2583 188.5814,130.6693 C188.7334,131.1243 188.9724,131.4803 189.2884,131.7263 C189.5824,131.9553 189.9794,132.1403 190.4984,132.2943 C191.0024,132.4423 191.6144,132.5143 192.3694,132.5143 L208.3184,132.5143 C208.8414,132.5143 209.2324,132.5083 209.4904,132.4943 C209.7914,132.4783 210.1374,132.4053 210.5484,132.2683 C211.0024,132.1163 211.3584,131.8783 211.6064,131.5603 C211.8344,131.2663 212.0204,130.8713 212.1734,130.3503 C212.3214,129.8433 212.3944,129.2323 212.3944,128.4793 C212.3944,127.5613 212.3084,126.8413 212.1294,126.2773 C211.9294,125.6433 211.5654,125.1823 211.0464,124.9043" id="Fill-110" fill="#E1E7E7"></path>
                <path d="M232.3472,119.2891 L226.8392,119.2891 L229.5932,113.6571 L232.3472,119.2891 Z M244.1832,126.8551 L233.3082,104.3821 L233.3052,104.3761 C232.5202,102.8071 231.2882,102.0111 229.6442,102.0111 C228.8842,102.0111 228.1532,102.2261 227.4722,102.6481 C226.7892,103.0731 226.2742,103.6431 225.9392,104.3421 L215.0682,126.8511 C214.5732,127.8411 214.3312,128.5841 214.3312,129.1241 C214.3312,130.2911 215.2112,131.3081 216.9392,132.1411 C218.6872,133.0151 219.9252,133.1351 220.9002,132.3941 C221.2862,132.1011 221.5632,131.8121 221.7462,131.5141 C221.8982,131.2651 222.1142,130.8641 222.3942,130.3041 L224.3552,126.2321 L234.8932,126.2321 L236.8572,130.3101 C237.1292,130.8551 237.3412,131.2651 237.4902,131.5351 C237.6722,131.8661 237.9642,132.1801 238.3592,132.4631 C238.7782,132.7651 239.2612,132.9181 239.7942,132.9181 C240.4942,132.9181 241.3182,132.6771 242.3102,132.1821 C244.0392,131.3151 244.9162,130.2871 244.9162,129.1241 C244.9162,128.5871 244.6752,127.8431 244.1832,126.8551 L244.1832,126.8551 Z" id="Fill-112" fill="#E1E7E7"></path>
                <path d="M279.6235,104.6563 C279.5755,104.2713 279.4335,103.8603 279.1865,103.3973 C278.9095,102.8803 278.4475,102.5153 277.8135,102.3153 C277.2505,102.1363 276.5435,102.0513 275.6525,102.0513 C273.7345,102.0513 272.5315,102.4813 272.0055,103.3243 C270.5135,105.2093 267.6445,108.9593 263.2455,114.7793 L254.4515,103.2423 L254.2345,103.0273 C254.0105,102.7653 253.6155,102.5473 252.9915,102.3383 C252.4195,102.1473 251.7375,102.0513 250.9635,102.0513 C250.0445,102.0513 249.3235,102.1363 248.7615,102.3153 C248.1295,102.5143 247.6695,102.8703 247.3925,103.3713 C247.1485,103.8113 247.0005,104.2213 246.9525,104.5933 C246.9085,104.9273 246.8875,105.4023 246.8875,106.0463 L246.8875,128.3993 C246.8875,129.0683 246.9085,129.5623 246.9525,129.9103 C247.0005,130.2963 247.1485,130.7143 247.3915,131.1533 C247.6675,131.6533 248.1205,132.0093 248.7375,132.2093 C249.2885,132.3873 249.9895,132.4743 250.8825,132.4743 C251.8005,132.4743 252.5205,132.3883 253.0845,132.2103 C253.7175,132.0103 254.1785,131.6543 254.4535,131.1533 C254.7005,130.7063 254.8455,130.3053 254.8945,129.9323 C254.9365,129.6013 254.9585,129.1273 254.9585,128.4793 L254.9585,116.3933 C255.3425,116.9193 255.8855,117.6673 256.6465,118.7193 C258.2255,120.8993 259.3005,122.3483 259.8295,123.0093 L260.1655,123.4693 C260.4225,123.7903 260.8165,124.0993 261.3735,124.4163 C262.5375,125.0763 264.0415,125.0603 265.2085,124.3723 C265.9845,123.9143 266.2245,123.6683 266.3345,123.5233 C266.4815,123.3323 266.6005,123.1613 266.6525,123.0653 C267.2705,122.2853 268.2375,120.9713 269.5275,119.1583 C270.3285,118.0323 271.0145,117.0903 271.5765,116.3423 L271.5765,128.3993 C271.5765,128.9223 271.5835,129.3133 271.5975,129.5723 C271.6135,129.8753 271.6865,130.2193 271.8225,130.6283 C271.9755,131.0843 272.2135,131.4403 272.5315,131.6863 C272.8255,131.9153 273.2215,132.1003 273.7405,132.2533 C274.2445,132.4023 274.8565,132.4743 275.6115,132.4743 C276.5295,132.4743 277.2505,132.3883 277.8145,132.2103 C278.4515,132.0093 278.9065,131.6493 279.1695,131.1413 C279.3925,130.7123 279.5365,130.3113 279.6005,129.9523 C279.6585,129.6093 279.6875,129.1283 279.6875,128.4793 L279.6875,106.1263 C279.6875,105.4833 279.6665,105.0033 279.6235,104.6563" id="Fill-114" fill="#E1E7E7"></path>
                <path d="M67.0112,116.2862 C67.0112,125.3842 59.6352,132.7602 50.5362,132.7602 C41.4382,132.7602 34.0622,125.3842 34.0622,116.2862 C34.0622,107.1872 41.4382,99.8112 50.5362,99.8112 C59.6352,99.8112 67.0112,107.1872 67.0112,116.2862" id="Fill-116" fill="#FFD11F"></path>
                <path d="M59.0981,116.294 L59.0981,116.294 C59.0651,115.322 58.5971,114.461 57.8131,113.932 L49.3151,108.19 C48.4951,107.634 47.4301,107.565 46.5541,108.031 C45.6061,108.536 45.0321,109.545 45.0551,110.662 L45.2981,121.978 C45.3221,123.05 45.8771,123.992 46.7851,124.5 C46.9121,124.571 47.0431,124.632 47.1751,124.681 C47.9871,124.982 48.8671,124.876 49.5891,124.388 L57.8441,118.815 C58.6621,118.263 59.1311,117.32 59.0981,116.294" id="Fill-118" fill="#FFFAA3"></path>
                <path d="M46.3823,110.7002 L46.6243,122.0152 C46.6503,123.2092 47.8673,123.8962 48.8193,123.2542 L57.0733,117.6802 C57.9863,117.0642 58.0103,115.6492 57.1163,115.0462 L48.6193,109.3042 C47.6453,108.6452 46.3553,109.4502 46.3823,110.7002" id="Fill-120" fill="#1F191A"></path>
                <path d="M89.5044,101.5752 L89.6784,113.6392 C89.6814,113.8152 89.4514,113.8852 89.3574,113.7362 L81.5174,101.5192 C81.4844,101.4692 81.4294,101.4382 81.3684,101.4392 L70.0734,101.4952 C69.9764,101.4962 69.8984,101.5752 69.9004,101.6732 L70.3434,132.3982 C70.3444,132.4942 70.4224,132.5712 70.5184,132.5702 L81.2584,132.5202 C81.3554,132.5192 81.4334,132.4402 81.4324,132.3432 L81.2514,119.8162 C81.2484,119.6402 81.4784,119.5712 81.5724,119.7192 L89.1074,132.3972 C89.1404,132.4472 89.1954,132.4772 89.2554,132.4772 C89.2554,132.4772 101.0384,132.3432 101.0364,132.2452 L101.2114,101.5192 C101.2094,101.4242 89.6784,101.3972 89.6784,101.3972 C89.5814,101.3982 89.5034,101.4772 89.5044,101.5752" id="Fill-122" fill="#FFD11F"></path>
                <path d="M50.5366,130.4737 C41.8226,130.4737 34.6936,123.7067 34.1056,115.1427 C34.0806,115.5207 34.0616,115.9017 34.0616,116.2857 C34.0616,125.3837 41.4376,132.7597 50.5366,132.7597 C59.6356,132.7597 67.0116,125.3837 67.0116,116.2857 C67.0116,115.9017 66.9926,115.5207 66.9676,115.1427 C66.3796,123.7067 59.2506,130.4737 50.5366,130.4737" id="Fill-124" fill="#FF9F00"></path>
                <path d="M89.6782,111.3535 L89.5362,101.4955 C89.5232,101.5205 89.5042,101.5435 89.5042,101.5755 L89.6472,111.4505 C89.6642,111.4225 89.6792,111.3925 89.6782,111.3535" id="Fill-126" fill="#FF9F00"></path>
                <path d="M101.0366,129.959 C101.0386,130.057 89.2556,130.191 89.2556,130.191 C89.1956,130.191 89.1406,130.161 89.1076,130.111 L81.5726,117.433 C81.4776,117.285 81.2486,117.355 81.2516,117.53 L81.2826,119.719 C81.3466,119.623 81.4986,119.604 81.5726,119.719 L89.1076,132.397 C89.1406,132.447 89.1956,132.478 89.2556,132.478 C89.2556,132.478 101.0386,132.343 101.0366,132.245 L101.2106,101.52 C101.2106,101.519 101.2016,101.518 101.1976,101.517 L101.0366,129.959 Z" id="Fill-128" fill="#FF9F00"></path>
                <path d="M81.2583,130.2344 L70.5183,130.2844 C70.4223,130.2854 70.3443,130.2084 70.3433,130.1124 L69.9313,101.5924 C69.9173,101.6184 69.8993,101.6414 69.9003,101.6724 L70.3433,132.3984 C70.3443,132.4944 70.4223,132.5714 70.5183,132.5704 L81.2583,132.5204 C81.3553,132.5194 81.4333,132.4404 81.4323,132.3424 L81.4003,130.1354 C81.3703,130.1904 81.3233,130.2334 81.2583,130.2344" id="Fill-130" fill="#FF9F00"></path>
                <path d="M89.6782,102.541 C89.6782,102.541 101.0642,102.566 101.2042,102.661 L101.2102,101.52 C101.2092,101.424 89.6782,101.397 89.6782,101.397 C89.5812,101.398 89.5032,101.478 89.5042,101.575 L89.5202,102.679 C89.5392,102.603 89.5972,102.541 89.6782,102.541" id="Fill-132" fill="#FFFAA3"></path>
                <path d="M81.2515,120.959 L81.4155,132.383 C81.4195,132.368 81.4325,132.358 81.4325,132.343 L81.2675,120.911 C81.2625,120.928 81.2505,120.939 81.2515,120.959" id="Fill-134" fill="#FFFAA3"></path>
                <path d="M70.0737,102.6387 L81.3687,102.5817 C81.4287,102.5817 81.4847,102.6127 81.5167,102.6617 L89.3567,114.8797 C89.4517,115.0277 89.6807,114.9577 89.6777,114.7827 L89.6627,113.6887 C89.6237,113.8227 89.4407,113.8677 89.3567,113.7367 L81.5167,101.5197 C81.4847,101.4687 81.4287,101.4387 81.3687,101.4387 L70.0737,101.4947 C69.9757,101.4957 69.8977,101.5757 69.8997,101.6727 L69.9157,102.7757 C69.9337,102.7007 69.9917,102.6387 70.0737,102.6387" id="Fill-136" fill="#FFFAA3"></path>
                <path d="M50.5366,100.9541 C59.4436,100.9541 66.6946,108.0241 66.9966,116.8571 C67.0026,116.6671 67.0116,116.4771 67.0116,116.2861 C67.0116,107.1871 59.6356,99.8111 50.5366,99.8111 C41.4376,99.8111 34.0616,107.1871 34.0616,116.2861 C34.0616,116.4771 34.0706,116.6671 34.0766,116.8571 C34.3786,108.0241 41.6296,100.9541 50.5366,100.9541" id="Fill-138" fill="#FFFAA3"></path>
                <path d="M128.6558,110.2276 C127.9888,110.2276 127.2178,109.9386 126.2958,109.3426 C126.1968,109.2786 126.0188,109.1286 125.7608,108.8856 C125.5578,108.6956 125.3758,108.5446 125.2088,108.4376 C125.1268,108.3846 124.9128,108.2756 124.3978,108.1356 C123.6018,107.9176 122.4228,107.7886 121.4308,108.5026 C120.9788,108.8296 120.7688,109.2206 120.7688,109.7366 C120.7688,109.9586 120.8118,110.1556 120.8748,110.3396 C120.9768,110.0766 121.1538,109.8466 121.4308,109.6466 C122.4228,108.9306 123.6018,109.0616 124.3978,109.2786 C124.9128,109.4186 125.1268,109.5286 125.2088,109.5806 C125.3758,109.6876 125.5578,109.8376 125.7608,110.0286 C126.0188,110.2726 126.1968,110.4216 126.2958,110.4866 C127.2178,111.0816 127.9888,111.3706 128.6558,111.3706 C129.7898,111.3706 130.8748,110.6206 131.8798,109.1426 C132.5878,108.1106 132.9318,107.2816 132.9318,106.6096 C132.9318,106.4426 132.9018,106.2696 132.8428,106.0896 C132.6998,106.6356 132.3838,107.2646 131.8798,107.9996 C130.8748,109.4776 129.7898,110.2276 128.6558,110.2276" id="Fill-140" fill="#AAAAAA"></path>
                <path d="M116.5366,118.3574 C117.5786,118.9334 118.7156,119.4394 119.9126,119.8604 C121.1106,120.2824 122.2466,120.5944 123.2906,120.7864 C124.2456,120.9624 125.0516,121.2464 125.6826,121.6284 C126.0556,121.8564 126.2856,122.1084 126.3946,122.3874 C126.4536,122.1274 126.4736,121.8634 126.4736,121.6174 C126.4736,121.1804 126.2136,120.8104 125.6826,120.4864 C125.0516,120.1034 124.2456,119.8194 123.2906,119.6434 C122.2466,119.4514 121.1106,119.1394 119.9126,118.7164 C118.7156,118.2964 117.5786,117.7904 116.5366,117.2134 C115.4396,116.6084 114.5156,115.6434 113.7886,114.3454 C113.1626,113.2284 112.8046,111.9044 112.7196,110.4034 C112.7126,110.5484 112.6986,110.6914 112.6986,110.8384 C112.6986,112.6334 113.0656,114.1984 113.7886,115.4884 C114.5156,116.7864 115.4396,117.7524 116.5366,118.3574" id="Fill-142" fill="#AAAAAA"></path>
                <path d="M133.52,126.2959 C132.786,127.6939 131.815,128.7919 130.635,129.5609 C129.485,130.3099 128.283,130.8709 127.062,131.2319 C125.839,131.5919 124.6,131.7749 123.379,131.7749 C122.081,131.7749 120.831,131.6129 119.665,131.2939 C118.499,130.9749 117.526,130.5759 116.777,130.1089 C116.044,129.6529 115.4,129.1849 114.861,128.7139 C114.298,128.2239 113.908,127.8099 113.667,127.4479 L113.333,127.0429 C112.757,126.3349 112.402,125.7149 112.254,125.1609 C112.207,125.3589 112.175,125.5529 112.175,125.7409 C112.175,126.4279 112.553,127.2279 113.333,128.1859 L113.667,128.5909 C113.908,128.9529 114.298,129.3659 114.861,129.8569 C115.4,130.3269 116.044,130.7969 116.777,131.2519 C117.526,131.7189 118.499,132.1179 119.665,132.4369 C120.831,132.7559 122.081,132.9179 123.379,132.9179 C124.6,132.9179 125.839,132.7339 127.062,132.3739 C128.283,132.0149 129.485,131.4519 130.635,130.7039 C131.815,129.9359 132.786,128.8369 133.52,127.4389 C134.252,126.0449 134.624,124.4309 134.624,122.6399 C134.624,122.4419 134.618,122.2489 134.609,122.0579 C134.539,123.6249 134.175,125.0499 133.52,126.2959" id="Fill-144" fill="#AAAAAA"></path>
                <path d="M142.563,107.6494 L137.94,107.6494 C137.4,107.6494 137,107.6284 136.715,107.5834 C136.408,107.5344 136.077,107.4204 135.707,107.2354 C135.261,107.0124 134.948,106.6164 134.773,106.0564 C134.663,105.7054 134.594,105.2864 134.566,104.7904 C134.555,104.9694 134.549,105.1594 134.549,105.3614 C134.549,106.1184 134.623,106.7194 134.773,107.1994 C134.948,107.7594 135.261,108.1564 135.707,108.3784 C136.077,108.5634 136.408,108.6774 136.715,108.7264 C137,108.7704 137.4,108.7934 137.94,108.7934 L142.563,108.7934 L142.563,107.6494 Z" id="Fill-146" fill="#AAAAAA"></path>
                <path d="M158.3022,106.0801 C158.1252,106.6261 157.8122,107.0151 157.3692,107.2351 C157.0042,107.4181 156.6652,107.5341 156.3612,107.5831 C156.0752,107.6281 155.6612,107.6491 155.0962,107.6491 L150.5122,107.6491 L150.5122,108.7931 L155.0962,108.7931 C155.6612,108.7931 156.0752,108.7701 156.3612,108.7261 C156.6652,108.6781 157.0042,108.5601 157.3692,108.3791 C157.8122,108.1571 158.1252,107.7691 158.3022,107.2241 C158.4532,106.7511 158.5282,106.1551 158.5282,105.4011 C158.5282,105.2021 158.5212,105.0141 158.5102,104.8331 C158.4812,105.3231 158.4122,105.7351 158.3022,106.0801" id="Fill-148" fill="#AAAAAA"></path>
                <path d="M150.0347,130.0391 C149.7727,130.5471 149.3167,130.9061 148.6797,131.1071 C148.1157,131.2851 147.4087,131.3721 146.5177,131.3721 C145.6247,131.3721 144.9237,131.2851 144.3727,131.1051 C143.7507,130.9041 143.3027,130.5451 143.0417,130.0381 C142.8137,129.6011 142.6757,129.1941 142.6277,128.8291 C142.5847,128.4961 142.5627,128.0201 142.5627,127.3771 L142.5627,128.5191 C142.5627,129.1641 142.5847,129.6391 142.6277,129.9731 C142.6757,130.3381 142.8137,130.7441 143.0417,131.1821 C143.3027,131.6881 143.7507,132.0481 144.3727,132.2491 C144.9237,132.4281 145.6247,132.5151 146.5177,132.5151 C147.4087,132.5151 148.1157,132.4291 148.6797,132.2501 C149.3167,132.0491 149.7727,131.6891 150.0347,131.1821 C150.2637,130.7391 150.3997,130.3511 150.4477,129.9961 C150.4917,129.6771 150.5127,129.2081 150.5127,128.5601 L150.5127,127.4171 C150.5127,128.0641 150.4917,128.5341 150.4477,128.8521 C150.3997,129.2081 150.2637,129.5961 150.0347,130.0391" id="Fill-150" fill="#AAAAAA"></path>
                <path d="M176.4204,109.7813 C175.7244,109.2413 175.0324,108.9783 174.3054,108.9783 L169.7214,108.9783 L169.7214,110.1223 L174.3054,110.1223 C175.0324,110.1223 175.7244,110.3853 176.4204,110.9253 C176.9484,111.3343 177.2484,111.8963 177.3514,112.6173 C177.3764,112.4303 177.3994,112.2423 177.3994,112.0323 C177.3994,111.0283 177.0784,110.2923 176.4204,109.7813" id="Fill-152" fill="#AAAAAA"></path>
                <path d="M182.9927,131.0117 C182.0687,131.4147 181.2937,131.6137 180.6287,131.6137 C180.0647,131.6137 179.5647,131.4507 179.1427,131.1297 C178.7547,130.8357 178.4657,130.5197 178.2847,130.1907 C178.1327,129.9137 177.9307,129.4837 177.6807,128.8997 C177.1137,127.6137 176.2997,125.7047 175.2367,123.1777 L174.3367,123.2357 L169.7217,123.2367 L169.7217,124.3787 L174.3367,124.3777 L175.2367,124.3207 C176.2997,126.8487 177.1137,128.7567 177.6807,130.0427 C177.9307,130.6257 178.1327,131.0577 178.2847,131.3327 C178.4657,131.6627 178.7547,131.9797 179.1427,132.2737 C179.5647,132.5937 180.0647,132.7567 180.6287,132.7567 C181.2937,132.7567 182.0687,132.5587 182.9927,132.1547 C184.8497,131.3757 185.7917,130.3567 185.7917,129.1237 C185.7917,128.9597 185.7607,128.7587 185.7147,128.5397 C185.4677,129.5237 184.5597,130.3547 182.9927,131.0117" id="Fill-154" fill="#AAAAAA"></path>
                <path d="M182.8628,120.4492 C184.5858,118.4962 185.4688,116.0712 185.4688,113.2152 C185.4688,112.9822 185.4628,112.7522 185.4508,112.5242 C185.3558,115.3612 184.3838,117.7672 182.5368,119.6782 C182.6358,119.9162 182.7478,120.1772 182.8628,120.4492" id="Fill-156" fill="#AAAAAA"></path>
                <path d="M169.2212,129.9844 C168.9452,130.5024 168.4832,130.8664 167.8482,131.0664 C167.2842,131.2454 166.5642,131.3324 165.6462,131.3324 C164.8912,131.3324 164.2792,131.2594 163.7752,131.1104 C163.2552,130.9584 162.8592,130.7724 162.5652,130.5434 C162.2482,130.2964 162.0092,129.9414 161.8582,129.4854 C161.7202,129.0744 161.6472,128.7284 161.6312,128.4274 C161.6172,128.1704 161.6112,127.7784 161.6112,127.2554 L161.6112,128.3994 C161.6112,128.9224 161.6172,129.3134 161.6312,129.5714 C161.6472,129.8714 161.7202,130.2164 161.8582,130.6284 C162.0092,131.0844 162.2482,131.4404 162.5652,131.6864 C162.8592,131.9154 163.2552,132.1004 163.7752,132.2544 C164.2792,132.4024 164.8912,132.4744 165.6462,132.4744 C166.5642,132.4744 167.2842,132.3884 167.8482,132.2104 C168.4832,132.0084 168.9452,131.6444 169.2212,131.1274 C169.4662,130.6674 169.6092,130.2624 169.6582,129.8924 C169.7002,129.5614 169.7212,129.0864 169.7212,128.4394 L169.7212,127.2964 C169.7212,127.9434 169.7002,128.4184 169.6582,128.7494 C169.6092,129.1194 169.4662,129.5234 169.2212,129.9844" id="Fill-158" fill="#AAAAAA"></path>
                <path d="M212.1724,129.207 C212.0204,129.728 211.8344,130.123 211.6064,130.417 C211.3584,130.735 211.0024,130.974 210.5484,131.125 C210.1374,131.262 209.7914,131.335 209.4904,131.351 C209.2324,131.365 208.8414,131.372 208.3184,131.372 L192.3694,131.372 C191.6144,131.372 191.0024,131.3 190.4984,131.15 C189.9794,130.998 189.5824,130.812 189.2884,130.584 C188.9724,130.338 188.7334,129.981 188.5814,129.525 C188.4434,129.114 188.3704,128.769 188.3554,128.468 C188.3414,128.211 188.3344,127.818 188.3344,127.296 L188.3344,128.439 C188.3344,128.962 188.3414,129.353 188.3554,129.611 C188.3704,129.912 188.4434,130.258 188.5814,130.669 C188.7334,131.124 188.9724,131.48 189.2884,131.727 C189.5824,131.955 189.9794,132.141 190.4984,132.294 C191.0024,132.442 191.6144,132.515 192.3694,132.515 L208.3184,132.515 C208.8414,132.515 209.2324,132.508 209.4904,132.494 C209.7914,132.478 210.1374,132.405 210.5484,132.269 C211.0024,132.116 211.3584,131.878 211.6064,131.561 C211.8344,131.267 212.0204,130.871 212.1724,130.351 C212.3214,129.844 212.3944,129.232 212.3944,128.479 C212.3944,128.271 212.3884,128.077 212.3794,127.889 C212.3524,128.395 212.2834,128.831 212.1724,129.207" id="Fill-160" fill="#AAAAAA"></path>
                <path d="M196.4448,121.3184 L203.8478,121.3184 C204.3708,121.3184 204.7608,121.3114 205.0208,121.2974 C205.3188,121.2824 205.6698,121.2094 206.0918,121.0734 C206.5618,120.9224 206.9268,120.6824 207.1748,120.3644 C207.4038,120.0704 207.5898,119.6734 207.7428,119.1534 C207.8888,118.6544 207.9638,118.0244 207.9638,117.2834 C207.9638,117.0734 207.9588,116.8764 207.9488,116.6864 C207.9208,117.1954 207.8518,117.6384 207.7428,118.0104 C207.5898,118.5314 207.4038,118.9274 207.1748,119.2204 C206.9268,119.5404 206.5618,119.7794 206.0918,119.9294 C205.6698,120.0664 205.3188,120.1394 205.0208,120.1544 C204.7608,120.1684 204.3708,120.1744 203.8478,120.1744 L196.4448,120.1744 L196.4448,121.3184 Z" id="Fill-162" fill="#AAAAAA"></path>
                <path d="M212.1724,106.8145 C212.0194,107.3355 211.8344,107.7305 211.6064,108.0235 C211.3584,108.3415 211.0024,108.5805 210.5484,108.7325 C210.1404,108.8675 209.7944,108.9415 209.4924,108.9585 C209.2324,108.9715 208.8414,108.9785 208.3184,108.9785 L196.4444,108.9785 L196.4444,110.1225 L208.3184,110.1225 C208.8414,110.1225 209.2324,110.1155 209.4924,110.1005 C209.7944,110.0855 210.1404,110.0105 210.5484,109.8755 C211.0024,109.7235 211.3584,109.4855 211.6064,109.1675 C211.8344,108.8745 212.0194,108.4775 212.1724,107.9575 C212.3194,107.4585 212.3944,106.8285 212.3944,106.0855 C212.3944,105.8765 212.3884,105.6795 212.3794,105.4905 C212.3514,105.9985 212.2824,106.4425 212.1724,106.8145" id="Fill-164" fill="#AAAAAA"></path>
                <polygon id="Fill-166" fill="#AAAAAA" points="229.5933 112.5137 226.8393 118.1467 227.3983 118.1467 229.5933 113.6577 231.7873 118.1467 232.3473 118.1467"></polygon>
                <path d="M242.3101,131.0381 C241.3181,131.5331 240.4951,131.7741 239.7941,131.7741 C239.2611,131.7741 238.7781,131.6221 238.3591,131.3191 C237.9641,131.0361 237.6721,130.7241 237.4901,130.3921 C237.3411,130.1211 237.1291,129.7121 236.8571,129.1671 L234.8931,125.0891 L224.3551,125.0891 L222.3941,129.1601 C222.1141,129.7211 221.8981,130.1221 221.7471,130.3711 C221.5631,130.6701 221.2871,130.9581 220.9001,131.2521 C219.9251,131.9911 218.6871,131.8721 216.9391,130.9981 C215.4971,130.3021 214.6541,129.4771 214.4131,128.5451 C214.3651,128.7571 214.3311,128.9541 214.3311,129.1241 C214.3311,130.2911 215.2111,131.3081 216.9391,132.1411 C218.6871,133.0151 219.9251,133.1351 220.9001,132.3941 C221.2871,132.1001 221.5631,131.8121 221.7471,131.5141 C221.8981,131.2651 222.1141,130.8641 222.3941,130.3041 L224.3551,126.2311 L234.8931,126.2311 L236.8571,130.3091 C237.1291,130.8551 237.3411,131.2651 237.4901,131.5351 C237.6721,131.8661 237.9641,132.1801 238.3591,132.4631 C238.7781,132.7651 239.2611,132.9181 239.7941,132.9181 C240.4951,132.9181 241.3181,132.6771 242.3101,132.1821 C244.0391,131.3151 244.9161,130.2871 244.9161,129.1241 C244.9161,128.9551 244.8841,128.7571 244.8351,128.5461 C244.5941,129.4781 243.7531,130.3151 242.3101,131.0381" id="Fill-168" fill="#AAAAAA"></path>
                <path d="M254.4536,130.0098 C254.1786,130.5118 253.7176,130.8668 253.0846,131.0668 C252.5206,131.2448 251.8006,131.3318 250.8826,131.3318 C249.9896,131.3318 249.2886,131.2438 248.7376,131.0658 C248.1206,130.8658 247.6676,130.5108 247.3916,130.0098 C247.1476,129.5718 247.0006,129.1528 246.9526,128.7668 C246.9086,128.4198 246.8876,127.9258 246.8876,127.2558 L246.8876,128.3998 C246.8876,129.0688 246.9086,129.5628 246.9526,129.9098 C247.0006,130.2958 247.1476,130.7138 247.3916,131.1538 C247.6676,131.6538 248.1206,132.0088 248.7376,132.2088 C249.2886,132.3878 249.9896,132.4748 250.8826,132.4748 C251.8006,132.4748 252.5206,132.3888 253.0846,132.2098 C253.7176,132.0098 254.1786,131.6548 254.4536,131.1538 C254.7006,130.7058 254.8456,130.3058 254.8936,129.9328 C254.9366,129.6018 254.9586,129.1268 254.9586,128.4798 L254.9586,127.3368 C254.9586,127.9838 254.9366,128.4588 254.8936,128.7898 C254.8456,129.1628 254.7006,129.5628 254.4536,130.0098" id="Fill-170" fill="#AAAAAA"></path>
                <path d="M279.1694,129.999 C278.9064,130.506 278.4514,130.865 277.8154,131.066 C277.2504,131.245 276.5294,131.332 275.6114,131.332 C274.8574,131.332 274.2444,131.26 273.7404,131.109 C273.2214,130.958 272.8254,130.772 272.5314,130.543 C272.2134,130.297 271.9754,129.94 271.8224,129.485 C271.6874,129.077 271.6134,128.731 271.5974,128.429 C271.5834,128.17 271.5764,127.778 271.5764,127.256 L271.5764,128.399 C271.5764,128.922 271.5834,129.313 271.5974,129.572 C271.6134,129.875 271.6874,130.22 271.8224,130.628 C271.9754,131.083 272.2134,131.44 272.5314,131.686 C272.8254,131.915 273.2214,132.101 273.7404,132.253 C274.2444,132.402 274.8574,132.475 275.6114,132.475 C276.5294,132.475 277.2504,132.389 277.8154,132.21 C278.4514,132.009 278.9064,131.649 279.1694,131.142 C279.3924,130.712 279.5364,130.311 279.6004,129.952 C279.6584,129.609 279.6884,129.128 279.6884,128.479 L279.6884,127.337 C279.6884,127.984 279.6584,128.466 279.6004,128.809 C279.5364,129.169 279.3924,129.569 279.1694,129.999" id="Fill-172" fill="#AAAAAA"></path>
                <path d="M271.5767,115.1992 C271.0147,115.9472 270.3287,116.8882 269.5277,118.0142 C268.2377,119.8282 267.2707,121.1422 266.6527,121.9232 C266.5997,122.0182 266.4817,122.1892 266.3347,122.3802 C266.2237,122.5242 265.9847,122.7702 265.2087,123.2282 C264.0417,123.9172 262.5377,123.9322 261.3737,123.2722 C260.8167,122.9572 260.4227,122.6472 260.1657,122.3272 L259.8297,121.8662 C259.3007,121.2062 258.2247,119.7562 256.6467,117.5752 C255.8857,116.5232 255.3427,115.7762 254.9587,115.2502 L254.9587,116.3932 C255.3427,116.9192 255.8857,117.6672 256.6467,118.7192 C258.2247,120.8992 259.3007,122.3482 259.8297,123.0092 L260.1657,123.4702 C260.4227,123.7902 260.8167,124.0992 261.3737,124.4162 C262.5377,125.0762 264.0417,125.0602 265.2087,124.3722 C265.9847,123.9142 266.2237,123.6682 266.3347,123.5232 C266.4817,123.3322 266.5997,123.1612 266.6527,123.0652 C267.2707,122.2852 268.2377,120.9712 269.5277,119.1582 C270.3287,118.0322 271.0147,117.0902 271.5767,116.3422 L271.5767,115.1992 Z" id="Fill-174" fill="#AAAAAA"></path>
            </g>
        </g>
    </g>
</svg>