<?xml version="1.0" encoding="UTF-8"?>
<svg width="710px" height="288px" viewBox="0 0 710 288" version="1.1" xmlns="http://www.w3.org/2000/svg" xmlns:xlink="http://www.w3.org/1999/xlink">
    <!-- Generator: Sketch 53.2 (72643) - https://sketchapp.com -->
    <title>Group 5</title>
    <desc>Created with Sketch.</desc>
    <g id="Page-1" stroke="none" stroke-width="1" fill="none" fill-rule="evenodd">
        <g id="Artboard-Copy-7" transform="translate(-612.000000, -113.000000)">
            <g id="Group-5" transform="translate(612.000000, 113.000000)">
                <path d="M29.0034237,2.5 C28.9766351,2.50000903 28.9766351,2.50000903 28.9498466,2.50005416 C14.3143306,2.52964402 2.47388805,14.4180612 2.50347791,29.0535772 L2.94507573,247.473379 C2.9746233,262.087976 14.8303945,273.919802 29.4450216,273.919802 L680.198579,273.919802 C694.805694,273.919802 706.658339,262.099683 706.698479,247.492623 L707.29869,29.0728209 C707.298773,29.0364105 707.298773,29.0364105 707.29879,29 C707.29879,14.3644541 695.434336,2.5 680.79879,2.5 L29.0034237,2.5 Z" id="Rectangle" stroke="#9DD8FF" stroke-width="5" fill="#269FFF"></path>
                <path d="M52.0167003,52 L655.056822,52 C663.893378,52 671.056822,59.163444 671.056822,68 C671.056822,68.0764618 671.056274,68.1529226 671.055178,68.2293766 L668.86278,221.14277 C668.737382,229.88898 661.611533,236.913394 652.864425,236.913394 L53.5041055,236.913394 C44.7282653,236.913394 37.5902219,229.844445 37.5048624,221.06902 L36.0174572,68.1556264 C35.9315071,59.3194884 43.024936,52.086707 51.861074,52.0007569 C51.9129479,52.0002523 51.964824,52 52.0167003,52 Z" id="Rectangle" fill="#002E74"></path>
                <path d="M709.775952,39.0306628 C709.793013,39.4390493 709.801629,39.8496182 709.801629,40.2621994 C709.801629,40.2887631 709.801593,40.3153267 709.80152,40.3418902 L709.201309,258.761692 C709.157382,274.746777 696.186564,287.682001 680.201418,287.682001 L29.447861,287.682001 C13.4544955,287.682001 0.480255327,274.733966 0.447920251,258.740633 L0.00632243053,40.3208311 C0.00556003213,39.9437393 0.0119983854,39.568314 0.0255078746,39.1946853 L0.447920251,248.125127 C0.480255327,264.11846 13.4544955,277.066495 29.447861,277.066495 L680.201418,277.066495 C696.186564,277.066495 709.157382,264.131271 709.201309,248.146186 L709.775952,39.0306628 Z" id="Combined-Shape" fill="#02044B"></path>
                <g id="Group-4" transform="translate(35.000000, 37.000000)">
                    <path d="M0.776268354,27.3555021 L0.776268354,16 C0.776268354,7.163444 7.93971236,-1.53107837e-16 16.7762684,-1.77635684e-15 L619.816406,-1.77635684e-15 C628.652962,-3.39960584e-15 635.816406,7.163444 635.816406,16 L635.816406,27.3555021 C635.816406,18.5189461 628.652962,11.3555021 619.816406,11.3555021 L16.7762684,11.3555021 C7.93971236,11.3555021 0.776268354,18.5189461 0.776268354,27.3555021 Z" id="Combined-Shape" fill="#9DD8FF"></path>
                    <path d="M0.776268354,29.3555021 L0.776268354,18 C0.776268354,9.163444 7.93971236,2 16.7762684,2 L619.816406,2 C628.652962,2 635.816406,9.163444 635.816406,18 L635.816406,29.3555021 C635.816406,20.5189461 628.652962,13.3555021 619.816406,13.3555021 L16.7762684,13.3555021 C7.93971236,13.3555021 0.776268354,20.5189461 0.776268354,29.3555021 Z" id="Combined-Shape" fill="#0247B4"></path>
                    <path d="M0.776268354,35.0806322 L0.776268354,27 C0.776268354,18.163444 7.93971236,11 16.7762684,11 L619.816406,11 C628.652962,11 635.816406,18.163444 635.816406,27 L635.816406,35.0806322 C635.816406,26.2440762 628.652962,19.0806322 619.816406,19.0806322 L16.7762684,19.0806322 C7.93971236,19.0806322 0.776268354,26.2440762 0.776268354,35.0806322 Z" id="Combined-Shape" fill="#190C2B"></path>
                </g>
                <g id="Group" transform="translate(7.000000, 6.000000)">
                    <path d="M22.8688525,12.1727343 C22.8688525,18.3417435 17.9736866,23.3442623 11.9344262,23.3442623 C5.89634657,23.3442623 1,18.3417435 1,12.1727343 C1,6.0025188 5.89634657,1 11.9344262,1 C17.9736866,1 22.8688525,6.0025188 22.8688525,12.1727343" id="Fill-8" fill="#1F80EF"></path>
                    <path d="M19.4098361,9.41860845 C19.4098361,11.3321094 17.8906196,12.8852459 16.0163934,12.8852459 C14.1421672,12.8852459 12.6229508,11.3321094 12.6229508,9.41860845 C12.6229508,7.50395615 14.1421672,5.95081967 16.0163934,5.95081967 C17.8906196,5.95081967 19.4098361,7.50395615 19.4098361,9.41860845" id="Fill-10" fill="#53BBFF"></path>
                    <path d="M14.2786885,17.697346 C14.2786885,19.1853215 13.0974948,20.3934426 11.6387329,20.3934426 C10.1811937,20.3934426 9,19.1853215 9,17.697346 C9,16.2081212 10.1811937,15 11.6387329,15 C13.0974948,15 14.2786885,16.2081212 14.2786885,17.697346" id="Fill-12" fill="#53BBFF"></path>
                    <path d="M12.6229508,2.96035329 C7.26687553,2.96035329 2.90911153,7.41306826 2.90911153,12.8858466 C2.90911153,18.3574235 7.26687553,22.8101385 12.6229508,22.8101385 C17.9790261,22.8101385 22.3367901,18.3574235 22.3367901,12.8858466 C22.3367901,7.41306826 17.9790261,2.96035329 12.6229508,2.96035329 M1.73324429,12.8858466 C1.73324429,19.020645 6.61897268,24.0116266 12.6229508,24.0116266 C18.626929,24.0116266 23.5126573,19.020645 23.5126573,12.8858466 C23.5126573,19.020645 18.626929,24.0116266 12.6229508,24.0116266 C6.61897268,24.0116266 1.73324429,19.020645 1.73324429,12.8858466 M12.6229508,25.2131148 C5.96989396,25.2131148 0.557377049,19.6838664 0.557377049,12.8858466 C0.557377049,6.08782686 5.96989396,0.557377049 12.6229508,0.557377049 C19.2760077,0.557377049 24.6885246,6.08782686 24.6885246,12.8858466 C24.6885246,19.6838664 19.2760077,25.2131148 12.6229508,25.2131148" id="Fill-16" fill="#015BA3"></path>
                </g>
                <g id="Group-Copy" transform="translate(143.000000, 6.000000)">
                    <path d="M22.8688525,12.1727343 C22.8688525,18.3417435 17.9736866,23.3442623 11.9344262,23.3442623 C5.89634657,23.3442623 1,18.3417435 1,12.1727343 C1,6.0025188 5.89634657,1 11.9344262,1 C17.9736866,1 22.8688525,6.0025188 22.8688525,12.1727343" id="Fill-8" fill="#1F80EF"></path>
                    <path d="M19.4098361,9.41860845 C19.4098361,11.3321094 17.8906196,12.8852459 16.0163934,12.8852459 C14.1421672,12.8852459 12.6229508,11.3321094 12.6229508,9.41860845 C12.6229508,7.50395615 14.1421672,5.95081967 16.0163934,5.95081967 C17.8906196,5.95081967 19.4098361,7.50395615 19.4098361,9.41860845" id="Fill-10" fill="#53BBFF"></path>
                    <path d="M14.2786885,17.697346 C14.2786885,19.1853215 13.0974948,20.3934426 11.6387329,20.3934426 C10.1811937,20.3934426 9,19.1853215 9,17.697346 C9,16.2081212 10.1811937,15 11.6387329,15 C13.0974948,15 14.2786885,16.2081212 14.2786885,17.697346" id="Fill-12" fill="#53BBFF"></path>
                    <path d="M12.6229508,2.96035329 C7.26687553,2.96035329 2.90911153,7.41306826 2.90911153,12.8858466 C2.90911153,18.3574235 7.26687553,22.8101385 12.6229508,22.8101385 C17.9790261,22.8101385 22.3367901,18.3574235 22.3367901,12.8858466 C22.3367901,7.41306826 17.9790261,2.96035329 12.6229508,2.96035329 M1.73324429,12.8858466 C1.73324429,19.020645 6.61897268,24.0116266 12.6229508,24.0116266 C18.626929,24.0116266 23.5126573,19.020645 23.5126573,12.8858466 C23.5126573,19.020645 18.626929,24.0116266 12.6229508,24.0116266 C6.61897268,24.0116266 1.73324429,19.020645 1.73324429,12.8858466 M12.6229508,25.2131148 C5.96989396,25.2131148 0.557377049,19.6838664 0.557377049,12.8858466 C0.557377049,6.08782686 5.96989396,0.557377049 12.6229508,0.557377049 C19.2760077,0.557377049 24.6885246,6.08782686 24.6885246,12.8858466 C24.6885246,19.6838664 19.2760077,25.2131148 12.6229508,25.2131148" id="Fill-16" fill="#015BA3"></path>
                </g>
                <g id="Group-Copy-2" transform="translate(281.000000, 6.000000)">
                    <path d="M22.8688525,12.1727343 C22.8688525,18.3417435 17.9736866,23.3442623 11.9344262,23.3442623 C5.89634657,23.3442623 1,18.3417435 1,12.1727343 C1,6.0025188 5.89634657,1 11.9344262,1 C17.9736866,1 22.8688525,6.0025188 22.8688525,12.1727343" id="Fill-8" fill="#1F80EF"></path>
                    <path d="M19.4098361,9.41860845 C19.4098361,11.3321094 17.8906196,12.8852459 16.0163934,12.8852459 C14.1421672,12.8852459 12.6229508,11.3321094 12.6229508,9.41860845 C12.6229508,7.50395615 14.1421672,5.95081967 16.0163934,5.95081967 C17.8906196,5.95081967 19.4098361,7.50395615 19.4098361,9.41860845" id="Fill-10" fill="#53BBFF"></path>
                    <path d="M14.2786885,17.697346 C14.2786885,19.1853215 13.0974948,20.3934426 11.6387329,20.3934426 C10.1811937,20.3934426 9,19.1853215 9,17.697346 C9,16.2081212 10.1811937,15 11.6387329,15 C13.0974948,15 14.2786885,16.2081212 14.2786885,17.697346" id="Fill-12" fill="#53BBFF"></path>
                    <path d="M12.6229508,2.96035329 C7.26687553,2.96035329 2.90911153,7.41306826 2.90911153,12.8858466 C2.90911153,18.3574235 7.26687553,22.8101385 12.6229508,22.8101385 C17.9790261,22.8101385 22.3367901,18.3574235 22.3367901,12.8858466 C22.3367901,7.41306826 17.9790261,2.96035329 12.6229508,2.96035329 M1.73324429,12.8858466 C1.73324429,19.020645 6.61897268,24.0116266 12.6229508,24.0116266 C18.626929,24.0116266 23.5126573,19.020645 23.5126573,12.8858466 C23.5126573,19.020645 18.626929,24.0116266 12.6229508,24.0116266 C6.61897268,24.0116266 1.73324429,19.020645 1.73324429,12.8858466 M12.6229508,25.2131148 C5.96989396,25.2131148 0.557377049,19.6838664 0.557377049,12.8858466 C0.557377049,6.08782686 5.96989396,0.557377049 12.6229508,0.557377049 C19.2760077,0.557377049 24.6885246,6.08782686 24.6885246,12.8858466 C24.6885246,19.6838664 19.2760077,25.2131148 12.6229508,25.2131148" id="Fill-16" fill="#015BA3"></path>
                </g>
                <g id="Group-Copy-3" transform="translate(413.000000, 6.000000)">
                    <path d="M22.8688525,12.1727343 C22.8688525,18.3417435 17.9736866,23.3442623 11.9344262,23.3442623 C5.89634657,23.3442623 1,18.3417435 1,12.1727343 C1,6.0025188 5.89634657,1 11.9344262,1 C17.9736866,1 22.8688525,6.0025188 22.8688525,12.1727343" id="Fill-8" fill="#1F80EF"></path>
                    <path d="M19.4098361,9.41860845 C19.4098361,11.3321094 17.8906196,12.8852459 16.0163934,12.8852459 C14.1421672,12.8852459 12.6229508,11.3321094 12.6229508,9.41860845 C12.6229508,7.50395615 14.1421672,5.95081967 16.0163934,5.95081967 C17.8906196,5.95081967 19.4098361,7.50395615 19.4098361,9.41860845" id="Fill-10" fill="#53BBFF"></path>
                    <path d="M14.2786885,17.697346 C14.2786885,19.1853215 13.0974948,20.3934426 11.6387329,20.3934426 C10.1811937,20.3934426 9,19.1853215 9,17.697346 C9,16.2081212 10.1811937,15 11.6387329,15 C13.0974948,15 14.2786885,16.2081212 14.2786885,17.697346" id="Fill-12" fill="#53BBFF"></path>
                    <path d="M12.6229508,2.96035329 C7.26687553,2.96035329 2.90911153,7.41306826 2.90911153,12.8858466 C2.90911153,18.3574235 7.26687553,22.8101385 12.6229508,22.8101385 C17.9790261,22.8101385 22.3367901,18.3574235 22.3367901,12.8858466 C22.3367901,7.41306826 17.9790261,2.96035329 12.6229508,2.96035329 M1.73324429,12.8858466 C1.73324429,19.020645 6.61897268,24.0116266 12.6229508,24.0116266 C18.626929,24.0116266 23.5126573,19.020645 23.5126573,12.8858466 C23.5126573,19.020645 18.626929,24.0116266 12.6229508,24.0116266 C6.61897268,24.0116266 1.73324429,19.020645 1.73324429,12.8858466 M12.6229508,25.2131148 C5.96989396,25.2131148 0.557377049,19.6838664 0.557377049,12.8858466 C0.557377049,6.08782686 5.96989396,0.557377049 12.6229508,0.557377049 C19.2760077,0.557377049 24.6885246,6.08782686 24.6885246,12.8858466 C24.6885246,19.6838664 19.2760077,25.2131148 12.6229508,25.2131148" id="Fill-16" fill="#015BA3"></path>
                </g>
                <g id="Group-Copy-2" transform="translate(541.000000, 6.000000)">
                    <path d="M22.8688525,12.1727343 C22.8688525,18.3417435 17.9736866,23.3442623 11.9344262,23.3442623 C5.89634657,23.3442623 1,18.3417435 1,12.1727343 C1,6.0025188 5.89634657,1 11.9344262,1 C17.9736866,1 22.8688525,6.0025188 22.8688525,12.1727343" id="Fill-8" fill="#1F80EF"></path>
                    <path d="M19.4098361,9.41860845 C19.4098361,11.3321094 17.8906196,12.8852459 16.0163934,12.8852459 C14.1421672,12.8852459 12.6229508,11.3321094 12.6229508,9.41860845 C12.6229508,7.50395615 14.1421672,5.95081967 16.0163934,5.95081967 C17.8906196,5.95081967 19.4098361,7.50395615 19.4098361,9.41860845" id="Fill-10" fill="#53BBFF"></path>
                    <path d="M14.2786885,17.697346 C14.2786885,19.1853215 13.0974948,20.3934426 11.6387329,20.3934426 C10.1811937,20.3934426 9,19.1853215 9,17.697346 C9,16.2081212 10.1811937,15 11.6387329,15 C13.0974948,15 14.2786885,16.2081212 14.2786885,17.697346" id="Fill-12" fill="#53BBFF"></path>
                    <path d="M12.6229508,2.96035329 C7.26687553,2.96035329 2.90911153,7.41306826 2.90911153,12.8858466 C2.90911153,18.3574235 7.26687553,22.8101385 12.6229508,22.8101385 C17.9790261,22.8101385 22.3367901,18.3574235 22.3367901,12.8858466 C22.3367901,7.41306826 17.9790261,2.96035329 12.6229508,2.96035329 M1.73324429,12.8858466 C1.73324429,19.020645 6.61897268,24.0116266 12.6229508,24.0116266 C18.626929,24.0116266 23.5126573,19.020645 23.5126573,12.8858466 C23.5126573,19.020645 18.626929,24.0116266 12.6229508,24.0116266 C6.61897268,24.0116266 1.73324429,19.020645 1.73324429,12.8858466 M12.6229508,25.2131148 C5.96989396,25.2131148 0.557377049,19.6838664 0.557377049,12.8858466 C0.557377049,6.08782686 5.96989396,0.557377049 12.6229508,0.557377049 C19.2760077,0.557377049 24.6885246,6.08782686 24.6885246,12.8858466 C24.6885246,19.6838664 19.2760077,25.2131148 12.6229508,25.2131148" id="Fill-16" fill="#015BA3"></path>
                </g>
                <g id="Group-Copy" transform="translate(143.000000, 242.000000)">
                    <path d="M22.8688525,12.1727343 C22.8688525,18.3417435 17.9736866,23.3442623 11.9344262,23.3442623 C5.89634657,23.3442623 1,18.3417435 1,12.1727343 C1,6.0025188 5.89634657,1 11.9344262,1 C17.9736866,1 22.8688525,6.0025188 22.8688525,12.1727343" id="Fill-8" fill="#1F80EF"></path>
                    <path d="M19.4098361,9.41860845 C19.4098361,11.3321094 17.8906196,12.8852459 16.0163934,12.8852459 C14.1421672,12.8852459 12.6229508,11.3321094 12.6229508,9.41860845 C12.6229508,7.50395615 14.1421672,5.95081967 16.0163934,5.95081967 C17.8906196,5.95081967 19.4098361,7.50395615 19.4098361,9.41860845" id="Fill-10" fill="#53BBFF"></path>
                    <path d="M14.2786885,17.697346 C14.2786885,19.1853215 13.0974948,20.3934426 11.6387329,20.3934426 C10.1811937,20.3934426 9,19.1853215 9,17.697346 C9,16.2081212 10.1811937,15 11.6387329,15 C13.0974948,15 14.2786885,16.2081212 14.2786885,17.697346" id="Fill-12" fill="#53BBFF"></path>
                    <path d="M12.6229508,2.96035329 C7.26687553,2.96035329 2.90911153,7.41306826 2.90911153,12.8858466 C2.90911153,18.3574235 7.26687553,22.8101385 12.6229508,22.8101385 C17.9790261,22.8101385 22.3367901,18.3574235 22.3367901,12.8858466 C22.3367901,7.41306826 17.9790261,2.96035329 12.6229508,2.96035329 M1.73324429,12.8858466 C1.73324429,19.020645 6.61897268,24.0116266 12.6229508,24.0116266 C18.626929,24.0116266 23.5126573,19.020645 23.5126573,12.8858466 C23.5126573,19.020645 18.626929,24.0116266 12.6229508,24.0116266 C6.61897268,24.0116266 1.73324429,19.020645 1.73324429,12.8858466 M12.6229508,25.2131148 C5.96989396,25.2131148 0.557377049,19.6838664 0.557377049,12.8858466 C0.557377049,6.08782686 5.96989396,0.557377049 12.6229508,0.557377049 C19.2760077,0.557377049 24.6885246,6.08782686 24.6885246,12.8858466 C24.6885246,19.6838664 19.2760077,25.2131148 12.6229508,25.2131148" id="Fill-16" fill="#015BA3"></path>
                </g>
                <g id="Group-Copy-2" transform="translate(281.000000, 242.000000)">
                    <path d="M22.8688525,12.1727343 C22.8688525,18.3417435 17.9736866,23.3442623 11.9344262,23.3442623 C5.89634657,23.3442623 1,18.3417435 1,12.1727343 C1,6.0025188 5.89634657,1 11.9344262,1 C17.9736866,1 22.8688525,6.0025188 22.8688525,12.1727343" id="Fill-8" fill="#1F80EF"></path>
                    <path d="M19.4098361,9.41860845 C19.4098361,11.3321094 17.8906196,12.8852459 16.0163934,12.8852459 C14.1421672,12.8852459 12.6229508,11.3321094 12.6229508,9.41860845 C12.6229508,7.50395615 14.1421672,5.95081967 16.0163934,5.95081967 C17.8906196,5.95081967 19.4098361,7.50395615 19.4098361,9.41860845" id="Fill-10" fill="#53BBFF"></path>
                    <path d="M14.2786885,17.697346 C14.2786885,19.1853215 13.0974948,20.3934426 11.6387329,20.3934426 C10.1811937,20.3934426 9,19.1853215 9,17.697346 C9,16.2081212 10.1811937,15 11.6387329,15 C13.0974948,15 14.2786885,16.2081212 14.2786885,17.697346" id="Fill-12" fill="#53BBFF"></path>
                    <path d="M12.6229508,2.96035329 C7.26687553,2.96035329 2.90911153,7.41306826 2.90911153,12.8858466 C2.90911153,18.3574235 7.26687553,22.8101385 12.6229508,22.8101385 C17.9790261,22.8101385 22.3367901,18.3574235 22.3367901,12.8858466 C22.3367901,7.41306826 17.9790261,2.96035329 12.6229508,2.96035329 M1.73324429,12.8858466 C1.73324429,19.020645 6.61897268,24.0116266 12.6229508,24.0116266 C18.626929,24.0116266 23.5126573,19.020645 23.5126573,12.8858466 C23.5126573,19.020645 18.626929,24.0116266 12.6229508,24.0116266 C6.61897268,24.0116266 1.73324429,19.020645 1.73324429,12.8858466 M12.6229508,25.2131148 C5.96989396,25.2131148 0.557377049,19.6838664 0.557377049,12.8858466 C0.557377049,6.08782686 5.96989396,0.557377049 12.6229508,0.557377049 C19.2760077,0.557377049 24.6885246,6.08782686 24.6885246,12.8858466 C24.6885246,19.6838664 19.2760077,25.2131148 12.6229508,25.2131148" id="Fill-16" fill="#015BA3"></path>
                </g>
                <g id="Group-Copy-3" transform="translate(413.000000, 242.000000)">
                    <path d="M22.8688525,12.1727343 C22.8688525,18.3417435 17.9736866,23.3442623 11.9344262,23.3442623 C5.89634657,23.3442623 1,18.3417435 1,12.1727343 C1,6.0025188 5.89634657,1 11.9344262,1 C17.9736866,1 22.8688525,6.0025188 22.8688525,12.1727343" id="Fill-8" fill="#1F80EF"></path>
                    <path d="M19.4098361,9.41860845 C19.4098361,11.3321094 17.8906196,12.8852459 16.0163934,12.8852459 C14.1421672,12.8852459 12.6229508,11.3321094 12.6229508,9.41860845 C12.6229508,7.50395615 14.1421672,5.95081967 16.0163934,5.95081967 C17.8906196,5.95081967 19.4098361,7.50395615 19.4098361,9.41860845" id="Fill-10" fill="#53BBFF"></path>
                    <path d="M14.2786885,17.697346 C14.2786885,19.1853215 13.0974948,20.3934426 11.6387329,20.3934426 C10.1811937,20.3934426 9,19.1853215 9,17.697346 C9,16.2081212 10.1811937,15 11.6387329,15 C13.0974948,15 14.2786885,16.2081212 14.2786885,17.697346" id="Fill-12" fill="#53BBFF"></path>
                    <path d="M12.6229508,2.96035329 C7.26687553,2.96035329 2.90911153,7.41306826 2.90911153,12.8858466 C2.90911153,18.3574235 7.26687553,22.8101385 12.6229508,22.8101385 C17.9790261,22.8101385 22.3367901,18.3574235 22.3367901,12.8858466 C22.3367901,7.41306826 17.9790261,2.96035329 12.6229508,2.96035329 M1.73324429,12.8858466 C1.73324429,19.020645 6.61897268,24.0116266 12.6229508,24.0116266 C18.626929,24.0116266 23.5126573,19.020645 23.5126573,12.8858466 C23.5126573,19.020645 18.626929,24.0116266 12.6229508,24.0116266 C6.61897268,24.0116266 1.73324429,19.020645 1.73324429,12.8858466 M12.6229508,25.2131148 C5.96989396,25.2131148 0.557377049,19.6838664 0.557377049,12.8858466 C0.557377049,6.08782686 5.96989396,0.557377049 12.6229508,0.557377049 C19.2760077,0.557377049 24.6885246,6.08782686 24.6885246,12.8858466 C24.6885246,19.6838664 19.2760077,25.2131148 12.6229508,25.2131148" id="Fill-16" fill="#015BA3"></path>
                </g>
                <g id="Group-Copy-2" transform="translate(541.000000, 242.000000)">
                    <path d="M22.8688525,12.1727343 C22.8688525,18.3417435 17.9736866,23.3442623 11.9344262,23.3442623 C5.89634657,23.3442623 1,18.3417435 1,12.1727343 C1,6.0025188 5.89634657,1 11.9344262,1 C17.9736866,1 22.8688525,6.0025188 22.8688525,12.1727343" id="Fill-8" fill="#1F80EF"></path>
                    <path d="M19.4098361,9.41860845 C19.4098361,11.3321094 17.8906196,12.8852459 16.0163934,12.8852459 C14.1421672,12.8852459 12.6229508,11.3321094 12.6229508,9.41860845 C12.6229508,7.50395615 14.1421672,5.95081967 16.0163934,5.95081967 C17.8906196,5.95081967 19.4098361,7.50395615 19.4098361,9.41860845" id="Fill-10" fill="#53BBFF"></path>
                    <path d="M14.2786885,17.697346 C14.2786885,19.1853215 13.0974948,20.3934426 11.6387329,20.3934426 C10.1811937,20.3934426 9,19.1853215 9,17.697346 C9,16.2081212 10.1811937,15 11.6387329,15 C13.0974948,15 14.2786885,16.2081212 14.2786885,17.697346" id="Fill-12" fill="#53BBFF"></path>
                    <path d="M12.6229508,2.96035329 C7.26687553,2.96035329 2.90911153,7.41306826 2.90911153,12.8858466 C2.90911153,18.3574235 7.26687553,22.8101385 12.6229508,22.8101385 C17.9790261,22.8101385 22.3367901,18.3574235 22.3367901,12.8858466 C22.3367901,7.41306826 17.9790261,2.96035329 12.6229508,2.96035329 M1.73324429,12.8858466 C1.73324429,19.020645 6.61897268,24.0116266 12.6229508,24.0116266 C18.626929,24.0116266 23.5126573,19.020645 23.5126573,12.8858466 C23.5126573,19.020645 18.626929,24.0116266 12.6229508,24.0116266 C6.61897268,24.0116266 1.73324429,19.020645 1.73324429,12.8858466 M12.6229508,25.2131148 C5.96989396,25.2131148 0.557377049,19.6838664 0.557377049,12.8858466 C0.557377049,6.08782686 5.96989396,0.557377049 12.6229508,0.557377049 C19.2760077,0.557377049 24.6885246,6.08782686 24.6885246,12.8858466 C24.6885246,19.6838664 19.2760077,25.2131148 12.6229508,25.2131148" id="Fill-16" fill="#015BA3"></path>
                </g>
                <g id="Group-Copy-2" transform="translate(677.000000, 125.000000)">
                    <path d="M22.8688525,12.1727343 C22.8688525,18.3417435 17.9736866,23.3442623 11.9344262,23.3442623 C5.89634657,23.3442623 1,18.3417435 1,12.1727343 C1,6.0025188 5.89634657,1 11.9344262,1 C17.9736866,1 22.8688525,6.0025188 22.8688525,12.1727343" id="Fill-8" fill="#1F80EF"></path>
                    <path d="M19.4098361,9.41860845 C19.4098361,11.3321094 17.8906196,12.8852459 16.0163934,12.8852459 C14.1421672,12.8852459 12.6229508,11.3321094 12.6229508,9.41860845 C12.6229508,7.50395615 14.1421672,5.95081967 16.0163934,5.95081967 C17.8906196,5.95081967 19.4098361,7.50395615 19.4098361,9.41860845" id="Fill-10" fill="#53BBFF"></path>
                    <path d="M14.2786885,17.697346 C14.2786885,19.1853215 13.0974948,20.3934426 11.6387329,20.3934426 C10.1811937,20.3934426 9,19.1853215 9,17.697346 C9,16.2081212 10.1811937,15 11.6387329,15 C13.0974948,15 14.2786885,16.2081212 14.2786885,17.697346" id="Fill-12" fill="#53BBFF"></path>
                    <path d="M12.6229508,2.96035329 C7.26687553,2.96035329 2.90911153,7.41306826 2.90911153,12.8858466 C2.90911153,18.3574235 7.26687553,22.8101385 12.6229508,22.8101385 C17.9790261,22.8101385 22.3367901,18.3574235 22.3367901,12.8858466 C22.3367901,7.41306826 17.9790261,2.96035329 12.6229508,2.96035329 M1.73324429,12.8858466 C1.73324429,19.020645 6.61897268,24.0116266 12.6229508,24.0116266 C18.626929,24.0116266 23.5126573,19.020645 23.5126573,12.8858466 C23.5126573,19.020645 18.626929,24.0116266 12.6229508,24.0116266 C6.61897268,24.0116266 1.73324429,19.020645 1.73324429,12.8858466 M12.6229508,25.2131148 C5.96989396,25.2131148 0.557377049,19.6838664 0.557377049,12.8858466 C0.557377049,6.08782686 5.96989396,0.557377049 12.6229508,0.557377049 C19.2760077,0.557377049 24.6885246,6.08782686 24.6885246,12.8858466 C24.6885246,19.6838664 19.2760077,25.2131148 12.6229508,25.2131148" id="Fill-16" fill="#015BA3"></path>
                </g>
                <g id="Group-Copy-2" transform="translate(677.000000, 242.000000)">
                    <path d="M22.8688525,12.1727343 C22.8688525,18.3417435 17.9736866,23.3442623 11.9344262,23.3442623 C5.89634657,23.3442623 1,18.3417435 1,12.1727343 C1,6.0025188 5.89634657,1 11.9344262,1 C17.9736866,1 22.8688525,6.0025188 22.8688525,12.1727343" id="Fill-8" fill="#1F80EF"></path>
                    <path d="M19.4098361,9.41860845 C19.4098361,11.3321094 17.8906196,12.8852459 16.0163934,12.8852459 C14.1421672,12.8852459 12.6229508,11.3321094 12.6229508,9.41860845 C12.6229508,7.50395615 14.1421672,5.95081967 16.0163934,5.95081967 C17.8906196,5.95081967 19.4098361,7.50395615 19.4098361,9.41860845" id="Fill-10" fill="#53BBFF"></path>
                    <path d="M14.2786885,17.697346 C14.2786885,19.1853215 13.0974948,20.3934426 11.6387329,20.3934426 C10.1811937,20.3934426 9,19.1853215 9,17.697346 C9,16.2081212 10.1811937,15 11.6387329,15 C13.0974948,15 14.2786885,16.2081212 14.2786885,17.697346" id="Fill-12" fill="#53BBFF"></path>
                    <path d="M12.6229508,2.96035329 C7.26687553,2.96035329 2.90911153,7.41306826 2.90911153,12.8858466 C2.90911153,18.3574235 7.26687553,22.8101385 12.6229508,22.8101385 C17.9790261,22.8101385 22.3367901,18.3574235 22.3367901,12.8858466 C22.3367901,7.41306826 17.9790261,2.96035329 12.6229508,2.96035329 M1.73324429,12.8858466 C1.73324429,19.020645 6.61897268,24.0116266 12.6229508,24.0116266 C18.626929,24.0116266 23.5126573,19.020645 23.5126573,12.8858466 C23.5126573,19.020645 18.626929,24.0116266 12.6229508,24.0116266 C6.61897268,24.0116266 1.73324429,19.020645 1.73324429,12.8858466 M12.6229508,25.2131148 C5.96989396,25.2131148 0.557377049,19.6838664 0.557377049,12.8858466 C0.557377049,6.08782686 5.96989396,0.557377049 12.6229508,0.557377049 C19.2760077,0.557377049 24.6885246,6.08782686 24.6885246,12.8858466 C24.6885246,19.6838664 19.2760077,25.2131148 12.6229508,25.2131148" id="Fill-16" fill="#015BA3"></path>
                </g>
                <g id="Group-Copy-2" transform="translate(7.000000, 125.000000)">
                    <path d="M22.8688525,12.1727343 C22.8688525,18.3417435 17.9736866,23.3442623 11.9344262,23.3442623 C5.89634657,23.3442623 1,18.3417435 1,12.1727343 C1,6.0025188 5.89634657,1 11.9344262,1 C17.9736866,1 22.8688525,6.0025188 22.8688525,12.1727343" id="Fill-8" fill="#1F80EF"></path>
                    <path d="M19.4098361,9.41860845 C19.4098361,11.3321094 17.8906196,12.8852459 16.0163934,12.8852459 C14.1421672,12.8852459 12.6229508,11.3321094 12.6229508,9.41860845 C12.6229508,7.50395615 14.1421672,5.95081967 16.0163934,5.95081967 C17.8906196,5.95081967 19.4098361,7.50395615 19.4098361,9.41860845" id="Fill-10" fill="#53BBFF"></path>
                    <path d="M14.2786885,17.697346 C14.2786885,19.1853215 13.0974948,20.3934426 11.6387329,20.3934426 C10.1811937,20.3934426 9,19.1853215 9,17.697346 C9,16.2081212 10.1811937,15 11.6387329,15 C13.0974948,15 14.2786885,16.2081212 14.2786885,17.697346" id="Fill-12" fill="#53BBFF"></path>
                    <path d="M12.6229508,2.96035329 C7.26687553,2.96035329 2.90911153,7.41306826 2.90911153,12.8858466 C2.90911153,18.3574235 7.26687553,22.8101385 12.6229508,22.8101385 C17.9790261,22.8101385 22.3367901,18.3574235 22.3367901,12.8858466 C22.3367901,7.41306826 17.9790261,2.96035329 12.6229508,2.96035329 M1.73324429,12.8858466 C1.73324429,19.020645 6.61897268,24.0116266 12.6229508,24.0116266 C18.626929,24.0116266 23.5126573,19.020645 23.5126573,12.8858466 C23.5126573,19.020645 18.626929,24.0116266 12.6229508,24.0116266 C6.61897268,24.0116266 1.73324429,19.020645 1.73324429,12.8858466 M12.6229508,25.2131148 C5.96989396,25.2131148 0.557377049,19.6838664 0.557377049,12.8858466 C0.557377049,6.08782686 5.96989396,0.557377049 12.6229508,0.557377049 C19.2760077,0.557377049 24.6885246,6.08782686 24.6885246,12.8858466 C24.6885246,19.6838664 19.2760077,25.2131148 12.6229508,25.2131148" id="Fill-16" fill="#015BA3"></path>
                </g>
                <g id="Group-Copy-3" transform="translate(677.000000, 6.000000)">
                    <path d="M22.8688525,12.1727343 C22.8688525,18.3417435 17.9736866,23.3442623 11.9344262,23.3442623 C5.89634657,23.3442623 1,18.3417435 1,12.1727343 C1,6.0025188 5.89634657,1 11.9344262,1 C17.9736866,1 22.8688525,6.0025188 22.8688525,12.1727343" id="Fill-8" fill="#1F80EF"></path>
                    <path d="M19.4098361,9.41860845 C19.4098361,11.3321094 17.8906196,12.8852459 16.0163934,12.8852459 C14.1421672,12.8852459 12.6229508,11.3321094 12.6229508,9.41860845 C12.6229508,7.50395615 14.1421672,5.95081967 16.0163934,5.95081967 C17.8906196,5.95081967 19.4098361,7.50395615 19.4098361,9.41860845" id="Fill-10" fill="#53BBFF"></path>
                    <path d="M14.2786885,17.697346 C14.2786885,19.1853215 13.0974948,20.3934426 11.6387329,20.3934426 C10.1811937,20.3934426 9,19.1853215 9,17.697346 C9,16.2081212 10.1811937,15 11.6387329,15 C13.0974948,15 14.2786885,16.2081212 14.2786885,17.697346" id="Fill-12" fill="#53BBFF"></path>
                    <path d="M12.6229508,2.96035329 C7.26687553,2.96035329 2.90911153,7.41306826 2.90911153,12.8858466 C2.90911153,18.3574235 7.26687553,22.8101385 12.6229508,22.8101385 C17.9790261,22.8101385 22.3367901,18.3574235 22.3367901,12.8858466 C22.3367901,7.41306826 17.9790261,2.96035329 12.6229508,2.96035329 M1.73324429,12.8858466 C1.73324429,19.020645 6.61897268,24.0116266 12.6229508,24.0116266 C18.626929,24.0116266 23.5126573,19.020645 23.5126573,12.8858466 C23.5126573,19.020645 18.626929,24.0116266 12.6229508,24.0116266 C6.61897268,24.0116266 1.73324429,19.020645 1.73324429,12.8858466 M12.6229508,25.2131148 C5.96989396,25.2131148 0.557377049,19.6838664 0.557377049,12.8858466 C0.557377049,6.08782686 5.96989396,0.557377049 12.6229508,0.557377049 C19.2760077,0.557377049 24.6885246,6.08782686 24.6885246,12.8858466 C24.6885246,19.6838664 19.2760077,25.2131148 12.6229508,25.2131148" id="Fill-16" fill="#015BA3"></path>
                </g>
                <g id="Group" transform="translate(7.000000, 242.000000)">
                    <path d="M22.8688525,12.1727343 C22.8688525,18.3417435 17.9736866,23.3442623 11.9344262,23.3442623 C5.89634657,23.3442623 1,18.3417435 1,12.1727343 C1,6.0025188 5.89634657,1 11.9344262,1 C17.9736866,1 22.8688525,6.0025188 22.8688525,12.1727343" id="Fill-8" fill="#1F80EF"></path>
                    <path d="M19.4098361,9.41860845 C19.4098361,11.3321094 17.8906196,12.8852459 16.0163934,12.8852459 C14.1421672,12.8852459 12.6229508,11.3321094 12.6229508,9.41860845 C12.6229508,7.50395615 14.1421672,5.95081967 16.0163934,5.95081967 C17.8906196,5.95081967 19.4098361,7.50395615 19.4098361,9.41860845" id="Fill-10" fill="#53BBFF"></path>
                    <path d="M14.2786885,17.697346 C14.2786885,19.1853215 13.0974948,20.3934426 11.6387329,20.3934426 C10.1811937,20.3934426 9,19.1853215 9,17.697346 C9,16.2081212 10.1811937,15 11.6387329,15 C13.0974948,15 14.2786885,16.2081212 14.2786885,17.697346" id="Fill-12" fill="#53BBFF"></path>
                    <path d="M12.6229508,2.96035329 C7.26687553,2.96035329 2.90911153,7.41306826 2.90911153,12.8858466 C2.90911153,18.3574235 7.26687553,22.8101385 12.6229508,22.8101385 C17.9790261,22.8101385 22.3367901,18.3574235 22.3367901,12.8858466 C22.3367901,7.41306826 17.9790261,2.96035329 12.6229508,2.96035329 M1.73324429,12.8858466 C1.73324429,19.020645 6.61897268,24.0116266 12.6229508,24.0116266 C18.626929,24.0116266 23.5126573,19.020645 23.5126573,12.8858466 C23.5126573,19.020645 18.626929,24.0116266 12.6229508,24.0116266 C6.61897268,24.0116266 1.73324429,19.020645 1.73324429,12.8858466 M12.6229508,25.2131148 C5.96989396,25.2131148 0.557377049,19.6838664 0.557377049,12.8858466 C0.557377049,6.08782686 5.96989396,0.557377049 12.6229508,0.557377049 C19.2760077,0.557377049 24.6885246,6.08782686 24.6885246,12.8858466 C24.6885246,19.6838664 19.2760077,25.2131148 12.6229508,25.2131148" id="Fill-16" fill="#015BA3"></path>
                </g>
            </g>
        </g>
    </g>
</svg>