<?xml version="1.0" encoding="UTF-8"?>
<svg width="715px" height="288px" viewBox="0 0 715 288" version="1.1" xmlns="http://www.w3.org/2000/svg" xmlns:xlink="http://www.w3.org/1999/xlink">
    <!-- Generator: Sketch 53.2 (72643) - https://sketchapp.com -->
    <title>Group 12</title>
    <desc>Created with Sketch.</desc>
    <g id="Page-1" stroke="none" stroke-width="1" fill="none" fill-rule="evenodd">
        <g id="Artboard" transform="translate(-2309.000000, -1337.000000)">
            <g id="Group-12" transform="translate(2309.000000, 1337.000000)">
                <path d="M710.867661,35.7391692 C710.884751,36.1478897 710.893381,36.5587964 710.893381,36.9717187 C710.893381,36.9979774 710.893345,37.0242361 710.893274,37.0504947 L710.291136,258.716124 C710.247713,274.701568 697.276746,287.637348 681.291243,287.637348 L30.4485975,287.637348 C14.4549693,287.637348 1.48061983,274.688903 1.44865542,258.695307 L1.00563995,37.0296773 C1.00488625,36.6525613 1.01133419,36.2771121 1.02485413,35.90346 L1.44865542,247.955149 C1.48061983,263.948745 14.4549693,276.897191 30.4485975,276.897191 L681.291243,276.897191 C697.276746,276.897191 710.247713,263.96141 710.291136,247.975967 L710.867661,35.7391692 Z" id="Combined-Shape" fill="#02044B"></path>
                <g id="Group-11">
                    <path d="M30.0027423,5.5 C29.9762612,5.50000882 29.9762612,5.50000882 29.9497801,5.50005292 C15.3142635,5.52930311 3.473545,17.4174455 3.50279518,32.0529621 L3.94581065,253.718592 C3.97501951,268.33343 15.8308906,280.165629 30.4457577,280.165629 L681.288404,280.165629 C695.895845,280.165629 707.748626,268.345002 707.788306,253.737614 L708.390444,32.0719849 C708.390525,32.0359925 708.390525,32.0359925 708.390541,32 C708.390541,17.3644541 696.526087,5.5 681.890541,5.5 L30.0027423,5.5 Z" id="Rectangle" stroke="#9DD8FF" stroke-width="5" fill="#269FFF"></path>
                    <path d="M53.0148786,56 L656.140783,56 C664.977339,56 672.140783,63.163444 672.140783,72 C672.140783,72.0755842 672.140247,72.1511674 672.139176,72.226744 L669.941173,227.311462 C669.817199,236.058717 662.690913,243.084718 653.942779,243.084718 L54.5060871,243.084718 C45.7295506,243.084718 38.5912131,236.014689 38.5068267,227.238558 L37.0156182,72.15384 C36.9306547,63.3176925 44.024891,56.0857031 52.8610386,56.0007396 C52.9123171,56.0002465 52.9635977,56 53.0148786,56 Z" id="Rectangle" fill="#002E74"></path>
                    <path d="M37,75.1755181 L37,67 C37,58.163444 44.163444,51 53,51 L656.221501,51 C665.058057,51 672.221501,58.163444 672.221501,67 L672.221501,75.1755181 C672.221501,66.3389621 665.058057,59.1755181 656.221501,59.1755181 L53,59.1755181 C44.163444,59.1755181 37,66.3389621 37,75.1755181 Z" id="Combined-Shape" fill="#190C2B"></path>
                    <path d="M37,66.4888428 L37,55 C37,46.163444 44.163444,39 53,39 L656.221501,39 C665.058057,39 672.221501,46.163444 672.221501,55 L672.221501,66.4888428 C672.221501,57.6522868 665.058057,50.4888428 656.221501,50.4888428 L53,50.4888428 C44.163444,50.4888428 37,57.6522868 37,66.4888428 Z" id="Combined-Shape" fill="#9DD8FF"></path>
                    <path d="M37,69.4888428 L37,58 C37,49.163444 44.163444,42 53,42 L656.221501,42 C665.058057,42 672.221501,49.163444 672.221501,58 L672.221501,69.4888428 C672.221501,60.6522868 665.058057,53.4888428 656.221501,53.4888428 L53,53.4888428 C44.163444,53.4888428 37,60.6522868 37,69.4888428 Z" id="Combined-Shape" fill="#0247B4"></path>
                    <g id="Group-10" transform="translate(8.000000, 0.000000)">
                        <g id="Group-9">
                            <g id="Group-2-Copy">
                                <path d="M46,23.5 C46,36.4775428 35.7029352,47 23,47 C10.2970648,47 0,36.4775428 0,23.5 C0,10.520914 10.2970648,0 23,0 C35.7029352,0 46,10.520914 46,23.5" id="Fill-4" fill-opacity="0.2" fill="#FFF78D"></path>
                                <path d="M40.7213115,23.8852459 C40.7213115,34.0970829 32.6187031,42.3770492 22.6229508,42.3770492 C12.6271985,42.3770492 4.52459016,34.0970829 4.52459016,23.8852459 C4.52459016,13.6721947 12.6271985,5.39344262 22.6229508,5.39344262 C32.6187031,5.39344262 40.7213115,13.6721947 40.7213115,23.8852459" id="Fill-4" fill-opacity="0.4" fill="#FFF78D"></path>
                                <path d="M36.9508197,23.8858512 C36.9508197,31.9708704 30.5362756,38.5245902 22.6229508,38.5245902 C14.7096261,38.5245902 8.29508197,31.9708704 8.29508197,23.8858512 C8.29508197,15.7996214 14.7096261,9.24590164 22.6229508,9.24590164 C30.5362756,9.24590164 36.9508197,15.7996214 36.9508197,23.8858512" id="Fill-6" fill-opacity="0.6" fill="#FFF78D"></path>
                                <path d="M33.9344262,24.271095 C33.9344262,30.4401042 29.0392604,35.442623 23,35.442623 C16.9619203,35.442623 12.0655738,30.4401042 12.0655738,24.271095 C12.0655738,18.1008795 16.9619203,13.0983607 23,13.0983607 C29.0392604,13.0983607 33.9344262,18.1008795 33.9344262,24.271095" id="Fill-8" fill="#F9CD41"></path>
                                <path d="M29.4098361,20.4186084 C29.4098361,22.3321094 27.8906196,23.8852459 26.0163934,23.8852459 C24.1421672,23.8852459 22.6229508,22.3321094 22.6229508,20.4186084 C22.6229508,18.5039561 24.1421672,16.9508197 26.0163934,16.9508197 C27.8906196,16.9508197 29.4098361,18.5039561 29.4098361,20.4186084" id="Fill-10" fill="#FFF2CF"></path>
                                <path d="M23.3770492,29.6645591 C23.3770492,31.1525346 22.1958555,32.3606557 20.7370935,32.3606557 C19.2795543,32.3606557 18.0983607,31.1525346 18.0983607,29.6645591 C18.0983607,28.1753343 19.2795543,26.9672131 20.7370935,26.9672131 C22.1958555,26.9672131 23.3770492,28.1753343 23.3770492,29.6645591" id="Fill-12" fill="#FFF3D2"></path>
                                <path d="M23,13.5514356 C17.2150126,13.5514356 12.5089475,18.3600528 12.5089475,24.2711036 C12.5089475,30.1821544 17.2150126,34.989548 23,34.989548 C28.7849874,34.989548 33.4910525,30.1821544 33.4910525,24.2711036 C33.4910525,18.3600528 28.7849874,13.5514356 23,13.5514356 M23,36.2131148 C16.5552055,36.2131148 11.3114754,30.8563397 11.3114754,24.2711036 C11.3114754,17.6858675 16.5552055,12.3278689 23,12.3278689 C29.4447945,12.3278689 34.6885246,17.6858675 34.6885246,24.2711036 C34.6885246,30.8563397 29.4447945,36.2131148 23,36.2131148" id="Fill-14" fill="#FFA143"></path>
                                <path d="M22.6229508,13.9603533 C17.2668755,13.9603533 12.9091115,18.4130683 12.9091115,23.8858466 C12.9091115,29.3574235 17.2668755,33.8101385 22.6229508,33.8101385 C27.9790261,33.8101385 32.3367901,29.3574235 32.3367901,23.8858466 C32.3367901,18.4130683 27.9790261,13.9603533 22.6229508,13.9603533 M11.7332443,23.8858466 C11.7332443,30.020645 16.6189727,35.0116266 22.6229508,35.0116266 C28.626929,35.0116266 33.5126573,30.020645 33.5126573,23.8858466 C33.5126573,30.020645 28.626929,35.0116266 22.6229508,35.0116266 C16.6189727,35.0116266 11.7332443,30.020645 11.7332443,23.8858466 M22.6229508,36.2131148 C15.969894,36.2131148 10.557377,30.6838664 10.557377,23.8858466 C10.557377,17.0878269 15.969894,11.557377 22.6229508,11.557377 C29.2760077,11.557377 34.6885246,17.0878269 34.6885246,23.8858466 C34.6885246,30.6838664 29.2760077,36.2131148 22.6229508,36.2131148" id="Fill-16" fill="#FFA143"></path>
                            </g>
                            <g id="Group-2-Copy-2" transform="translate(128.000000, 0.000000)">
                                <path d="M46,23.5 C46,36.4775428 35.7029352,47 23,47 C10.2970648,47 0,36.4775428 0,23.5 C0,10.520914 10.2970648,0 23,0 C35.7029352,0 46,10.520914 46,23.5" id="Fill-4" fill-opacity="0.2" fill="#FFF78D"></path>
                                <path d="M40.7213115,23.8852459 C40.7213115,34.0970829 32.6187031,42.3770492 22.6229508,42.3770492 C12.6271985,42.3770492 4.52459016,34.0970829 4.52459016,23.8852459 C4.52459016,13.6721947 12.6271985,5.39344262 22.6229508,5.39344262 C32.6187031,5.39344262 40.7213115,13.6721947 40.7213115,23.8852459" id="Fill-4" fill-opacity="0.4" fill="#FFF78D"></path>
                                <path d="M36.9508197,23.8858512 C36.9508197,31.9708704 30.5362756,38.5245902 22.6229508,38.5245902 C14.7096261,38.5245902 8.29508197,31.9708704 8.29508197,23.8858512 C8.29508197,15.7996214 14.7096261,9.24590164 22.6229508,9.24590164 C30.5362756,9.24590164 36.9508197,15.7996214 36.9508197,23.8858512" id="Fill-6" fill-opacity="0.6" fill="#FFF78D"></path>
                                <path d="M33.9344262,24.271095 C33.9344262,30.4401042 29.0392604,35.442623 23,35.442623 C16.9619203,35.442623 12.0655738,30.4401042 12.0655738,24.271095 C12.0655738,18.1008795 16.9619203,13.0983607 23,13.0983607 C29.0392604,13.0983607 33.9344262,18.1008795 33.9344262,24.271095" id="Fill-8" fill="#F9CD41"></path>
                                <path d="M29.4098361,20.4186084 C29.4098361,22.3321094 27.8906196,23.8852459 26.0163934,23.8852459 C24.1421672,23.8852459 22.6229508,22.3321094 22.6229508,20.4186084 C22.6229508,18.5039561 24.1421672,16.9508197 26.0163934,16.9508197 C27.8906196,16.9508197 29.4098361,18.5039561 29.4098361,20.4186084" id="Fill-10" fill="#FFF2CF"></path>
                                <path d="M23.3770492,29.6645591 C23.3770492,31.1525346 22.1958555,32.3606557 20.7370935,32.3606557 C19.2795543,32.3606557 18.0983607,31.1525346 18.0983607,29.6645591 C18.0983607,28.1753343 19.2795543,26.9672131 20.7370935,26.9672131 C22.1958555,26.9672131 23.3770492,28.1753343 23.3770492,29.6645591" id="Fill-12" fill="#FFF3D2"></path>
                                <path d="M23,13.5514356 C17.2150126,13.5514356 12.5089475,18.3600528 12.5089475,24.2711036 C12.5089475,30.1821544 17.2150126,34.989548 23,34.989548 C28.7849874,34.989548 33.4910525,30.1821544 33.4910525,24.2711036 C33.4910525,18.3600528 28.7849874,13.5514356 23,13.5514356 M23,36.2131148 C16.5552055,36.2131148 11.3114754,30.8563397 11.3114754,24.2711036 C11.3114754,17.6858675 16.5552055,12.3278689 23,12.3278689 C29.4447945,12.3278689 34.6885246,17.6858675 34.6885246,24.2711036 C34.6885246,30.8563397 29.4447945,36.2131148 23,36.2131148" id="Fill-14" fill="#FFA143"></path>
                                <path d="M22.6229508,13.9603533 C17.2668755,13.9603533 12.9091115,18.4130683 12.9091115,23.8858466 C12.9091115,29.3574235 17.2668755,33.8101385 22.6229508,33.8101385 C27.9790261,33.8101385 32.3367901,29.3574235 32.3367901,23.8858466 C32.3367901,18.4130683 27.9790261,13.9603533 22.6229508,13.9603533 M11.7332443,23.8858466 C11.7332443,30.020645 16.6189727,35.0116266 22.6229508,35.0116266 C28.626929,35.0116266 33.5126573,30.020645 33.5126573,23.8858466 C33.5126573,30.020645 28.626929,35.0116266 22.6229508,35.0116266 C16.6189727,35.0116266 11.7332443,30.020645 11.7332443,23.8858466 M22.6229508,36.2131148 C15.969894,36.2131148 10.557377,30.6838664 10.557377,23.8858466 C10.557377,17.0878269 15.969894,11.557377 22.6229508,11.557377 C29.2760077,11.557377 34.6885246,17.0878269 34.6885246,23.8858466 C34.6885246,30.6838664 29.2760077,36.2131148 22.6229508,36.2131148" id="Fill-16" fill="#FFA143"></path>
                            </g>
                            <g id="Group-2-Copy-3" transform="translate(266.000000, 0.000000)">
                                <path d="M46,23.5 C46,36.4775428 35.7029352,47 23,47 C10.2970648,47 0,36.4775428 0,23.5 C0,10.520914 10.2970648,0 23,0 C35.7029352,0 46,10.520914 46,23.5" id="Fill-4" fill-opacity="0.2" fill="#FFF78D"></path>
                                <path d="M40.7213115,23.8852459 C40.7213115,34.0970829 32.6187031,42.3770492 22.6229508,42.3770492 C12.6271985,42.3770492 4.52459016,34.0970829 4.52459016,23.8852459 C4.52459016,13.6721947 12.6271985,5.39344262 22.6229508,5.39344262 C32.6187031,5.39344262 40.7213115,13.6721947 40.7213115,23.8852459" id="Fill-4" fill-opacity="0.4" fill="#FFF78D"></path>
                                <path d="M36.9508197,23.8858512 C36.9508197,31.9708704 30.5362756,38.5245902 22.6229508,38.5245902 C14.7096261,38.5245902 8.29508197,31.9708704 8.29508197,23.8858512 C8.29508197,15.7996214 14.7096261,9.24590164 22.6229508,9.24590164 C30.5362756,9.24590164 36.9508197,15.7996214 36.9508197,23.8858512" id="Fill-6" fill-opacity="0.6" fill="#FFF78D"></path>
                                <path d="M33.9344262,24.271095 C33.9344262,30.4401042 29.0392604,35.442623 23,35.442623 C16.9619203,35.442623 12.0655738,30.4401042 12.0655738,24.271095 C12.0655738,18.1008795 16.9619203,13.0983607 23,13.0983607 C29.0392604,13.0983607 33.9344262,18.1008795 33.9344262,24.271095" id="Fill-8" fill="#F9CD41"></path>
                                <path d="M29.4098361,20.4186084 C29.4098361,22.3321094 27.8906196,23.8852459 26.0163934,23.8852459 C24.1421672,23.8852459 22.6229508,22.3321094 22.6229508,20.4186084 C22.6229508,18.5039561 24.1421672,16.9508197 26.0163934,16.9508197 C27.8906196,16.9508197 29.4098361,18.5039561 29.4098361,20.4186084" id="Fill-10" fill="#FFF2CF"></path>
                                <path d="M23.3770492,29.6645591 C23.3770492,31.1525346 22.1958555,32.3606557 20.7370935,32.3606557 C19.2795543,32.3606557 18.0983607,31.1525346 18.0983607,29.6645591 C18.0983607,28.1753343 19.2795543,26.9672131 20.7370935,26.9672131 C22.1958555,26.9672131 23.3770492,28.1753343 23.3770492,29.6645591" id="Fill-12" fill="#FFF3D2"></path>
                                <path d="M23,13.5514356 C17.2150126,13.5514356 12.5089475,18.3600528 12.5089475,24.2711036 C12.5089475,30.1821544 17.2150126,34.989548 23,34.989548 C28.7849874,34.989548 33.4910525,30.1821544 33.4910525,24.2711036 C33.4910525,18.3600528 28.7849874,13.5514356 23,13.5514356 M23,36.2131148 C16.5552055,36.2131148 11.3114754,30.8563397 11.3114754,24.2711036 C11.3114754,17.6858675 16.5552055,12.3278689 23,12.3278689 C29.4447945,12.3278689 34.6885246,17.6858675 34.6885246,24.2711036 C34.6885246,30.8563397 29.4447945,36.2131148 23,36.2131148" id="Fill-14" fill="#FFA143"></path>
                                <path d="M22.6229508,13.9603533 C17.2668755,13.9603533 12.9091115,18.4130683 12.9091115,23.8858466 C12.9091115,29.3574235 17.2668755,33.8101385 22.6229508,33.8101385 C27.9790261,33.8101385 32.3367901,29.3574235 32.3367901,23.8858466 C32.3367901,18.4130683 27.9790261,13.9603533 22.6229508,13.9603533 M11.7332443,23.8858466 C11.7332443,30.020645 16.6189727,35.0116266 22.6229508,35.0116266 C28.626929,35.0116266 33.5126573,30.020645 33.5126573,23.8858466 C33.5126573,30.020645 28.626929,35.0116266 22.6229508,35.0116266 C16.6189727,35.0116266 11.7332443,30.020645 11.7332443,23.8858466 M22.6229508,36.2131148 C15.969894,36.2131148 10.557377,30.6838664 10.557377,23.8858466 C10.557377,17.0878269 15.969894,11.557377 22.6229508,11.557377 C29.2760077,11.557377 34.6885246,17.0878269 34.6885246,23.8858466 C34.6885246,30.6838664 29.2760077,36.2131148 22.6229508,36.2131148" id="Fill-16" fill="#FFA143"></path>
                            </g>
                            <g id="Group-2-Copy-2" transform="translate(548.000000, 23.500000) scale(-1, 1) translate(-548.000000, -23.500000) translate(525.000000, 0.000000)">
                                <path d="M46,23.5 C46,36.4775428 35.7029352,47 23,47 C10.2970648,47 0,36.4775428 0,23.5 C0,10.520914 10.2970648,0 23,0 C35.7029352,0 46,10.520914 46,23.5" id="Fill-4" fill-opacity="0.2" fill="#FFF78D"></path>
                                <path d="M40.7213115,23.8852459 C40.7213115,34.0970829 32.6187031,42.3770492 22.6229508,42.3770492 C12.6271985,42.3770492 4.52459016,34.0970829 4.52459016,23.8852459 C4.52459016,13.6721947 12.6271985,5.39344262 22.6229508,5.39344262 C32.6187031,5.39344262 40.7213115,13.6721947 40.7213115,23.8852459" id="Fill-4" fill-opacity="0.4" fill="#FFF78D"></path>
                                <path d="M36.9508197,23.8858512 C36.9508197,31.9708704 30.5362756,38.5245902 22.6229508,38.5245902 C14.7096261,38.5245902 8.29508197,31.9708704 8.29508197,23.8858512 C8.29508197,15.7996214 14.7096261,9.24590164 22.6229508,9.24590164 C30.5362756,9.24590164 36.9508197,15.7996214 36.9508197,23.8858512" id="Fill-6" fill-opacity="0.6" fill="#FFF78D"></path>
                                <path d="M33.9344262,24.271095 C33.9344262,30.4401042 29.0392604,35.442623 23,35.442623 C16.9619203,35.442623 12.0655738,30.4401042 12.0655738,24.271095 C12.0655738,18.1008795 16.9619203,13.0983607 23,13.0983607 C29.0392604,13.0983607 33.9344262,18.1008795 33.9344262,24.271095" id="Fill-8" fill="#F9CD41"></path>
                                <path d="M29.4098361,20.4186084 C29.4098361,22.3321094 27.8906196,23.8852459 26.0163934,23.8852459 C24.1421672,23.8852459 22.6229508,22.3321094 22.6229508,20.4186084 C22.6229508,18.5039561 24.1421672,16.9508197 26.0163934,16.9508197 C27.8906196,16.9508197 29.4098361,18.5039561 29.4098361,20.4186084" id="Fill-10" fill="#FFF2CF"></path>
                                <path d="M23.3770492,29.6645591 C23.3770492,31.1525346 22.1958555,32.3606557 20.7370935,32.3606557 C19.2795543,32.3606557 18.0983607,31.1525346 18.0983607,29.6645591 C18.0983607,28.1753343 19.2795543,26.9672131 20.7370935,26.9672131 C22.1958555,26.9672131 23.3770492,28.1753343 23.3770492,29.6645591" id="Fill-12" fill="#FFF3D2"></path>
                                <path d="M23,13.5514356 C17.2150126,13.5514356 12.5089475,18.3600528 12.5089475,24.2711036 C12.5089475,30.1821544 17.2150126,34.989548 23,34.989548 C28.7849874,34.989548 33.4910525,30.1821544 33.4910525,24.2711036 C33.4910525,18.3600528 28.7849874,13.5514356 23,13.5514356 M23,36.2131148 C16.5552055,36.2131148 11.3114754,30.8563397 11.3114754,24.2711036 C11.3114754,17.6858675 16.5552055,12.3278689 23,12.3278689 C29.4447945,12.3278689 34.6885246,17.6858675 34.6885246,24.2711036 C34.6885246,30.8563397 29.4447945,36.2131148 23,36.2131148" id="Fill-14" fill="#FFA143"></path>
                                <path d="M22.6229508,13.9603533 C17.2668755,13.9603533 12.9091115,18.4130683 12.9091115,23.8858466 C12.9091115,29.3574235 17.2668755,33.8101385 22.6229508,33.8101385 C27.9790261,33.8101385 32.3367901,29.3574235 32.3367901,23.8858466 C32.3367901,18.4130683 27.9790261,13.9603533 22.6229508,13.9603533 M11.7332443,23.8858466 C11.7332443,30.020645 16.6189727,35.0116266 22.6229508,35.0116266 C28.626929,35.0116266 33.5126573,30.020645 33.5126573,23.8858466 C33.5126573,30.020645 28.626929,35.0116266 22.6229508,35.0116266 C16.6189727,35.0116266 11.7332443,30.020645 11.7332443,23.8858466 M22.6229508,36.2131148 C15.969894,36.2131148 10.557377,30.6838664 10.557377,23.8858466 C10.557377,17.0878269 15.969894,11.557377 22.6229508,11.557377 C29.2760077,11.557377 34.6885246,17.0878269 34.6885246,23.8858466 C34.6885246,30.6838664 29.2760077,36.2131148 22.6229508,36.2131148" id="Fill-16" fill="#FFA143"></path>
                            </g>
                            <g id="Group-2-Copy-3" transform="translate(420.000000, 23.500000) scale(-1, 1) translate(-420.000000, -23.500000) translate(397.000000, 0.000000)">
                                <path d="M46,23.5 C46,36.4775428 35.7029352,47 23,47 C10.2970648,47 0,36.4775428 0,23.5 C0,10.520914 10.2970648,0 23,0 C35.7029352,0 46,10.520914 46,23.5" id="Fill-4" fill-opacity="0.2" fill="#FFF78D"></path>
                                <path d="M40.7213115,23.8852459 C40.7213115,34.0970829 32.6187031,42.3770492 22.6229508,42.3770492 C12.6271985,42.3770492 4.52459016,34.0970829 4.52459016,23.8852459 C4.52459016,13.6721947 12.6271985,5.39344262 22.6229508,5.39344262 C32.6187031,5.39344262 40.7213115,13.6721947 40.7213115,23.8852459" id="Fill-4" fill-opacity="0.4" fill="#FFF78D"></path>
                                <path d="M36.9508197,23.8858512 C36.9508197,31.9708704 30.5362756,38.5245902 22.6229508,38.5245902 C14.7096261,38.5245902 8.29508197,31.9708704 8.29508197,23.8858512 C8.29508197,15.7996214 14.7096261,9.24590164 22.6229508,9.24590164 C30.5362756,9.24590164 36.9508197,15.7996214 36.9508197,23.8858512" id="Fill-6" fill-opacity="0.6" fill="#FFF78D"></path>
                                <path d="M33.9344262,24.271095 C33.9344262,30.4401042 29.0392604,35.442623 23,35.442623 C16.9619203,35.442623 12.0655738,30.4401042 12.0655738,24.271095 C12.0655738,18.1008795 16.9619203,13.0983607 23,13.0983607 C29.0392604,13.0983607 33.9344262,18.1008795 33.9344262,24.271095" id="Fill-8" fill="#F9CD41"></path>
                                <path d="M29.4098361,20.4186084 C29.4098361,22.3321094 27.8906196,23.8852459 26.0163934,23.8852459 C24.1421672,23.8852459 22.6229508,22.3321094 22.6229508,20.4186084 C22.6229508,18.5039561 24.1421672,16.9508197 26.0163934,16.9508197 C27.8906196,16.9508197 29.4098361,18.5039561 29.4098361,20.4186084" id="Fill-10" fill="#FFF2CF"></path>
                                <path d="M23.3770492,29.6645591 C23.3770492,31.1525346 22.1958555,32.3606557 20.7370935,32.3606557 C19.2795543,32.3606557 18.0983607,31.1525346 18.0983607,29.6645591 C18.0983607,28.1753343 19.2795543,26.9672131 20.7370935,26.9672131 C22.1958555,26.9672131 23.3770492,28.1753343 23.3770492,29.6645591" id="Fill-12" fill="#FFF3D2"></path>
                                <path d="M23,13.5514356 C17.2150126,13.5514356 12.5089475,18.3600528 12.5089475,24.2711036 C12.5089475,30.1821544 17.2150126,34.989548 23,34.989548 C28.7849874,34.989548 33.4910525,30.1821544 33.4910525,24.2711036 C33.4910525,18.3600528 28.7849874,13.5514356 23,13.5514356 M23,36.2131148 C16.5552055,36.2131148 11.3114754,30.8563397 11.3114754,24.2711036 C11.3114754,17.6858675 16.5552055,12.3278689 23,12.3278689 C29.4447945,12.3278689 34.6885246,17.6858675 34.6885246,24.2711036 C34.6885246,30.8563397 29.4447945,36.2131148 23,36.2131148" id="Fill-14" fill="#FFA143"></path>
                                <path d="M22.6229508,13.9603533 C17.2668755,13.9603533 12.9091115,18.4130683 12.9091115,23.8858466 C12.9091115,29.3574235 17.2668755,33.8101385 22.6229508,33.8101385 C27.9790261,33.8101385 32.3367901,29.3574235 32.3367901,23.8858466 C32.3367901,18.4130683 27.9790261,13.9603533 22.6229508,13.9603533 M11.7332443,23.8858466 C11.7332443,30.020645 16.6189727,35.0116266 22.6229508,35.0116266 C28.626929,35.0116266 33.5126573,30.020645 33.5126573,23.8858466 C33.5126573,30.020645 28.626929,35.0116266 22.6229508,35.0116266 C16.6189727,35.0116266 11.7332443,30.020645 11.7332443,23.8858466 M22.6229508,36.2131148 C15.969894,36.2131148 10.557377,30.6838664 10.557377,23.8858466 C10.557377,17.0878269 15.969894,11.557377 22.6229508,11.557377 C29.2760077,11.557377 34.6885246,17.0878269 34.6885246,23.8858466 C34.6885246,30.6838664 29.2760077,36.2131148 22.6229508,36.2131148" id="Fill-16" fill="#FFA143"></path>
                            </g>
                            <g id="Group-2" transform="translate(651.000000, 0.000000)">
                                <path d="M46,23.5 C46,36.4775428 35.7029352,47 23,47 C10.2970648,47 0,36.4775428 0,23.5 C0,10.520914 10.2970648,0 23,0 C35.7029352,0 46,10.520914 46,23.5" id="Fill-4" fill-opacity="0.2" fill="#FFF78D"></path>
                                <path d="M40.7213115,23.8852459 C40.7213115,34.0970829 32.6187031,42.3770492 22.6229508,42.3770492 C12.6271985,42.3770492 4.52459016,34.0970829 4.52459016,23.8852459 C4.52459016,13.6721947 12.6271985,5.39344262 22.6229508,5.39344262 C32.6187031,5.39344262 40.7213115,13.6721947 40.7213115,23.8852459" id="Fill-4" fill-opacity="0.4" fill="#FFF78D"></path>
                                <path d="M36.9508197,23.8858512 C36.9508197,31.9708704 30.5362756,38.5245902 22.6229508,38.5245902 C14.7096261,38.5245902 8.29508197,31.9708704 8.29508197,23.8858512 C8.29508197,15.7996214 14.7096261,9.24590164 22.6229508,9.24590164 C30.5362756,9.24590164 36.9508197,15.7996214 36.9508197,23.8858512" id="Fill-6" fill-opacity="0.6" fill="#FFF78D"></path>
                                <path d="M33.9344262,24.271095 C33.9344262,30.4401042 29.0392604,35.442623 23,35.442623 C16.9619203,35.442623 12.0655738,30.4401042 12.0655738,24.271095 C12.0655738,18.1008795 16.9619203,13.0983607 23,13.0983607 C29.0392604,13.0983607 33.9344262,18.1008795 33.9344262,24.271095" id="Fill-8" fill="#F9CD41"></path>
                                <path d="M29.4098361,20.4186084 C29.4098361,22.3321094 27.8906196,23.8852459 26.0163934,23.8852459 C24.1421672,23.8852459 22.6229508,22.3321094 22.6229508,20.4186084 C22.6229508,18.5039561 24.1421672,16.9508197 26.0163934,16.9508197 C27.8906196,16.9508197 29.4098361,18.5039561 29.4098361,20.4186084" id="Fill-10" fill="#FFF2CF"></path>
                                <path d="M23.3770492,29.6645591 C23.3770492,31.1525346 22.1958555,32.3606557 20.7370935,32.3606557 C19.2795543,32.3606557 18.0983607,31.1525346 18.0983607,29.6645591 C18.0983607,28.1753343 19.2795543,26.9672131 20.7370935,26.9672131 C22.1958555,26.9672131 23.3770492,28.1753343 23.3770492,29.6645591" id="Fill-12" fill="#FFF3D2"></path>
                                <path d="M23,13.5514356 C17.2150126,13.5514356 12.5089475,18.3600528 12.5089475,24.2711036 C12.5089475,30.1821544 17.2150126,34.989548 23,34.989548 C28.7849874,34.989548 33.4910525,30.1821544 33.4910525,24.2711036 C33.4910525,18.3600528 28.7849874,13.5514356 23,13.5514356 M23,36.2131148 C16.5552055,36.2131148 11.3114754,30.8563397 11.3114754,24.2711036 C11.3114754,17.6858675 16.5552055,12.3278689 23,12.3278689 C29.4447945,12.3278689 34.6885246,17.6858675 34.6885246,24.2711036 C34.6885246,30.8563397 29.4447945,36.2131148 23,36.2131148" id="Fill-14" fill="#FFA143"></path>
                                <path d="M22.6229508,13.9603533 C17.2668755,13.9603533 12.9091115,18.4130683 12.9091115,23.8858466 C12.9091115,29.3574235 17.2668755,33.8101385 22.6229508,33.8101385 C27.9790261,33.8101385 32.3367901,29.3574235 32.3367901,23.8858466 C32.3367901,18.4130683 27.9790261,13.9603533 22.6229508,13.9603533 M11.7332443,23.8858466 C11.7332443,30.020645 16.6189727,35.0116266 22.6229508,35.0116266 C28.626929,35.0116266 33.5126573,30.020645 33.5126573,23.8858466 C33.5126573,30.020645 28.626929,35.0116266 22.6229508,35.0116266 C16.6189727,35.0116266 11.7332443,30.020645 11.7332443,23.8858466 M22.6229508,36.2131148 C15.969894,36.2131148 10.557377,30.6838664 10.557377,23.8858466 C10.557377,17.0878269 15.969894,11.557377 22.6229508,11.557377 C29.2760077,11.557377 34.6885246,17.0878269 34.6885246,23.8858466 C34.6885246,30.6838664 29.2760077,36.2131148 22.6229508,36.2131148" id="Fill-16" fill="#FFA143"></path>
                            </g>
                        </g>
                    </g>
                    <g id="Group-10" transform="translate(8.000000, 229.000000)">
                        <g id="Group-9">
                            <g id="Group-2-Copy">
                                <path d="M46,23.5 C46,36.4775428 35.7029352,47 23,47 C10.2970648,47 0,36.4775428 0,23.5 C0,10.520914 10.2970648,0 23,0 C35.7029352,0 46,10.520914 46,23.5" id="Fill-4" fill-opacity="0.2" fill="#FFF78D"></path>
                                <path d="M40.7213115,23.8852459 C40.7213115,34.0970829 32.6187031,42.3770492 22.6229508,42.3770492 C12.6271985,42.3770492 4.52459016,34.0970829 4.52459016,23.8852459 C4.52459016,13.6721947 12.6271985,5.39344262 22.6229508,5.39344262 C32.6187031,5.39344262 40.7213115,13.6721947 40.7213115,23.8852459" id="Fill-4" fill-opacity="0.4" fill="#FFF78D"></path>
                                <path d="M36.9508197,23.8858512 C36.9508197,31.9708704 30.5362756,38.5245902 22.6229508,38.5245902 C14.7096261,38.5245902 8.29508197,31.9708704 8.29508197,23.8858512 C8.29508197,15.7996214 14.7096261,9.24590164 22.6229508,9.24590164 C30.5362756,9.24590164 36.9508197,15.7996214 36.9508197,23.8858512" id="Fill-6" fill-opacity="0.6" fill="#FFF78D"></path>
                                <path d="M33.9344262,24.271095 C33.9344262,30.4401042 29.0392604,35.442623 23,35.442623 C16.9619203,35.442623 12.0655738,30.4401042 12.0655738,24.271095 C12.0655738,18.1008795 16.9619203,13.0983607 23,13.0983607 C29.0392604,13.0983607 33.9344262,18.1008795 33.9344262,24.271095" id="Fill-8" fill="#F9CD41"></path>
                                <path d="M29.4098361,20.4186084 C29.4098361,22.3321094 27.8906196,23.8852459 26.0163934,23.8852459 C24.1421672,23.8852459 22.6229508,22.3321094 22.6229508,20.4186084 C22.6229508,18.5039561 24.1421672,16.9508197 26.0163934,16.9508197 C27.8906196,16.9508197 29.4098361,18.5039561 29.4098361,20.4186084" id="Fill-10" fill="#FFF2CF"></path>
                                <path d="M23.3770492,29.6645591 C23.3770492,31.1525346 22.1958555,32.3606557 20.7370935,32.3606557 C19.2795543,32.3606557 18.0983607,31.1525346 18.0983607,29.6645591 C18.0983607,28.1753343 19.2795543,26.9672131 20.7370935,26.9672131 C22.1958555,26.9672131 23.3770492,28.1753343 23.3770492,29.6645591" id="Fill-12" fill="#FFF3D2"></path>
                                <path d="M23,13.5514356 C17.2150126,13.5514356 12.5089475,18.3600528 12.5089475,24.2711036 C12.5089475,30.1821544 17.2150126,34.989548 23,34.989548 C28.7849874,34.989548 33.4910525,30.1821544 33.4910525,24.2711036 C33.4910525,18.3600528 28.7849874,13.5514356 23,13.5514356 M23,36.2131148 C16.5552055,36.2131148 11.3114754,30.8563397 11.3114754,24.2711036 C11.3114754,17.6858675 16.5552055,12.3278689 23,12.3278689 C29.4447945,12.3278689 34.6885246,17.6858675 34.6885246,24.2711036 C34.6885246,30.8563397 29.4447945,36.2131148 23,36.2131148" id="Fill-14" fill="#FFA143"></path>
                                <path d="M22.6229508,13.9603533 C17.2668755,13.9603533 12.9091115,18.4130683 12.9091115,23.8858466 C12.9091115,29.3574235 17.2668755,33.8101385 22.6229508,33.8101385 C27.9790261,33.8101385 32.3367901,29.3574235 32.3367901,23.8858466 C32.3367901,18.4130683 27.9790261,13.9603533 22.6229508,13.9603533 M11.7332443,23.8858466 C11.7332443,30.020645 16.6189727,35.0116266 22.6229508,35.0116266 C28.626929,35.0116266 33.5126573,30.020645 33.5126573,23.8858466 C33.5126573,30.020645 28.626929,35.0116266 22.6229508,35.0116266 C16.6189727,35.0116266 11.7332443,30.020645 11.7332443,23.8858466 M22.6229508,36.2131148 C15.969894,36.2131148 10.557377,30.6838664 10.557377,23.8858466 C10.557377,17.0878269 15.969894,11.557377 22.6229508,11.557377 C29.2760077,11.557377 34.6885246,17.0878269 34.6885246,23.8858466 C34.6885246,30.6838664 29.2760077,36.2131148 22.6229508,36.2131148" id="Fill-16" fill="#FFA143"></path>
                            </g>
                            <g id="Group-2-Copy-2" transform="translate(128.000000, 0.000000)">
                                <path d="M46,23.5 C46,36.4775428 35.7029352,47 23,47 C10.2970648,47 0,36.4775428 0,23.5 C0,10.520914 10.2970648,0 23,0 C35.7029352,0 46,10.520914 46,23.5" id="Fill-4" fill-opacity="0.2" fill="#FFF78D"></path>
                                <path d="M40.7213115,23.8852459 C40.7213115,34.0970829 32.6187031,42.3770492 22.6229508,42.3770492 C12.6271985,42.3770492 4.52459016,34.0970829 4.52459016,23.8852459 C4.52459016,13.6721947 12.6271985,5.39344262 22.6229508,5.39344262 C32.6187031,5.39344262 40.7213115,13.6721947 40.7213115,23.8852459" id="Fill-4" fill-opacity="0.4" fill="#FFF78D"></path>
                                <path d="M36.9508197,23.8858512 C36.9508197,31.9708704 30.5362756,38.5245902 22.6229508,38.5245902 C14.7096261,38.5245902 8.29508197,31.9708704 8.29508197,23.8858512 C8.29508197,15.7996214 14.7096261,9.24590164 22.6229508,9.24590164 C30.5362756,9.24590164 36.9508197,15.7996214 36.9508197,23.8858512" id="Fill-6" fill-opacity="0.6" fill="#FFF78D"></path>
                                <path d="M33.9344262,24.271095 C33.9344262,30.4401042 29.0392604,35.442623 23,35.442623 C16.9619203,35.442623 12.0655738,30.4401042 12.0655738,24.271095 C12.0655738,18.1008795 16.9619203,13.0983607 23,13.0983607 C29.0392604,13.0983607 33.9344262,18.1008795 33.9344262,24.271095" id="Fill-8" fill="#F9CD41"></path>
                                <path d="M29.4098361,20.4186084 C29.4098361,22.3321094 27.8906196,23.8852459 26.0163934,23.8852459 C24.1421672,23.8852459 22.6229508,22.3321094 22.6229508,20.4186084 C22.6229508,18.5039561 24.1421672,16.9508197 26.0163934,16.9508197 C27.8906196,16.9508197 29.4098361,18.5039561 29.4098361,20.4186084" id="Fill-10" fill="#FFF2CF"></path>
                                <path d="M23.3770492,29.6645591 C23.3770492,31.1525346 22.1958555,32.3606557 20.7370935,32.3606557 C19.2795543,32.3606557 18.0983607,31.1525346 18.0983607,29.6645591 C18.0983607,28.1753343 19.2795543,26.9672131 20.7370935,26.9672131 C22.1958555,26.9672131 23.3770492,28.1753343 23.3770492,29.6645591" id="Fill-12" fill="#FFF3D2"></path>
                                <path d="M23,13.5514356 C17.2150126,13.5514356 12.5089475,18.3600528 12.5089475,24.2711036 C12.5089475,30.1821544 17.2150126,34.989548 23,34.989548 C28.7849874,34.989548 33.4910525,30.1821544 33.4910525,24.2711036 C33.4910525,18.3600528 28.7849874,13.5514356 23,13.5514356 M23,36.2131148 C16.5552055,36.2131148 11.3114754,30.8563397 11.3114754,24.2711036 C11.3114754,17.6858675 16.5552055,12.3278689 23,12.3278689 C29.4447945,12.3278689 34.6885246,17.6858675 34.6885246,24.2711036 C34.6885246,30.8563397 29.4447945,36.2131148 23,36.2131148" id="Fill-14" fill="#FFA143"></path>
                                <path d="M22.6229508,13.9603533 C17.2668755,13.9603533 12.9091115,18.4130683 12.9091115,23.8858466 C12.9091115,29.3574235 17.2668755,33.8101385 22.6229508,33.8101385 C27.9790261,33.8101385 32.3367901,29.3574235 32.3367901,23.8858466 C32.3367901,18.4130683 27.9790261,13.9603533 22.6229508,13.9603533 M11.7332443,23.8858466 C11.7332443,30.020645 16.6189727,35.0116266 22.6229508,35.0116266 C28.626929,35.0116266 33.5126573,30.020645 33.5126573,23.8858466 C33.5126573,30.020645 28.626929,35.0116266 22.6229508,35.0116266 C16.6189727,35.0116266 11.7332443,30.020645 11.7332443,23.8858466 M22.6229508,36.2131148 C15.969894,36.2131148 10.557377,30.6838664 10.557377,23.8858466 C10.557377,17.0878269 15.969894,11.557377 22.6229508,11.557377 C29.2760077,11.557377 34.6885246,17.0878269 34.6885246,23.8858466 C34.6885246,30.6838664 29.2760077,36.2131148 22.6229508,36.2131148" id="Fill-16" fill="#FFA143"></path>
                            </g>
                            <g id="Group-2-Copy-3" transform="translate(266.000000, 0.000000)">
                                <path d="M46,23.5 C46,36.4775428 35.7029352,47 23,47 C10.2970648,47 0,36.4775428 0,23.5 C0,10.520914 10.2970648,0 23,0 C35.7029352,0 46,10.520914 46,23.5" id="Fill-4" fill-opacity="0.2" fill="#FFF78D"></path>
                                <path d="M40.7213115,23.8852459 C40.7213115,34.0970829 32.6187031,42.3770492 22.6229508,42.3770492 C12.6271985,42.3770492 4.52459016,34.0970829 4.52459016,23.8852459 C4.52459016,13.6721947 12.6271985,5.39344262 22.6229508,5.39344262 C32.6187031,5.39344262 40.7213115,13.6721947 40.7213115,23.8852459" id="Fill-4" fill-opacity="0.4" fill="#FFF78D"></path>
                                <path d="M36.9508197,23.8858512 C36.9508197,31.9708704 30.5362756,38.5245902 22.6229508,38.5245902 C14.7096261,38.5245902 8.29508197,31.9708704 8.29508197,23.8858512 C8.29508197,15.7996214 14.7096261,9.24590164 22.6229508,9.24590164 C30.5362756,9.24590164 36.9508197,15.7996214 36.9508197,23.8858512" id="Fill-6" fill-opacity="0.6" fill="#FFF78D"></path>
                                <path d="M33.9344262,24.271095 C33.9344262,30.4401042 29.0392604,35.442623 23,35.442623 C16.9619203,35.442623 12.0655738,30.4401042 12.0655738,24.271095 C12.0655738,18.1008795 16.9619203,13.0983607 23,13.0983607 C29.0392604,13.0983607 33.9344262,18.1008795 33.9344262,24.271095" id="Fill-8" fill="#F9CD41"></path>
                                <path d="M29.4098361,20.4186084 C29.4098361,22.3321094 27.8906196,23.8852459 26.0163934,23.8852459 C24.1421672,23.8852459 22.6229508,22.3321094 22.6229508,20.4186084 C22.6229508,18.5039561 24.1421672,16.9508197 26.0163934,16.9508197 C27.8906196,16.9508197 29.4098361,18.5039561 29.4098361,20.4186084" id="Fill-10" fill="#FFF2CF"></path>
                                <path d="M23.3770492,29.6645591 C23.3770492,31.1525346 22.1958555,32.3606557 20.7370935,32.3606557 C19.2795543,32.3606557 18.0983607,31.1525346 18.0983607,29.6645591 C18.0983607,28.1753343 19.2795543,26.9672131 20.7370935,26.9672131 C22.1958555,26.9672131 23.3770492,28.1753343 23.3770492,29.6645591" id="Fill-12" fill="#FFF3D2"></path>
                                <path d="M23,13.5514356 C17.2150126,13.5514356 12.5089475,18.3600528 12.5089475,24.2711036 C12.5089475,30.1821544 17.2150126,34.989548 23,34.989548 C28.7849874,34.989548 33.4910525,30.1821544 33.4910525,24.2711036 C33.4910525,18.3600528 28.7849874,13.5514356 23,13.5514356 M23,36.2131148 C16.5552055,36.2131148 11.3114754,30.8563397 11.3114754,24.2711036 C11.3114754,17.6858675 16.5552055,12.3278689 23,12.3278689 C29.4447945,12.3278689 34.6885246,17.6858675 34.6885246,24.2711036 C34.6885246,30.8563397 29.4447945,36.2131148 23,36.2131148" id="Fill-14" fill="#FFA143"></path>
                                <path d="M22.6229508,13.9603533 C17.2668755,13.9603533 12.9091115,18.4130683 12.9091115,23.8858466 C12.9091115,29.3574235 17.2668755,33.8101385 22.6229508,33.8101385 C27.9790261,33.8101385 32.3367901,29.3574235 32.3367901,23.8858466 C32.3367901,18.4130683 27.9790261,13.9603533 22.6229508,13.9603533 M11.7332443,23.8858466 C11.7332443,30.020645 16.6189727,35.0116266 22.6229508,35.0116266 C28.626929,35.0116266 33.5126573,30.020645 33.5126573,23.8858466 C33.5126573,30.020645 28.626929,35.0116266 22.6229508,35.0116266 C16.6189727,35.0116266 11.7332443,30.020645 11.7332443,23.8858466 M22.6229508,36.2131148 C15.969894,36.2131148 10.557377,30.6838664 10.557377,23.8858466 C10.557377,17.0878269 15.969894,11.557377 22.6229508,11.557377 C29.2760077,11.557377 34.6885246,17.0878269 34.6885246,23.8858466 C34.6885246,30.6838664 29.2760077,36.2131148 22.6229508,36.2131148" id="Fill-16" fill="#FFA143"></path>
                            </g>
                            <g id="Group-2-Copy-2" transform="translate(548.000000, 23.500000) scale(-1, 1) translate(-548.000000, -23.500000) translate(525.000000, 0.000000)">
                                <path d="M46,23.5 C46,36.4775428 35.7029352,47 23,47 C10.2970648,47 0,36.4775428 0,23.5 C0,10.520914 10.2970648,0 23,0 C35.7029352,0 46,10.520914 46,23.5" id="Fill-4" fill-opacity="0.2" fill="#FFF78D"></path>
                                <path d="M40.7213115,23.8852459 C40.7213115,34.0970829 32.6187031,42.3770492 22.6229508,42.3770492 C12.6271985,42.3770492 4.52459016,34.0970829 4.52459016,23.8852459 C4.52459016,13.6721947 12.6271985,5.39344262 22.6229508,5.39344262 C32.6187031,5.39344262 40.7213115,13.6721947 40.7213115,23.8852459" id="Fill-4" fill-opacity="0.4" fill="#FFF78D"></path>
                                <path d="M36.9508197,23.8858512 C36.9508197,31.9708704 30.5362756,38.5245902 22.6229508,38.5245902 C14.7096261,38.5245902 8.29508197,31.9708704 8.29508197,23.8858512 C8.29508197,15.7996214 14.7096261,9.24590164 22.6229508,9.24590164 C30.5362756,9.24590164 36.9508197,15.7996214 36.9508197,23.8858512" id="Fill-6" fill-opacity="0.6" fill="#FFF78D"></path>
                                <path d="M33.9344262,24.271095 C33.9344262,30.4401042 29.0392604,35.442623 23,35.442623 C16.9619203,35.442623 12.0655738,30.4401042 12.0655738,24.271095 C12.0655738,18.1008795 16.9619203,13.0983607 23,13.0983607 C29.0392604,13.0983607 33.9344262,18.1008795 33.9344262,24.271095" id="Fill-8" fill="#F9CD41"></path>
                                <path d="M29.4098361,20.4186084 C29.4098361,22.3321094 27.8906196,23.8852459 26.0163934,23.8852459 C24.1421672,23.8852459 22.6229508,22.3321094 22.6229508,20.4186084 C22.6229508,18.5039561 24.1421672,16.9508197 26.0163934,16.9508197 C27.8906196,16.9508197 29.4098361,18.5039561 29.4098361,20.4186084" id="Fill-10" fill="#FFF2CF"></path>
                                <path d="M23.3770492,29.6645591 C23.3770492,31.1525346 22.1958555,32.3606557 20.7370935,32.3606557 C19.2795543,32.3606557 18.0983607,31.1525346 18.0983607,29.6645591 C18.0983607,28.1753343 19.2795543,26.9672131 20.7370935,26.9672131 C22.1958555,26.9672131 23.3770492,28.1753343 23.3770492,29.6645591" id="Fill-12" fill="#FFF3D2"></path>
                                <path d="M23,13.5514356 C17.2150126,13.5514356 12.5089475,18.3600528 12.5089475,24.2711036 C12.5089475,30.1821544 17.2150126,34.989548 23,34.989548 C28.7849874,34.989548 33.4910525,30.1821544 33.4910525,24.2711036 C33.4910525,18.3600528 28.7849874,13.5514356 23,13.5514356 M23,36.2131148 C16.5552055,36.2131148 11.3114754,30.8563397 11.3114754,24.2711036 C11.3114754,17.6858675 16.5552055,12.3278689 23,12.3278689 C29.4447945,12.3278689 34.6885246,17.6858675 34.6885246,24.2711036 C34.6885246,30.8563397 29.4447945,36.2131148 23,36.2131148" id="Fill-14" fill="#FFA143"></path>
                                <path d="M22.6229508,13.9603533 C17.2668755,13.9603533 12.9091115,18.4130683 12.9091115,23.8858466 C12.9091115,29.3574235 17.2668755,33.8101385 22.6229508,33.8101385 C27.9790261,33.8101385 32.3367901,29.3574235 32.3367901,23.8858466 C32.3367901,18.4130683 27.9790261,13.9603533 22.6229508,13.9603533 M11.7332443,23.8858466 C11.7332443,30.020645 16.6189727,35.0116266 22.6229508,35.0116266 C28.626929,35.0116266 33.5126573,30.020645 33.5126573,23.8858466 C33.5126573,30.020645 28.626929,35.0116266 22.6229508,35.0116266 C16.6189727,35.0116266 11.7332443,30.020645 11.7332443,23.8858466 M22.6229508,36.2131148 C15.969894,36.2131148 10.557377,30.6838664 10.557377,23.8858466 C10.557377,17.0878269 15.969894,11.557377 22.6229508,11.557377 C29.2760077,11.557377 34.6885246,17.0878269 34.6885246,23.8858466 C34.6885246,30.6838664 29.2760077,36.2131148 22.6229508,36.2131148" id="Fill-16" fill="#FFA143"></path>
                            </g>
                            <g id="Group-2-Copy-3" transform="translate(420.000000, 23.500000) scale(-1, 1) translate(-420.000000, -23.500000) translate(397.000000, 0.000000)">
                                <path d="M46,23.5 C46,36.4775428 35.7029352,47 23,47 C10.2970648,47 0,36.4775428 0,23.5 C0,10.520914 10.2970648,0 23,0 C35.7029352,0 46,10.520914 46,23.5" id="Fill-4" fill-opacity="0.2" fill="#FFF78D"></path>
                                <path d="M40.7213115,23.8852459 C40.7213115,34.0970829 32.6187031,42.3770492 22.6229508,42.3770492 C12.6271985,42.3770492 4.52459016,34.0970829 4.52459016,23.8852459 C4.52459016,13.6721947 12.6271985,5.39344262 22.6229508,5.39344262 C32.6187031,5.39344262 40.7213115,13.6721947 40.7213115,23.8852459" id="Fill-4" fill-opacity="0.4" fill="#FFF78D"></path>
                                <path d="M36.9508197,23.8858512 C36.9508197,31.9708704 30.5362756,38.5245902 22.6229508,38.5245902 C14.7096261,38.5245902 8.29508197,31.9708704 8.29508197,23.8858512 C8.29508197,15.7996214 14.7096261,9.24590164 22.6229508,9.24590164 C30.5362756,9.24590164 36.9508197,15.7996214 36.9508197,23.8858512" id="Fill-6" fill-opacity="0.6" fill="#FFF78D"></path>
                                <path d="M33.9344262,24.271095 C33.9344262,30.4401042 29.0392604,35.442623 23,35.442623 C16.9619203,35.442623 12.0655738,30.4401042 12.0655738,24.271095 C12.0655738,18.1008795 16.9619203,13.0983607 23,13.0983607 C29.0392604,13.0983607 33.9344262,18.1008795 33.9344262,24.271095" id="Fill-8" fill="#F9CD41"></path>
                                <path d="M29.4098361,20.4186084 C29.4098361,22.3321094 27.8906196,23.8852459 26.0163934,23.8852459 C24.1421672,23.8852459 22.6229508,22.3321094 22.6229508,20.4186084 C22.6229508,18.5039561 24.1421672,16.9508197 26.0163934,16.9508197 C27.8906196,16.9508197 29.4098361,18.5039561 29.4098361,20.4186084" id="Fill-10" fill="#FFF2CF"></path>
                                <path d="M23.3770492,29.6645591 C23.3770492,31.1525346 22.1958555,32.3606557 20.7370935,32.3606557 C19.2795543,32.3606557 18.0983607,31.1525346 18.0983607,29.6645591 C18.0983607,28.1753343 19.2795543,26.9672131 20.7370935,26.9672131 C22.1958555,26.9672131 23.3770492,28.1753343 23.3770492,29.6645591" id="Fill-12" fill="#FFF3D2"></path>
                                <path d="M23,13.5514356 C17.2150126,13.5514356 12.5089475,18.3600528 12.5089475,24.2711036 C12.5089475,30.1821544 17.2150126,34.989548 23,34.989548 C28.7849874,34.989548 33.4910525,30.1821544 33.4910525,24.2711036 C33.4910525,18.3600528 28.7849874,13.5514356 23,13.5514356 M23,36.2131148 C16.5552055,36.2131148 11.3114754,30.8563397 11.3114754,24.2711036 C11.3114754,17.6858675 16.5552055,12.3278689 23,12.3278689 C29.4447945,12.3278689 34.6885246,17.6858675 34.6885246,24.2711036 C34.6885246,30.8563397 29.4447945,36.2131148 23,36.2131148" id="Fill-14" fill="#FFA143"></path>
                                <path d="M22.6229508,13.9603533 C17.2668755,13.9603533 12.9091115,18.4130683 12.9091115,23.8858466 C12.9091115,29.3574235 17.2668755,33.8101385 22.6229508,33.8101385 C27.9790261,33.8101385 32.3367901,29.3574235 32.3367901,23.8858466 C32.3367901,18.4130683 27.9790261,13.9603533 22.6229508,13.9603533 M11.7332443,23.8858466 C11.7332443,30.020645 16.6189727,35.0116266 22.6229508,35.0116266 C28.626929,35.0116266 33.5126573,30.020645 33.5126573,23.8858466 C33.5126573,30.020645 28.626929,35.0116266 22.6229508,35.0116266 C16.6189727,35.0116266 11.7332443,30.020645 11.7332443,23.8858466 M22.6229508,36.2131148 C15.969894,36.2131148 10.557377,30.6838664 10.557377,23.8858466 C10.557377,17.0878269 15.969894,11.557377 22.6229508,11.557377 C29.2760077,11.557377 34.6885246,17.0878269 34.6885246,23.8858466 C34.6885246,30.6838664 29.2760077,36.2131148 22.6229508,36.2131148" id="Fill-16" fill="#FFA143"></path>
                            </g>
                            <g id="Group-2" transform="translate(651.000000, 0.000000)">
                                <path d="M46,23.5 C46,36.4775428 35.7029352,47 23,47 C10.2970648,47 0,36.4775428 0,23.5 C0,10.520914 10.2970648,0 23,0 C35.7029352,0 46,10.520914 46,23.5" id="Fill-4" fill-opacity="0.2" fill="#FFF78D"></path>
                                <path d="M40.7213115,23.8852459 C40.7213115,34.0970829 32.6187031,42.3770492 22.6229508,42.3770492 C12.6271985,42.3770492 4.52459016,34.0970829 4.52459016,23.8852459 C4.52459016,13.6721947 12.6271985,5.39344262 22.6229508,5.39344262 C32.6187031,5.39344262 40.7213115,13.6721947 40.7213115,23.8852459" id="Fill-4" fill-opacity="0.4" fill="#FFF78D"></path>
                                <path d="M36.9508197,23.8858512 C36.9508197,31.9708704 30.5362756,38.5245902 22.6229508,38.5245902 C14.7096261,38.5245902 8.29508197,31.9708704 8.29508197,23.8858512 C8.29508197,15.7996214 14.7096261,9.24590164 22.6229508,9.24590164 C30.5362756,9.24590164 36.9508197,15.7996214 36.9508197,23.8858512" id="Fill-6" fill-opacity="0.6" fill="#FFF78D"></path>
                                <path d="M33.9344262,24.271095 C33.9344262,30.4401042 29.0392604,35.442623 23,35.442623 C16.9619203,35.442623 12.0655738,30.4401042 12.0655738,24.271095 C12.0655738,18.1008795 16.9619203,13.0983607 23,13.0983607 C29.0392604,13.0983607 33.9344262,18.1008795 33.9344262,24.271095" id="Fill-8" fill="#F9CD41"></path>
                                <path d="M29.4098361,20.4186084 C29.4098361,22.3321094 27.8906196,23.8852459 26.0163934,23.8852459 C24.1421672,23.8852459 22.6229508,22.3321094 22.6229508,20.4186084 C22.6229508,18.5039561 24.1421672,16.9508197 26.0163934,16.9508197 C27.8906196,16.9508197 29.4098361,18.5039561 29.4098361,20.4186084" id="Fill-10" fill="#FFF2CF"></path>
                                <path d="M23.3770492,29.6645591 C23.3770492,31.1525346 22.1958555,32.3606557 20.7370935,32.3606557 C19.2795543,32.3606557 18.0983607,31.1525346 18.0983607,29.6645591 C18.0983607,28.1753343 19.2795543,26.9672131 20.7370935,26.9672131 C22.1958555,26.9672131 23.3770492,28.1753343 23.3770492,29.6645591" id="Fill-12" fill="#FFF3D2"></path>
                                <path d="M23,13.5514356 C17.2150126,13.5514356 12.5089475,18.3600528 12.5089475,24.2711036 C12.5089475,30.1821544 17.2150126,34.989548 23,34.989548 C28.7849874,34.989548 33.4910525,30.1821544 33.4910525,24.2711036 C33.4910525,18.3600528 28.7849874,13.5514356 23,13.5514356 M23,36.2131148 C16.5552055,36.2131148 11.3114754,30.8563397 11.3114754,24.2711036 C11.3114754,17.6858675 16.5552055,12.3278689 23,12.3278689 C29.4447945,12.3278689 34.6885246,17.6858675 34.6885246,24.2711036 C34.6885246,30.8563397 29.4447945,36.2131148 23,36.2131148" id="Fill-14" fill="#FFA143"></path>
                                <path d="M22.6229508,13.9603533 C17.2668755,13.9603533 12.9091115,18.4130683 12.9091115,23.8858466 C12.9091115,29.3574235 17.2668755,33.8101385 22.6229508,33.8101385 C27.9790261,33.8101385 32.3367901,29.3574235 32.3367901,23.8858466 C32.3367901,18.4130683 27.9790261,13.9603533 22.6229508,13.9603533 M11.7332443,23.8858466 C11.7332443,30.020645 16.6189727,35.0116266 22.6229508,35.0116266 C28.626929,35.0116266 33.5126573,30.020645 33.5126573,23.8858466 C33.5126573,30.020645 28.626929,35.0116266 22.6229508,35.0116266 C16.6189727,35.0116266 11.7332443,30.020645 11.7332443,23.8858466 M22.6229508,36.2131148 C15.969894,36.2131148 10.557377,30.6838664 10.557377,23.8858466 C10.557377,17.0878269 15.969894,11.557377 22.6229508,11.557377 C29.2760077,11.557377 34.6885246,17.0878269 34.6885246,23.8858466 C34.6885246,30.6838664 29.2760077,36.2131148 22.6229508,36.2131148" id="Fill-16" fill="#FFA143"></path>
                            </g>
                        </g>
                    </g>
                    <g id="Group-4" transform="translate(0.000000, 119.000000)">
                        <g id="Group-2">
                            <path d="M46,22 C46,34.149189 35.7029352,44 23,44 C10.2970648,44 0,34.149189 0,22 C0,9.84936634 10.2970648,0 23,0 C35.7029352,0 46,9.84936634 46,22" id="Fill-4" fill-opacity="0.2" fill="#FFF78D"></path>
                            <path d="M40.7213115,22.3606557 C40.7213115,31.9206733 32.6187031,39.6721311 22.6229508,39.6721311 C12.6271985,39.6721311 4.52459016,31.9206733 4.52459016,22.3606557 C4.52459016,12.7995014 12.6271985,5.04918033 22.6229508,5.04918033 C32.6187031,5.04918033 40.7213115,12.7995014 40.7213115,22.3606557" id="Fill-4" fill-opacity="0.4" fill="#FFF78D"></path>
                            <path d="M36.9508197,22.3612224 C36.9508197,29.9301766 30.5362756,36.0655738 22.6229508,36.0655738 C14.7096261,36.0655738 8.29508197,29.9301766 8.29508197,22.3612224 C8.29508197,14.7911349 14.7096261,8.6557377 22.6229508,8.6557377 C30.5362756,8.6557377 36.9508197,14.7911349 36.9508197,22.3612224" id="Fill-6" fill-opacity="0.6" fill="#FFF78D"></path>
                            <path d="M33.9344262,22.7218761 C33.9344262,28.4971188 29.0392604,33.1803279 23,33.1803279 C16.9619203,33.1803279 12.0655738,28.4971188 12.0655738,22.7218761 C12.0655738,16.9455042 16.9619203,12.2622951 23,12.2622951 C29.0392604,12.2622951 33.9344262,16.9455042 33.9344262,22.7218761" id="Fill-8" fill="#F9CD41"></path>
                            <path d="M29.4098361,19.115293 C29.4098361,20.9066556 27.8906196,22.3606557 26.0163934,22.3606557 C24.1421672,22.3606557 22.6229508,20.9066556 22.6229508,19.115293 C22.6229508,17.3228526 24.1421672,15.8688525 26.0163934,15.8688525 C27.8906196,15.8688525 29.4098361,17.3228526 29.4098361,19.115293" id="Fill-10" fill="#FFF2CF"></path>
                            <path d="M23.3770492,27.7710766 C23.3770492,29.1640749 22.1958555,30.295082 20.7370935,30.295082 C19.2795543,30.295082 18.0983607,29.1640749 18.0983607,27.7710766 C18.0983607,26.3769087 19.2795543,25.2459016 20.7370935,25.2459016 C22.1958555,25.2459016 23.3770492,26.3769087 23.3770492,27.7710766" id="Fill-12" fill="#FFF3D2"></path>
                            <path d="M23,12.6864503 C17.2150126,12.6864503 12.5089475,17.1881345 12.5089475,22.7218842 C12.5089475,28.2556339 17.2150126,32.7561726 23,32.7561726 C28.7849874,32.7561726 33.4910525,28.2556339 33.4910525,22.7218842 C33.4910525,17.1881345 28.7849874,12.6864503 23,12.6864503 M23,33.9016393 C16.5552055,33.9016393 11.3114754,28.8867861 11.3114754,22.7218842 C11.3114754,16.5569824 16.5552055,11.5409836 23,11.5409836 C29.4447945,11.5409836 34.6885246,16.5569824 34.6885246,22.7218842 C34.6885246,28.8867861 29.4447945,33.9016393 23,33.9016393" id="Fill-14" fill="#FFA143"></path>
                            <path d="M22.6229508,13.0692669 C17.2668755,13.0692669 12.9091115,17.237766 12.9091115,22.3612181 C12.9091115,27.4835454 17.2668755,31.6520446 22.6229508,31.6520446 C27.9790261,31.6520446 32.3367901,27.4835454 32.3367901,22.3612181 C32.3367901,17.237766 27.9790261,13.0692669 22.6229508,13.0692669 M11.7332443,22.3612181 C11.7332443,28.1044336 16.6189727,32.776842 22.6229508,32.776842 C28.626929,32.776842 33.5126573,28.1044336 33.5126573,22.3612181 C33.5126573,28.1044336 28.626929,32.776842 22.6229508,32.776842 C16.6189727,32.776842 11.7332443,28.1044336 11.7332443,22.3612181 M22.6229508,33.9016393 C15.969894,33.9016393 10.557377,28.7253218 10.557377,22.3612181 C10.557377,15.9971145 15.969894,10.8196721 22.6229508,10.8196721 C29.2760077,10.8196721 34.6885246,15.9971145 34.6885246,22.3612181 C34.6885246,28.7253218 29.2760077,33.9016393 22.6229508,33.9016393" id="Fill-16" fill="#FFA143"></path>
                        </g>
                    </g>
                    <g id="Group-4" transform="translate(692.000000, 141.000000) scale(-1, 1) translate(-692.000000, -141.000000) translate(669.000000, 119.000000)">
                        <g id="Group-2">
                            <path d="M46,22 C46,34.149189 35.7029352,44 23,44 C10.2970648,44 0,34.149189 0,22 C0,9.84936634 10.2970648,0 23,0 C35.7029352,0 46,9.84936634 46,22" id="Fill-4" fill-opacity="0.2" fill="#FFF78D"></path>
                            <path d="M40.7213115,22.3606557 C40.7213115,31.9206733 32.6187031,39.6721311 22.6229508,39.6721311 C12.6271985,39.6721311 4.52459016,31.9206733 4.52459016,22.3606557 C4.52459016,12.7995014 12.6271985,5.04918033 22.6229508,5.04918033 C32.6187031,5.04918033 40.7213115,12.7995014 40.7213115,22.3606557" id="Fill-4" fill-opacity="0.4" fill="#FFF78D"></path>
                            <path d="M36.9508197,22.3612224 C36.9508197,29.9301766 30.5362756,36.0655738 22.6229508,36.0655738 C14.7096261,36.0655738 8.29508197,29.9301766 8.29508197,22.3612224 C8.29508197,14.7911349 14.7096261,8.6557377 22.6229508,8.6557377 C30.5362756,8.6557377 36.9508197,14.7911349 36.9508197,22.3612224" id="Fill-6" fill-opacity="0.6" fill="#FFF78D"></path>
                            <path d="M33.9344262,22.7218761 C33.9344262,28.4971188 29.0392604,33.1803279 23,33.1803279 C16.9619203,33.1803279 12.0655738,28.4971188 12.0655738,22.7218761 C12.0655738,16.9455042 16.9619203,12.2622951 23,12.2622951 C29.0392604,12.2622951 33.9344262,16.9455042 33.9344262,22.7218761" id="Fill-8" fill="#F9CD41"></path>
                            <path d="M29.4098361,19.115293 C29.4098361,20.9066556 27.8906196,22.3606557 26.0163934,22.3606557 C24.1421672,22.3606557 22.6229508,20.9066556 22.6229508,19.115293 C22.6229508,17.3228526 24.1421672,15.8688525 26.0163934,15.8688525 C27.8906196,15.8688525 29.4098361,17.3228526 29.4098361,19.115293" id="Fill-10" fill="#FFF2CF"></path>
                            <path d="M23.3770492,27.7710766 C23.3770492,29.1640749 22.1958555,30.295082 20.7370935,30.295082 C19.2795543,30.295082 18.0983607,29.1640749 18.0983607,27.7710766 C18.0983607,26.3769087 19.2795543,25.2459016 20.7370935,25.2459016 C22.1958555,25.2459016 23.3770492,26.3769087 23.3770492,27.7710766" id="Fill-12" fill="#FFF3D2"></path>
                            <path d="M23,12.6864503 C17.2150126,12.6864503 12.5089475,17.1881345 12.5089475,22.7218842 C12.5089475,28.2556339 17.2150126,32.7561726 23,32.7561726 C28.7849874,32.7561726 33.4910525,28.2556339 33.4910525,22.7218842 C33.4910525,17.1881345 28.7849874,12.6864503 23,12.6864503 M23,33.9016393 C16.5552055,33.9016393 11.3114754,28.8867861 11.3114754,22.7218842 C11.3114754,16.5569824 16.5552055,11.5409836 23,11.5409836 C29.4447945,11.5409836 34.6885246,16.5569824 34.6885246,22.7218842 C34.6885246,28.8867861 29.4447945,33.9016393 23,33.9016393" id="Fill-14" fill="#FFA143"></path>
                            <path d="M22.6229508,13.0692669 C17.2668755,13.0692669 12.9091115,17.237766 12.9091115,22.3612181 C12.9091115,27.4835454 17.2668755,31.6520446 22.6229508,31.6520446 C27.9790261,31.6520446 32.3367901,27.4835454 32.3367901,22.3612181 C32.3367901,17.237766 27.9790261,13.0692669 22.6229508,13.0692669 M11.7332443,22.3612181 C11.7332443,28.1044336 16.6189727,32.776842 22.6229508,32.776842 C28.626929,32.776842 33.5126573,28.1044336 33.5126573,22.3612181 C33.5126573,28.1044336 28.626929,32.776842 22.6229508,32.776842 C16.6189727,32.776842 11.7332443,28.1044336 11.7332443,22.3612181 M22.6229508,33.9016393 C15.969894,33.9016393 10.557377,28.7253218 10.557377,22.3612181 C10.557377,15.9971145 15.969894,10.8196721 22.6229508,10.8196721 C29.2760077,10.8196721 34.6885246,15.9971145 34.6885246,22.3612181 C34.6885246,28.7253218 29.2760077,33.9016393 22.6229508,33.9016393" id="Fill-16" fill="#FFA143"></path>
                        </g>
                    </g>
                </g>
            </g>
        </g>
    </g>
</svg>