<?xml version="1.0" encoding="UTF-8"?>
<svg width="655px" height="999px" viewBox="0 0 655 999" version="1.1" xmlns="http://www.w3.org/2000/svg" xmlns:xlink="http://www.w3.org/1999/xlink">
    <!-- Generator: Sketch 53.2 (72643) - https://sketchapp.com -->
    <title>RANK Copy 2</title>
    <desc>Created with Sketch.</desc>
    <g id="Page-1" stroke="none" stroke-width="1" fill="none" fill-rule="evenodd">
        <g id="RANK" transform="translate(2.000000, -1.000000)">
            <path d="M650.99415,972.727182 L650.999995,980.984531 C651.007143,991.477939 642.506349,999.990321 632.012941,999.997468 C632.008628,999.997471 632.004314,999.997473 632,999.997473 L18,999.997473 C7.50658975,999.997473 -1,991.490883 -1,980.997473 C-1,980.993159 -0.999998531,980.988845 -0.999995593,980.984531 L-0.994149535,972.726938 C-0.741444207,983.000312 7.66578009,991.250761 18,991.250761 L632,991.250761 C632.004314,991.250761 632.008628,991.25076 632.012941,991.250757 C642.342739,991.243721 650.741574,982.994606 650.99415,972.727182 Z" id="Combined-Shape" fill="#02275F"></path>
            <path d="M19.6818361,3 L631.318164,3.01312405 C641.806451,3.01312405 650.310917,11.5117199 650.318159,22.0000045 L650.999995,971.451007 C651.007241,981.944414 642.506527,990.456876 632.013119,990.464122 C632.008746,990.464125 632.004373,990.464126 632,990.464126 L19,990.464126 C8.50658975,990.464126 -8.34625424e-12,981.957537 -8.338219e-12,971.464126 C-8.338219e-12,971.459753 1.50983213e-06,971.45538 4.5295128e-06,971.451007 L0.68184061,22.0000045 C0.689082783,11.5117199 9.19354896,3.01312405 19.6818361,3.01312405 Z" id="Combined-Shape-Copy-15" stroke="#69C3FF" stroke-width="3" fill="#4AB1FF"></path>
            <path d="M24,176.466667 L24,162 C24,153.163444 31.163444,146 40,146 L609,146 C617.836556,146 625,153.163444 625,162 L625,176.466667 C625,167.630111 617.836556,160.466667 609,160.466667 L40,160.466667 C31.163444,160.466667 24,167.630111 24,176.466667 Z" id="Combined-Shape-Copy-19" fill="#9DD8FF"></path>
            <path d="M24,181.395248 L24,167 C24,158.163444 31.163444,151 40,151 L609,151 C617.836556,151 625,158.163444 625,167 L625,181.395248 C625,172.558692 617.836556,165.395248 609,165.395248 L40,165.395248 C31.163444,165.395248 24,172.558692 24,181.395248 Z" id="Combined-Shape" fill="#0247B4"></path>
            <path d="M24,188.819322 L24,179 C24,170.163444 31.163444,163 40,163 L609,163 C617.836556,163 625,170.163444 625,179 L625,188.819322 C625,179.982766 617.836556,172.819322 609,172.819322 L40,172.819322 C31.163444,172.819322 24,179.982766 24,188.819322 Z" id="Combined-Shape" fill="#02044B"></path>
            <path d="M40,171 L609,171 C617.836556,171 625,178.163444 625,187 L625,941 C625,949.836556 617.836556,957 609,957 L40,957 C31.163444,957 24,949.836556 24,941 L24,187 C24,178.163444 31.163444,171 40,171 Z" id="Rectangle" fill="#003380"></path>
            <path d="M24,54.4666667 L24,40 C24,31.163444 31.163444,24 40,24 L609,24 C617.836556,24 625,31.163444 625,40 L625,54.4666667 C625,45.6301107 617.836556,38.4666667 609,38.4666667 L40,38.4666667 C31.163444,38.4666667 24,45.6301107 24,54.4666667 Z" id="Combined-Shape-Copy-19" fill="#9DD8FF"></path>
            <path d="M24,59.3952484 L24,45 C24,36.163444 31.163444,29 40,29 L609,29 C617.836556,29 625,36.163444 625,45 L625,59.3952484 C625,50.5586924 617.836556,43.3952484 609,43.3952484 L40,43.3952484 C31.163444,43.3952484 24,50.5586924 24,59.3952484 Z" id="Combined-Shape" fill="#0247B4"></path>
            <path d="M24,66.8193225 L24,57 C24,48.163444 31.163444,41 40,41 L609,41 C617.836556,41 625,48.163444 625,57 L625,66.8193225 C625,57.9827665 617.836556,50.8193225 609,50.8193225 L40,50.8193225 C31.163444,50.8193225 24,57.9827665 24,66.8193225 Z" id="Combined-Shape" fill="#02044B"></path>
            <path d="M40,49 L609,49 C617.836556,49 625,56.163444 625,65 L625,110 C625,118.836556 617.836556,126 609,126 L40,126 C31.163444,126 24,118.836556 24,110 L24,65 C24,56.163444 31.163444,49 40,49 Z" id="Rectangle" fill="#003380"></path>
        </g>
    </g>
</svg>