<?xml version="1.0" encoding="UTF-8"?>
<svg width="517px" height="641px" viewBox="0 0 517 641" version="1.1" xmlns="http://www.w3.org/2000/svg" xmlns:xlink="http://www.w3.org/1999/xlink">
    <!-- Generator: Sketch 55.2 (78181) - https://sketchapp.com -->
    <title>Group 6</title>
    <desc>Created with Sketch.</desc>
    <g id="Page-1" stroke="none" stroke-width="1" fill="none" fill-rule="evenodd">
        <g id="Artboard-Copy-26" transform="translate(-13.000000, -19.000000)">
            <g id="Group-6" transform="translate(13.000000, 19.000000)">
                <path d="M516.802648,611.085651 L516.914528,621.801641 C517.024078,632.29448 508.60676,640.889414 498.113922,640.998965 C498.047805,640.999655 497.981684,641 497.915563,641 L19,641 C8.50658975,641 4.60230785e-13,632.49341 3.97903932e-13,622 L3.97903932e-13,473.5 L3.97903932e-13,609 C4.60230785e-13,619.49341 8.50658975,628 19,628 L497.915563,628 C497.981684,628 498.047805,627.999655 498.113922,627.998965 C507.834261,627.897479 515.773436,620.514034 516.802648,611.085651 Z" id="Combined-Shape" fill="#00225A"></path>
                <path d="M23,1.5 C11.1258779,1.5 1.5,11.1258779 1.5,23 L1.5,612 C1.5,623.874122 11.1258779,633.5 23,633.5 L493.992879,633.5 C494.049791,633.49995 494.049791,633.49995 494.106703,633.499699 C505.980659,633.436835 515.555441,623.760131 515.492577,611.886175 L512.374271,22.8861755 C512.311643,11.0566463 502.704267,1.5 490.874572,1.5 L23,1.5 Z" id="Rectangle" stroke="#71BCFF" stroke-width="3" fill="#2E97FF"></path>
            </g>
        </g>
    </g>
</svg>