<?xml version="1.0" encoding="utf-8"?>
<!-- Generator: Adobe Illustrator 23.0.4, SVG Export Plug-In . SVG Version: 6.00 Build 0)  -->
<svg version="1.1" id="Camada_1" xmlns="http://www.w3.org/2000/svg" xmlns:xlink="http://www.w3.org/1999/xlink" x="0px" y="0px"
	 viewBox="0 0 518 1049" style="enable-background:new 0 0 518 1049;" xml:space="preserve">
<style type="text/css">
	.st0{fill-rule:evenodd;clip-rule:evenodd;fill:#00225A;}
	.st1{fill-rule:evenodd;clip-rule:evenodd;fill:#2E97FF;stroke:#71BCFF;stroke-width:3;}
	.st2{fill-rule:evenodd;clip-rule:evenodd;fill:#033D95;}
	.st3{fill-rule:evenodd;clip-rule:evenodd;fill:#9DD8FF;}
	.st4{fill-rule:evenodd;clip-rule:evenodd;fill:#02044B;}
</style>
<title>Group</title>
<desc>Created with Sketch.</desc>
<g id="Page-1">
	<g>
		<path id="Combined-Shape" class="st0" d="M516.8,1018.1l0.1,11.7c0.1,10.5-8.3,19.1-18.8,19.2c-0.1,0-0.1,0-0.2,0H19
			c-10.5,0-19-8.5-19-19v-14c0,10.5,8.5,20,19,20h478.9c0.1,0,0.1,0,0.2,0C507.8,1035.9,515.8,1027.5,516.8,1018.1z"/>
		<path id="Rectangle" class="st1" d="M23,1.5C11.1,1.5,1.5,11.1,1.5,23v991.3c0,11.9,9.6,21.5,21.5,21.5h471c0,0,0,0,0.1,0
			c11.9,0,21.5-9.7,21.4-21.6l0.8-991.3c0-11.8-9.7-21.4-21.5-21.4H23z"/>
		<g id="bloco_options1" transform="translate(20.000000, 671.000000)">
			<g id="Group" transform="translate(0.000000, 95.000000)">
				<path id="Rectangle-Copy-20" class="st2" d="M15,13h447c7.7,0,14,6.3,14,14v210c0,7.7-6.3,14-14,14H15c-7.7,0-14-6.3-14-14V27
					C1,19.3,7.3,13,15,13z"/>
				<g id="Group-3-Copy-5">
					<path class="st3" d="M476,27.8c0-7.2-5.8-13-13-13H14c-7.2,0-13,5.8-13,13V15C1,7.8,6.8,2,14,2h449c7.2,0,13,5.8,13,13V27.8z"
						/>
					<path class="st4" d="M476,28.2c0-7.2-5.8-13-13-13H14c-7.2,0-13,5.8-13,13V18C1,10.8,6.8,5,14,5h449c7.2,0,13,5.8,13,13V28.2z"
						/>
				</g>
			</g>
		</g>
	</g>
</g>
</svg>
