<?xml version="1.0" encoding="utf-8"?>
<!-- Generator: Adobe Illustrator 23.0.4, SVG Export Plug-In . SVG Version: 6.00 Build 0)  -->
<svg version="1.1" id="Camada_1" xmlns="http://www.w3.org/2000/svg" xmlns:xlink="http://www.w3.org/1999/xlink" x="0px" y="0px"
	 viewBox="0 0 1366 595" style="enable-background:new 0 0 1366 595;" xml:space="preserve">
<style type="text/css">
	.st0{fill-rule:evenodd;clip-rule:evenodd;fill:#02044B;}
	.st1{fill-rule:evenodd;clip-rule:evenodd;fill:#269FFF;stroke:#69C3FF;stroke-width:3;}
	.st2{fill-rule:evenodd;clip-rule:evenodd;fill:#003380;}
</style>
<title>Group 2</title>
<desc>Created with Sketch.</desc>
<g id="Page-1">
	<g id="Artboard-Copy-13" transform="translate(-279.000000, -294.000000)">
		<g id="Group-2" transform="translate(279.000000, 294.000000)">
			<path id="Path-3" class="st0" d="M1165,560.3l0,7.8c0,14.8-11.6,26.8-26,26.9c0,0,0,0-0.1,0H227c-14.4,0-26-12-26-26.8v-8.9
				c0,14.8,11.7,26.8,26,26.8H1139c0,0,0,0,0.1,0C1153.1,586,1164.5,574.6,1165,560.3L1165,560.3z"/>
			<path id="Path" class="st0" d="M204,247H25c-12.7,0-23-10.3-23-23v-69v68c0,7.2,5.8,13,9,10h189L204,247z"/>
			<path class="st0" d="M1161,247h179c12.7,0,23-10.3,23-23v-69v68c0,7.2-5.8,13-13,13h-189V247z"/>
			<path id="Combined-Shape" class="st1" d="M1163.5,557.9l-0.8-323.4H1348c9.1,0,16.5-7.4,16.5-16.5V18c0-9.1-7.4-16.5-16.5-16.5
				H18C8.9,1.5,1.5,8.9,1.5,18v200c0,9.1,7.4,16.5,16.5,16.5h184.5V558c0,15.7,12.8,28.5,28.5,28.5h904c0,0,0,0,0.1,0
				C1150.8,586.5,1163.5,573.7,1163.5,557.9z"/>
			<path class="st2" d="M1137.3,214v314.1c0,7.7-6.3,14-14,14H241.8c-7.7,0-14-6.3-14-14V214H36c-6.6,0-12-5.4-12-12V43
				c0-6.6,5.4-12,12-12h1291c6.6,0,12,5.4,12,12v159c0,6.6-5.4,12-12,12H1137.3z"/>
			<path class="st0" d="M1338,149V58c0-7.2-5.8-13-13-13H37c-7.2,0-13,5.8-13,13v91V44c0-7.2,5.8-13,13-13h1288c7.2,0,13,5.8,13,13
				V149z"/>
		</g>
	</g>
</g>
</svg>
