<?xml version="1.0" encoding="utf-8"?>
<!-- Generator: Adobe Illustrator 23.0.4, SVG Export Plug-In . SVG Version: 6.00 Build 0)  -->
<svg version="1.1" id="Camada_1" xmlns="http://www.w3.org/2000/svg" xmlns:xlink="http://www.w3.org/1999/xlink" x="0px" y="0px"
	 viewBox="0 0 1367 435" style="enable-background:new 0 0 1367 435;" xml:space="preserve">
<style type="text/css">
	.st0{fill-rule:evenodd;clip-rule:evenodd;fill:#02044B;}
	.st1{fill-rule:evenodd;clip-rule:evenodd;fill:#269FFF;stroke:#69C3FF;stroke-width:3;}
	.st2{fill-rule:evenodd;clip-rule:evenodd;fill:#003380;}
</style>
<title>Group 7</title>
<desc>Created with Sketch.</desc>
<g id="Page-1">
	<g id="Artboard-Copy-19" transform="translate(-278.000000, -414.000000)">
		<g id="Group-7" transform="translate(278.000000, 414.000000)">
			<g id="Group-5">
				<g id="Group-2">
					<path id="Path" class="st0" d="M204,236H25c-12.7,0-23-10.3-23-23v-69v68c0,7.2,5.8,13,13,13h189V236z"/>
					<path class="st0" d="M1162,238h179c12.7,0,23-10.3,23-23v-69v68c0,7.2-5.8,13-13,13h-189V238z"/>
					<path id="Path-3" class="st0" d="M1166,400.3l0,7.8c0,14.8-11.6,26.8-26,26.9c0,0,0,0-0.1,0H228c-14.4,0-26-12-26-26.8v-8.9
						c0,14.8,15.7,16.8,30,16.8H1131c0,0,3,0,3.1,0C1148.1,416,1165.5,414.6,1166,400.3L1166,400.3z"/>
					<path id="Combined-Shape" class="st1" d="M1164.4,394.9l-0.6-170.4h1.5H1349c9.1,0,16.5-7.4,16.5-16.5V18
						c0-9.1-7.4-16.5-16.5-16.5H19C9.9,1.5,2.5,8.9,2.5,18v190c0,9.1,7.4,16.5,16.5,16.5h184.5V395c0,15.7,12.8,28.5,28.5,28.5
						h903.9c0,0,0,0,0.1,0C1151.8,423.4,1164.5,410.6,1164.4,394.9z"/>
					<path class="st2" d="M1138.3,202v179.1c0,7.7-6.3,14-14,14H242.8c-7.7,0-14-6.3-14-14V202H37c-6.6,0-12-5.4-12-12V33
						c0-6.6,5.4-12,12-12h1291c6.6,0,12,5.4,12,12v157c0,6.6-5.4,12-12,12H1138.3z"/>
				</g>
			</g>
			<path class="st0" d="M1339,141V50c0-7.2-5.8-13-13-13H38c-7.2,0-13,5.8-13,13v91V36c0-7.2,5.8-13,13-13h1288c7.2,0,13,5.8,13,13
				V141z"/>
		</g>
	</g>
</g>
</svg>
