<?xml version="1.0" encoding="UTF-8"?>
<svg width="964px" height="486px" viewBox="0 0 964 486" version="1.1" xmlns="http://www.w3.org/2000/svg" xmlns:xlink="http://www.w3.org/1999/xlink">
    <!-- Generator: Sketch 53.2 (72643) - https://sketchapp.com -->
    <title>Group 6</title>
    <desc>Created with Sketch.</desc>
    <g id="Page-1" stroke="none" stroke-width="1" fill="none" fill-rule="evenodd">
        <g id="Artboard" transform="translate(-1074.000000, -106.000000)">
            <g id="Group-6" transform="translate(1074.000000, 106.000000)">
                <g id="Group-8">
                    <g id="Group-5">
                        <g id="Group-4">
                            <path d="M30,1.5 C14.2598846,1.5 1.5,14.2598846 1.5,30 L1.5,446.172794 C1.5,461.912909 14.2598846,474.672794 30,474.672794 L933.943927,474.672794 C933.986391,474.672773 933.986391,474.672773 934.028855,474.672668 C949.7689,474.625763 962.490705,461.827912 962.443801,446.087867 L961.203637,29.9150725 C961.156831,14.2081829 948.410722,1.5 932.703763,1.5 L30,1.5 Z" id="Rectangle" stroke="#69C3FF" stroke-width="3" fill="#269FFF"></path>
                            <path d="M30,1.5 C14.2598846,1.5 1.5,14.2598846 1.5,30 L1.5,446.172794 C1.5,461.912909 14.2598846,474.672794 30,474.672794 L933.943927,474.672794 C933.986391,474.672773 933.986391,474.672773 934.028855,474.672668 C949.7689,474.625763 962.490705,461.827912 962.443801,446.087867 L961.203637,29.9150725 C961.156831,14.2081829 948.410722,1.5 932.703763,1.5 L30,1.5 Z" id="Rectangle" stroke="#9DD8FF" stroke-width="3" fill="#269FFF"></path>
                            <rect id="Rectangle" fill="#003380" x="26.802595" y="24.1213235" width="909.50139" height="424.356618" rx="14"></rect>
                            <path d="M936.303985,47.0735401 C936.303985,39.8938383 930.483687,34.0735401 923.303985,34.0735401 L39.802595,34.0735401 C32.6228932,34.0735401 26.802595,39.8938383 26.802595,47.0735401 L26.802595,34.4411765 C26.802595,27.2614747 32.6228932,21.4411765 39.802595,21.4411765 L923.303985,21.4411765 C930.483687,21.4411765 936.303985,27.2614747 936.303985,34.4411765 L936.303985,47.0735401 Z" id="Combined-Shape" fill="#9DD8FF"></path>
                            <path d="M936.303985,47.6571173 C936.303985,40.4774155 930.483687,34.6571173 923.303985,34.6571173 L39.802595,34.6571173 C32.6228932,34.6571173 26.802595,40.4774155 26.802595,47.6571173 L26.802595,37.1213235 C26.802595,29.9416218 32.6228932,24.1213235 39.802595,24.1213235 L923.303985,24.1213235 C930.483687,24.1213235 936.303985,29.9416218 936.303985,37.1213235 L936.303985,47.6571173 Z" id="Combined-Shape" fill="#02044B"></path>
                        </g>
                    </g>
                </g>
                <path d="M963.981276,451.291886 L963.99992,459.132917 C964.035116,473.934916 952.409018,485.963683 938.032303,485.99992 C938.011061,485.999973 937.989818,486 937.968576,486 L26.0314225,486 C11.6546648,486 0,474.000573 0,459.198529 L0,450.264706 C0,465.066749 11.6546648,477.066176 26.0314225,477.066176 L937.968576,477.066176 C937.989818,477.066176 938.011061,477.06615 938.032303,477.066096 C952.053529,477.030755 963.458484,465.588624 963.981276,451.291881 L963.981276,451.291886 Z" id="Path" fill="#02044B"></path>
            </g>
        </g>
    </g>
</svg>