<?xml version="1.0" encoding="utf-8"?>
<!-- Generator: Adobe Illustrator 26.3.1, SVG Export Plug-In . SVG Version: 6.00 Build 0)  -->
<svg version="1.1" id="Camada_1" xmlns="http://www.w3.org/2000/svg" xmlns:xlink="http://www.w3.org/1999/xlink" x="0px" y="0px"
	 viewBox="0 0 655 1049" style="enable-background:new 0 0 655 1049;" xml:space="preserve">
<style type="text/css">
	.st0{fill-rule:evenodd;clip-rule:evenodd;fill:#02275F;}
	.st1{fill-rule:evenodd;clip-rule:evenodd;fill:#4AB1FF;stroke:#69C3FF;stroke-width:3;}
	.st2{fill-rule:evenodd;clip-rule:evenodd;fill:#9DD8FF;}
	.st3{fill-rule:evenodd;clip-rule:evenodd;fill:#0247B4;}
	.st4{fill-rule:evenodd;clip-rule:evenodd;fill:#02044B;}
	.st5{fill-rule:evenodd;clip-rule:evenodd;fill:#003380;}
</style>
<g id="Page-1">
	<g id="Artboard-Copy-11" transform="translate(-1233.000000, -43.000000)">
		<g id="Group-7" transform="translate(1234.000000, 45.000000)">
			<path id="Combined-Shape" class="st0" d="M19.5,1038.2L19.5,1038.2h614c10.3,0,18.7-8.2,19-18.5v8.3l0,0c0,10.5-8.5,19-19,19
				h-614l0,0c-10.5,0-19-8.5-19-19v-8.3C0.8,1030,9.2,1038.2,19.5,1038.2z"/>
			<path id="Combined-Shape-Copy-15" class="st1" d="M631.8,0c10.5,0,19,8.5,19,19l0.7,999.5l0,0c0,10.5-8.5,19-19,19h-613l0,0
				c-10.5,0-19-8.5-19-19L1.2,19c0-10.5,8.5-19,19-19H631.8L631.8,0z"/>
			<path id="Combined-Shape-Copy-19" class="st2" d="M611.5,157.5h-569c-8.8,0-16,7.2-16,16V159c0-8.8,7.2-16,16-16h569
				c8.8,0,16,7.2,16,16v14.5C627.5,164.6,620.3,157.5,611.5,157.5z"/>
			<path class="st3" d="M611.5,162.4h-569c-8.8,0-16,7.2-16,16V164c0-8.8,7.2-16,16-16h569c8.8,0,16,7.2,16,16v14.4
				C627.5,169.6,620.3,162.4,611.5,162.4z"/>
			<path class="st4" d="M611.5,169.8h-569c-8.8,0-16,7.2-16,16V176c0-8.8,7.2-16,16-16h569c8.8,0,16,7.2,16,16v9.8
				C627.5,177,620.3,169.8,611.5,169.8z"/>
			<path id="Rectangle" class="st5" d="M627.5,184v814c0,8.8-7.2,16-16,16h-569c-8.8,0-16-7.2-16-16V184c0-8.8,7.2-16,16-16h569
				C620.3,168,627.5,175.2,627.5,184z"/>
			<g id="Group-Copy-4" transform="translate(188.000000, 17.000000)">
				<g id="Group-Copy-3">
					<path class="st2" d="M423.5,14.5h-569c-8.8,0-16,7.2-16,16V16c0-8.8,7.2-16,16-16h569c8.8,0,16,7.2,16,16v14.5
						C439.5,21.6,432.3,14.5,423.5,14.5z"/>
					<path class="st3" d="M423.5,18.4h-569c-8.8,0-16,7.2-16,16V20c0-8.8,7.2-16,16-16h569c8.8,0,16,7.2,16,16v14.4
						C439.5,25.6,432.3,18.4,423.5,18.4z"/>
					<path class="st4" d="M423.5,25.8h-569c-8.8,0-16,7.2-16,16V32c0-8.8,7.2-16,16-16h569c8.8,0,16,7.2,16,16v9.8
						C439.5,33,432.3,25.8,423.5,25.8z"/>
					<path class="st5" d="M439.5,40v53c0,8.8-7.2,16-16,16h-569c-8.8,0-16-7.2-16-16V40c0-8.8,7.2-16,16-16h569
						C432.3,24,439.5,31.2,439.5,40z"/>
				</g>
			</g>
		</g>
	</g>
</g>
</svg>
