<?xml version="1.0" encoding="UTF-8"?>
<svg width="36px" height="35px" viewBox="0 0 36 35" version="1.1" xmlns="http://www.w3.org/2000/svg" xmlns:xlink="http://www.w3.org/1999/xlink">
    <!-- Generator: Sketch 53.2 (72643) - https://sketchapp.com -->
    <title>Fill 1</title>
    <desc>Created with Sketch.</desc>
    <g id="Welcome" stroke="none" stroke-width="1" fill="none" fill-rule="evenodd">
        <g id="Ranking-Well-Done" transform="translate(-1683.000000, -842.000000)" fill="#FFC23F">
            <g id="Group-Copy-47" transform="translate(1650.000000, 840.000000)">
                <path d="M52.6717172,3.03569259 L56.7886642,11.3485992 C57.0612957,11.8959164 57.5854245,12.2748283 58.1919768,12.3632411 L67.4043855,13.6957481 C68.9302765,13.91678 69.5410556,15.7881839 68.4357357,16.8617677 L61.7721145,23.3327413 C61.3325226,23.7600698 61.1317475,24.3747491 61.2353052,24.974693 L62.809805,34.1127856 C63.0697559,35.6284333 61.4720085,36.7841146 60.1046241,36.0683921 L51.8665032,31.7551114 C51.3233536,31.4709274 50.6766464,31.4709274 50.1334968,31.7551114 L41.8953759,36.0683921 C40.5279915,36.7841146 38.9302441,35.6284333 39.190195,34.1127856 L40.7646948,24.974693 C40.8682525,24.3747491 40.6674774,23.7600698 40.2278855,23.3327413 L33.5642643,16.8617677 C32.4589444,15.7881839 33.0697235,13.91678 34.5956145,13.6957481 L43.8080232,12.3632411 C44.4145755,12.2748283 44.9387043,11.8959164 45.2113358,11.3485992 L49.3282828,3.03569259 C50.0109183,1.65476914 51.9890817,1.65476914 52.6717172,3.03569259" id="Fill-1"></path>
            </g>
        </g>
    </g>
</svg>